<?xml version="1.0" encoding="utf-8"?>
<!-- Generator: Adobe Illustrator 24.1.3, SVG Export Plug-In . SVG Version: 6.00 Build 0)  -->
<svg version="1.1" id="Layer_1" xmlns="http://www.w3.org/2000/svg" xmlns:xlink="http://www.w3.org/1999/xlink" x="0px" y="0px"
	 viewBox="0 0 38.98 41.98" style="enable-background:new 0 0 38.98 41.98;" xml:space="preserve">
<path id="Path_2231" d="M7.08,19.79c-0.67,0.33-1.28,0.64-1.9,0.94c-0.36,0.21-0.83,0.09-1.04-0.28c0-0.01-0.01-0.01-0.01-0.02
	c-0.15-0.27-0.13-0.6,0.05-0.85c0.67-1.16,1.33-2.33,2-3.49c0.22-0.4,0.47-0.79,0.74-1.15c0.39-0.47,0.89-0.85,1.45-1.11
	c3.51-1.75,7.02-3.51,10.53-5.27c0.65-0.36,1.43-0.36,2.09-0.01c3.52,1.76,7.04,3.52,10.56,5.28c0.49,0.23,0.89,0.62,1.13,1.1
	c0.9,1.83,1.82,3.64,2.72,5.47c0.28,0.48,0.12,1.1-0.36,1.38c-0.04,0.02-0.08,0.04-0.12,0.06c-0.6,0.31-1.2,0.6-1.8,0.89
	c-0.18,0.05-0.3,0.23-0.28,0.42c0.01,1.59,0,3.18,0.01,4.76c0.06,0.95-0.48,1.85-1.36,2.23c-3.47,1.72-6.93,3.45-10.38,5.19
	c-0.71,0.39-1.56,0.39-2.27,0c-3.46-1.75-6.93-3.48-10.41-5.2c-0.85-0.38-1.38-1.25-1.32-2.18c0.01-2.63,0-5.25,0-7.88
	C7.09,20,7.09,19.93,7.08,19.79z M9.23,16.7c-0.01,0.12-0.03,0.2-0.03,0.27c0,3.62,0,7.24,0,10.87c-0.02,0.22,0.1,0.43,0.31,0.51
	c3.01,1.5,6.02,3,9.03,4.5c0.1,0.05,0.21,0.09,0.34,0.14c0.01-0.13,0.02-0.22,0.02-0.31c0-3.62,0-7.24,0-10.87
	c0.02-0.19-0.09-0.37-0.27-0.43c-3-1.49-6-2.99-9-4.5C9.51,16.83,9.39,16.77,9.23,16.7L9.23,16.7z M33.09,20.43
	c-0.61-1.23-1.21-2.4-1.78-3.59c-0.12-0.26-0.24-0.27-0.48-0.15c-2.39,1.18-4.78,2.35-7.18,3.53c-0.76,0.37-1.51,0.75-2.3,1.14
	l1.93,3.88L33.09,20.43z M21.01,33.02c0.11-0.04,0.19-0.07,0.27-0.1c3.07-1.53,6.14-3.07,9.21-4.6c0.16-0.06,0.26-0.21,0.24-0.38
	c-0.01-1.26,0-2.53,0-3.79c-0.01-0.08-0.02-0.16-0.04-0.24c-0.67,0.32-1.31,0.63-1.95,0.94c-1.77,0.87-3.54,1.74-5.31,2.61
	c-0.46,0.33-1.11,0.23-1.45-0.24c-0.06-0.09-0.11-0.19-0.15-0.29c-0.18-0.36-0.36-0.72-0.54-1.08c-0.07-0.14-0.15-0.28-0.22-0.41
	l-0.07,0.03L21.01,33.02z M29.4,15.1l-9.43-4.72v9.35L29.4,15.1z"/>
</svg>
