<?xml version="1.0" encoding="utf-8"?>
<!-- Generator: Adobe Illustrator 24.1.3, SVG Export Plug-In . SVG Version: 6.00 Build 0)  -->
<svg version="1.1" id="Layer_1" xmlns="http://www.w3.org/2000/svg" xmlns:xlink="http://www.w3.org/1999/xlink" x="0px" y="0px"
	 viewBox="0 0 38.98 41.98" style="enable-background:new 0 0 38.98 41.98;" xml:space="preserve">
<g>
	<path d="M20.31,29.44c-3.19-3.47-6.26-6.88-8.25-11.11C9.81,13.57,13.34,7.51,19,6.73c5.41-0.74,9.98,3.07,10.26,8.51
		c0.06,1.24-0.34,2.37-0.87,3.46c-1.37,2.86-3.31,5.32-5.35,7.7C22.18,27.41,21.28,28.37,20.31,29.44z M20.28,20.89
		c2.96,0.01,5.45-2.4,5.46-5.29c0-3-2.39-5.44-5.36-5.46c-2.96-0.02-5.49,2.39-5.5,5.25C14.88,18.44,17.28,20.88,20.28,20.89z"/>
	<path d="M10.61,29.25c0.64,0.35,1.08,0.66,1.57,0.85c1.99,0.81,4.1,1.07,6.23,1.2c3.13,0.19,6.23,0.01,9.25-0.91
		c0.77-0.23,1.48-0.64,2.22-0.96c0-0.1-0.01-0.19-0.01-0.29c-0.41-0.24-0.8-0.54-1.24-0.72c-0.65-0.27-1.34-0.44-2-0.69
		c-0.59-0.22-0.83-0.71-0.69-1.31c0.14-0.58,0.6-0.92,1.16-0.81c1.57,0.3,3.09,0.77,4.26,1.92c1.13,1.11,1.01,2.59-0.26,3.64
		c-1.14,0.94-2.51,1.41-3.92,1.71c-4.99,1.05-9.98,1.08-14.91-0.36c-0.95-0.28-1.9-0.77-2.69-1.36c-1.49-1.11-1.48-2.89,0.08-3.9
		c1.13-0.73,2.46-1.15,3.73-1.62c0.59-0.22,1.18,0.2,1.33,0.75c0.16,0.6-0.14,1.16-0.79,1.39c-0.67,0.24-1.35,0.42-2,0.69
		C11.52,28.62,11.17,28.9,10.61,29.25z"/>
</g>
</svg>
