<?xml version="1.0" encoding="utf-8"?>
<!-- Generator: Adobe Illustrator 24.1.3, SVG Export Plug-In . SVG Version: 6.00 Build 0)  -->
<svg version="1.1" id="Layer_1" xmlns="http://www.w3.org/2000/svg" xmlns:xlink="http://www.w3.org/1999/xlink" x="0px" y="0px"
	 viewBox="0 0 38.98 41.98" style="enable-background:new 0 0 38.98 41.98;" xml:space="preserve">
<style type="text/css">
	.st0{fill:#F5D600;}
	.st1{fill:#383838;}
</style>
<g id="Group_4560">
	<g id="Group_3006">
		<path id="Path_1419" class="st0" d="M20.15,3.47L6.93,8v12.35c0,2.89,0.74,5.74,2.14,8.27c1.41,2.52,3.46,4.64,5.93,6.13
			l5.15,3.12l5.15-3.12c5.03-3.05,8.1-8.52,8.07-14.4V8L20.15,3.47z"/>
		<path id="Path_1420" class="st1" d="M30.93,18.8c-2.02-2.12-4.04-4.27-6.07-6.38c-0.53-0.54-0.94-0.53-1.5,0
			c-0.94,0.89-1.87,1.79-2.81,2.7c-0.35,0.36-0.55,0.36-0.94,0c-1.02-1.12-2.1-2.24-3.13-3.35h-0.7c-1.99,2.09-4.14,4-6.2,5.99
			c-0.32,0.24-0.54,0.6-0.6,1c0.48,1.1,1.29,2.02,2.32,2.64c0.69,0.43,1.32,0.95,1.87,1.53c0.33,0.33,0.66,0.66,0.94,1
			c1.42,1.54,2.86,3.1,4.37,4.57c0.76,0.83,2.06,0.89,2.89,0.13c0.77-0.78,1.56-1.5,2.34-2.25c0.53-0.65,1.16-1.21,1.87-1.66
			c0.3-0.17,0.57-0.39,0.8-0.66c0.43-0.43,0.85-0.86,1.29-1.28c0.18-0.21,0.41-0.37,0.67-0.46c1.09-0.38,2.01-1.15,2.58-2.16
			c0.35-0.34,0.35-0.9,0.01-1.24c0,0-0.01-0.01-0.01-0.01C30.93,18.88,30.94,18.84,30.93,18.8z M12.09,19.3
			c-0.55,0.53-0.66-0.07-0.94-0.26s-0.36-0.45,0-0.78c1.59-1.46,3.14-2.95,4.68-4.43c0.13-0.14,0.28-0.36,0.51-0.15
			c0.23,0.22,0.51,0.52,0.77,0.81c-0.14,0.15-0.22,0.25-0.32,0.35c-1.56,1.48-3.16,2.94-4.68,4.45H12.09z M24.68,23.42
			c-0.37,0.38-0.75,0.24-1.08-0.1c-0.33-0.35-0.51-0.53-0.78-0.79c-0.26-0.25-0.74-0.46-1.1-0.1c-0.36,0.36-0.28,0.75,0.07,1.09
			c0.35,0.34,0.56,0.55,0.81,0.85c0.27,0.25,0.29,0.66,0.06,0.94v0.05c-0.23,0.26-0.62,0.29-0.88,0.06c0,0,0,0,0,0
			c-0.04-0.03-0.07-0.06-0.09-0.09c-0.31-0.28-0.58-0.6-0.88-0.94c-0.25-0.32-0.72-0.37-1.04-0.12c0,0,0,0,0,0l-0.07,0.07
			c-0.38,0.36-0.2,0.71,0.1,1.03c0.3,0.32,0.47,0.51,0.71,0.76c0.24,0.25,0.56,0.73,0.11,1.14s-0.8,0.16-1.12-0.2
			c-0.78-0.82-1.57-1.64-2.36-2.47c-0.79-0.83-1.67-1.79-2.51-2.69c-0.28-0.07-0.35-0.36-0.52-0.53c-0.99-1.09-0.99-1.1,0.09-2.15
			c1.09-1.05,2.39-2.2,3.52-3.35c0.55-0.55,0.72,0,1.02,0.23c0.3,0.23,0.23,0.56-0.07,0.81c-0.31,0.25-0.47,0.44-0.71,0.66
			c-0.77,0.59-1.14,1.57-0.94,2.52c0.94,1.81,2.33,2.01,3.85,0.57c1.17-1.1,1.17-1.1,2.26,0.05c0.51,0.54,1.01,1.09,1.53,1.63
			c0.29,0.33,0.45,0.67,0.09,1.04L24.68,23.42z M26.72,21.55c-0.36,0.35-0.56,0.41-0.94,0c-0.99-1.1-2.02-2.16-3.06-3.23
			c-0.57-0.6-0.85-0.6-1.46,0s-1.11,1.05-1.67,1.57c-0.15,0.18-0.37,0.29-0.61,0.29c-0.26,0.01-0.5-0.13-0.61-0.37
			c-0.13-0.24-0.09-0.53,0.1-0.72l3.37-3.21c0.22-0.22,0.35-0.08,0.51,0.09c1.47,1.53,2.92,3.1,4.43,4.61
			c0.41,0.36,0.3,0.59-0.08,0.95L26.72,21.55z M28.7,20.24c-0.25,0.17-0.4-0.13-0.55-0.29c-1.56-1.64-3.11-3.29-4.68-4.93
			c-0.34-0.36-0.21-0.56,0.09-0.76c0.3-0.2,0.39-0.78,0.86-0.28c1.65,1.72,3.28,3.45,4.92,5.19c0.07,0.07,0.12,0.19,0.22,0.31
			c-0.26,0.27-0.54,0.53-0.84,0.76H28.7z"/>
		<g id="Group_2996">
			<path id="Path_1421" class="st0" d="M29.51,19.46c-0.26,0.27-0.54,0.53-0.84,0.76c-0.25,0.17-0.4-0.13-0.55-0.29
				c-1.55-1.65-3.11-3.29-4.68-4.93c-0.34-0.36-0.21-0.56,0.09-0.76c0.3-0.2,0.39-0.78,0.87-0.28l4.91,5.18
				C29.38,19.23,29.44,19.33,29.51,19.46z"/>
			<path id="Path_1422" class="st0" d="M26.7,21.53c-0.36,0.34-0.56,0.41-0.94,0c-0.98-1.1-2.02-2.16-3.05-3.23
				c-0.58-0.6-0.85-0.6-1.46,0s-1.11,1.05-1.67,1.57c-0.15,0.18-0.37,0.29-0.61,0.29c-0.26,0.02-0.51-0.14-0.61-0.38
				c-0.13-0.23-0.09-0.53,0.1-0.71c1.12-1.08,2.25-2.15,3.37-3.21c0.22-0.22,0.34-0.08,0.51,0.09c1.47,1.53,2.91,3.1,4.42,4.61
				C27.2,20.95,27.09,21.17,26.7,21.53z"/>
			<path id="Path_1423" class="st0" d="M24.68,23.37c-0.37,0.38-0.75,0.24-1.08-0.1c-0.33-0.35-0.51-0.53-0.78-0.79
				c-0.26-0.25-0.74-0.47-1.1-0.1c-0.36,0.36-0.28,0.74,0.07,1.09c0.35,0.35,0.56,0.55,0.81,0.85c0.27,0.25,0.29,0.66,0.06,0.94
				v0.05c-0.23,0.26-0.62,0.29-0.88,0.06c0,0,0,0,0,0c-0.04-0.03-0.07-0.06-0.09-0.09c-0.31-0.29-0.58-0.6-0.88-0.94
				c-0.25-0.32-0.72-0.37-1.04-0.12c0,0,0,0,0,0l-0.07,0.07c-0.38,0.36-0.2,0.71,0.1,1.02c0.3,0.31,0.47,0.51,0.71,0.76
				c0.24,0.25,0.56,0.74,0.11,1.15c-0.45,0.41-0.8,0.16-1.12-0.2c-0.78-0.82-1.57-1.64-2.36-2.47c-0.79-0.83-1.67-1.79-2.51-2.69
				c-0.28-0.08-0.35-0.36-0.52-0.54c-0.99-1.09-0.99-1.09,0.09-2.15s2.39-2.19,3.52-3.34c0.55-0.55,0.72,0,1.02,0.23
				c0.3,0.23,0.23,0.56-0.07,0.81c-0.31,0.25-0.47,0.43-0.71,0.66c-0.77,0.59-1.14,1.57-0.94,2.52c0.98,1.81,2.34,2.01,3.86,0.58
				c1.17-1.1,1.17-1.1,2.26,0c0.51,0.54,1.01,1.09,1.53,1.64C24.88,22.66,25.04,23.01,24.68,23.37z"/>
			<path id="Path_1424" class="st0" d="M17.1,14.45c-0.1,0.12-0.21,0.24-0.32,0.35c-1.56,1.49-3.16,2.94-4.68,4.46
				c-0.55,0.53-0.66-0.07-0.94-0.27c-0.27-0.2-0.36-0.45,0-0.77c1.59-1.46,3.14-2.95,4.68-4.44c0.13-0.13,0.28-0.36,0.51-0.15
				S16.84,14.16,17.1,14.45z"/>
		</g>
	</g>
</g>
</svg>
