<?xml version="1.0" encoding="utf-8"?>
<!-- Generator: Adobe Illustrator 24.1.3, SVG Export Plug-In . SVG Version: 6.00 Build 0)  -->
<svg version="1.1" id="Layer_1" xmlns="http://www.w3.org/2000/svg" xmlns:xlink="http://www.w3.org/1999/xlink" x="0px" y="0px"
	 viewBox="0 0 38.98 41.98" style="enable-background:new 0 0 38.98 41.98;" xml:space="preserve">
<style type="text/css">
	.st0{fill:#BEBEBE;}
	.st1{fill:#FFFFFF;}
</style>
<g id="Group_4573" transform="translate(-46.056 -54.217)">
	<path id="Path_1497" class="st0" d="M81.21,87.45c-0.32,0.5-0.88,0.78-1.47,0.72c-3.3-0.03-6.6-0.02-9.9-0.02h-0.84l10.12-8.5
		c0.48,1.69,0.94,3.29,1.41,4.91c0.22,0.73,0.46,1.46,0.69,2.18V87.45z"/>
	<path id="Path_1498" class="st0" d="M65.36,60.16c4.72-0.01,7.92,4.38,6.64,9.11c-0.89,2.84-2.46,5.43-4.58,7.53
		c-0.4,0.43-0.82,0.84-1.25,1.23c-0.37,0.42-1.03,0.47-1.46,0.09c-0.02-0.02-0.04-0.04-0.06-0.06c-2.79-2.64-5.17-5.56-6-9.43
		c-0.86-3.73,1.46-7.44,5.19-8.31C64.33,60.23,64.85,60.16,65.36,60.16z M67.18,67.18c0.05-0.99-0.71-1.83-1.7-1.88
		c-0.99-0.05-1.83,0.71-1.88,1.7s0.71,1.83,1.7,1.88C66.28,68.92,67.12,68.16,67.18,67.18L67.18,67.18z"/>
	<path id="Path_1499" class="st0" d="M51.95,78.65c0.32-1.14,0.64-2.21,0.95-3.28c0.1-0.48,0.52-0.82,1.01-0.81
		c1.8-0.02,3.61-0.02,5.41,0.01c0.22,0,0.46,0.26,0.62,0.45c1.17,1.33,2.3,2.72,3.52,4c0.86,1.06,2.4,1.23,3.46,0.37
		c0.14-0.11,0.27-0.23,0.37-0.37c1.24-1.3,2.37-2.71,3.58-4.04c0.2-0.22,0.48-0.37,0.79-0.41c1.64-0.03,3.28-0.01,4.92-0.02
		c0.66-0.08,1.26,0.37,1.38,1.02c0.19,0.72,0.42,1.44,0.58,2.16c0.03,0.25-0.04,0.5-0.21,0.68c-1.56,1.32-3.12,2.62-4.71,3.89
		c-0.22,0.16-0.49,0.22-0.76,0.19C65.92,81.23,58.99,79.95,51.95,78.65z"/>
	<path id="Path_1500" class="st0" d="M56.33,81l15.45,2.83c-1.24,1.05-2.46,1.95-3.53,3.01c-0.98,1.01-2.36,1.5-3.75,1.36
		c-2.45-0.12-4.92-0.03-7.38-0.03h-0.8V81z"/>
	<path id="Path_1501" class="st0" d="M54.74,88.15c-1.41,0-2.77,0.02-4.12-0.01c-0.55,0.02-1.01-0.41-1.03-0.96
		c-0.01-0.12,0.01-0.23,0.05-0.34c0.62-2.22,1.26-4.44,1.9-6.73l3.2,0.58L54.74,88.15z"/>
	<path id="Path_1502" class="st1" d="M67.17,67.18c-0.05,0.99-0.89,1.75-1.88,1.7c-0.99-0.05-1.75-0.89-1.7-1.88
		c0.05-0.99,0.89-1.75,1.88-1.7C66.46,65.35,67.23,66.19,67.17,67.18z"/>
</g>
</svg>
