<?xml version="1.0" encoding="utf-8"?>
<!-- Generator: Adobe Illustrator 24.1.3, SVG Export Plug-In . SVG Version: 6.00 Build 0)  -->
<svg version="1.1" id="Layer_1" xmlns="http://www.w3.org/2000/svg" xmlns:xlink="http://www.w3.org/1999/xlink" x="0px" y="0px"
	 viewBox="0 0 38.98 41.98" style="enable-background:new 0 0 38.98 41.98;" xml:space="preserve">
<style type="text/css">
	.st0{fill:#FFFFFF;}
</style>
<g id="_x32_CDWAV.tif">
	<g>
		<path class="st0" d="M14.26,9.26c-1.04,0-2.01-0.07-2.97,0.02c-1.51,0.14-2.64,1.31-2.82,2.81c-0.05,0.47-0.05,0.94-0.05,1.41
			c0,5.67,0.01,11.33-0.01,17c0,1.42,0.49,2.53,1.76,3.23c0.77,0.43,1.74,0.7,2.43,0.27c0.9-0.56,1.56-1.5,2.43-2.38
			c-1.08,0-1.99,0-2.91,0c-1.04,0-1.2-0.16-1.2-1.18c0-5.85,0-11.71,0-17.56c0-0.14-0.06-0.33,0.01-0.42
			c0.21-0.26,0.46-0.67,0.72-0.7c0.86-0.09,1.73-0.03,2.65-0.03c0,0.43-0.01,0.78,0,1.12c0.03,0.7,0.34,1.07,1.04,1.08
			c2.5,0.02,5,0.02,7.51,0c0.63-0.01,0.99-0.38,0.99-1.04c0-0.37,0-0.74,0-1.16c0.83,0,1.55,0,2.28,0c0.94,0,1.09,0.16,1.1,1.13
			c0,1.96,0,3.92,0,5.88c0,0.2,0.02,0.39,0.05,0.73c0.78-0.79,1.47-1.46,2.12-2.17c0.2-0.22,0.34-0.56,0.35-0.85
			c0.04-1.18,0.02-2.36,0.02-3.54c0-2.34-1.34-3.67-3.7-3.67c-0.72,0-1.45,0-2.17,0c-0.14-1.46-1.26-1.07-2.06-1.21
			c-0.01-2.08-1.01-3.39-2.69-3.33c-0.65,0.02-1.38,0.34-1.91,0.74c-0.82,0.61-1,1.58-0.86,2.61C15.46,8.1,14.4,7.81,14.26,9.26z
			 M28.37,21.34c-2.89,2.88-5.79,5.77-8.59,8.56c1.32,1.34,2.69,2.72,4.01,4.05c2.85-2.85,5.73-5.72,8.59-8.58
			C31.03,24.02,29.65,22.64,28.37,21.34z M25.53,21.23c-0.32-0.65-0.8-0.84-1.38-0.84c-3.39,0-6.79-0.01-10.19,0.01
			c-0.91,0-1.38,0.45-1.39,1.25c-0.01,0.83,0.47,1.27,1.43,1.27c3.11,0.01,6.22,0.01,9.34-0.01c0.23,0,0.51-0.1,0.68-0.25
			C24.55,22.21,25.02,21.72,25.53,21.23z M19.14,18.97c1.7,0,3.39,0,5.09,0c0.87,0,1.38-0.48,1.38-1.25
			c-0.01-0.75-0.49-1.22-1.34-1.22c-3.44-0.01-6.88-0.01-10.33,0c-0.91,0-1.37,0.45-1.36,1.25c0.01,0.81,0.46,1.21,1.39,1.22
			C15.7,18.97,17.42,18.97,19.14,18.97z M22.38,24.34c-3.01,0-5.79-0.01-8.57,0.01c-0.92,0.01-1.47,0.81-1.19,1.66
			c0.22,0.66,0.76,0.84,1.4,0.84c1.79,0,3.58,0,5.37-0.01c0.2,0,0.46-0.03,0.59-0.16C20.76,25.97,21.5,25.22,22.38,24.34z
			 M19.02,30.49c-0.51,1.9-1,3.74-1.53,5.72c2-0.54,3.84-1.03,5.71-1.53C21.79,33.26,20.45,31.92,19.02,30.49z M34.74,23.24
			c0.4-0.42,0.79-0.83,1.18-1.24c0.39-0.42,0.4-0.84,0-1.25c-0.98-0.99-1.97-1.97-2.95-2.95c-0.4-0.4-0.83-0.42-1.25-0.04
			c-0.44,0.39-0.86,0.8-1.28,1.19C31.89,20.4,33.28,21.78,34.74,23.24z M34.05,23.88c-1.43-1.44-2.8-2.82-4.15-4.18
			c-0.29,0.26-0.59,0.54-0.77,0.7c1.4,1.42,2.78,2.81,4.15,4.2C33.51,24.39,33.79,24.13,34.05,23.88z"/>
		<path d="M14.26,9.26c0.14-1.46,1.2-1.17,2.12-1.23c-0.15-1.03,0.04-2,0.86-2.61c0.53-0.4,1.26-0.71,1.91-0.74
			c1.67-0.06,2.68,1.24,2.69,3.33c0.8,0.13,1.92-0.26,2.06,1.21c0.73,0,1.45,0,2.17,0c2.36,0.01,3.7,1.33,3.7,3.67
			c0,1.18,0.02,2.36-0.02,3.54c-0.01,0.29-0.15,0.63-0.35,0.85c-0.64,0.72-1.34,1.38-2.12,2.17c-0.02-0.34-0.05-0.53-0.05-0.73
			c0-1.96,0-3.92,0-5.88c0-0.97-0.16-1.12-1.1-1.13c-0.73,0-1.46,0-2.28,0c0,0.42,0,0.79,0,1.16c0,0.66-0.36,1.04-0.99,1.04
			c-2.5,0.02-5,0.02-7.51,0c-0.7-0.01-1.01-0.38-1.04-1.08c-0.01-0.35,0-0.7,0-1.12c-0.92,0-1.8-0.06-2.65,0.03
			c-0.26,0.03-0.51,0.43-0.72,0.7c-0.07,0.09-0.01,0.27-0.01,0.42c0,5.85,0,11.71,0,17.56c0,1.02,0.16,1.18,1.2,1.18
			c0.92,0,1.83,0,2.91,0C14.16,32.5,13.5,33.44,12.6,34c-0.69,0.43-1.66,0.16-2.43-0.27c-1.27-0.7-1.76-1.82-1.76-3.23
			c0.01-5.67,0-11.33,0.01-17c0-0.47-0.01-0.95,0.05-1.41c0.17-1.51,1.3-2.67,2.82-2.81C12.24,9.19,13.21,9.26,14.26,9.26z
			 M19.08,8.04c0.5,0.07,0.96,0.04,0.95-0.65c-0.01-0.53-0.41-0.92-0.94-0.92c-0.53,0-0.93,0.38-0.95,0.91
			C18.11,8.08,18.57,8.1,19.08,8.04z"/>
		<path d="M28.37,21.34c1.28,1.29,2.66,2.68,4.01,4.03c-2.86,2.85-5.74,5.73-8.59,8.58c-1.31-1.33-2.68-2.71-4.01-4.05
			C22.58,27.11,25.48,24.23,28.37,21.34z M22.24,30.56c0.21-0.15,0.4-0.25,0.54-0.39c1.41-1.4,2.81-2.8,4.21-4.2
			c0.27-0.27,0.5-0.62,0.1-0.88c-0.17-0.11-0.64,0-0.82,0.18c-1.26,1.21-2.49,2.45-3.72,3.69c-0.23,0.23-0.49,0.45-0.68,0.72
			c-0.09,0.12-0.11,0.36-0.05,0.51C21.87,30.32,22.07,30.41,22.24,30.56z M28.73,22.73c-0.33,0.44-0.61,0.74-0.78,1.09
			c-0.03,0.06,0.34,0.33,0.52,0.5c0.27-0.3,0.57-0.58,0.79-0.91C29.3,23.34,28.99,23.05,28.73,22.73z"/>
		<path d="M25.53,21.23c-0.51,0.49-0.99,0.98-1.5,1.42c-0.17,0.15-0.45,0.25-0.68,0.25c-3.11,0.02-6.22,0.02-9.34,0.01
			c-0.96,0-1.44-0.45-1.43-1.27c0.01-0.79,0.48-1.24,1.39-1.25c3.39-0.01,6.79,0,10.19-0.01C24.73,20.39,25.21,20.58,25.53,21.23z"
			/>
		<path d="M19.14,18.97c-1.72,0-3.44,0-5.16,0c-0.93,0-1.38-0.41-1.39-1.22c-0.01-0.8,0.45-1.25,1.36-1.25
			c3.44-0.01,6.88-0.01,10.33,0c0.85,0,1.33,0.47,1.34,1.22c0.01,0.77-0.51,1.25-1.38,1.25C22.53,18.97,20.83,18.97,19.14,18.97z"/>
		<path d="M22.38,24.34c-0.89,0.88-1.63,1.63-2.39,2.35c-0.13,0.12-0.39,0.15-0.59,0.16c-1.79,0.01-3.58,0.01-5.37,0.01
			c-0.64,0-1.18-0.18-1.4-0.84c-0.28-0.86,0.27-1.66,1.19-1.66C16.6,24.32,19.38,24.34,22.38,24.34z"/>
		<path d="M19.02,30.49c1.42,1.43,2.77,2.77,4.18,4.19c-1.87,0.5-3.71,1-5.71,1.53C18.02,34.24,18.52,32.39,19.02,30.49z
			 M21.49,34.25c-0.69-0.71-1.34-1.38-2.03-2.09c-0.16,0.55-0.32,1.05-0.44,1.57c-0.13,0.55,0.4,1.06,0.96,0.94
			C20.49,34.55,20.98,34.39,21.49,34.25z"/>
		<path d="M34.74,23.24c-1.47-1.46-2.85-2.84-4.3-4.29c0.42-0.39,0.84-0.79,1.28-1.19c0.42-0.38,0.85-0.36,1.25,0.04
			c0.99,0.98,1.97,1.97,2.95,2.95c0.4,0.41,0.39,0.83,0,1.25C35.53,22.41,35.14,22.81,34.74,23.24z M31.72,19.04
			c1.02,1.02,1.99,1.99,2.92,2.92c0.18-0.15,0.41-0.33,0.55-0.44c-0.99-1-1.96-1.97-2.95-2.97C32.09,18.69,31.89,18.88,31.72,19.04z
			"/>
		<path d="M34.05,23.88c-0.26,0.25-0.54,0.51-0.76,0.72c-1.38-1.39-2.75-2.78-4.15-4.2c0.18-0.17,0.48-0.44,0.77-0.7
			C31.25,21.06,32.62,22.44,34.05,23.88z"/>
		<path class="st0" d="M19.08,8.04c-0.51,0.06-0.97,0.04-0.94-0.66c0.02-0.53,0.42-0.91,0.95-0.91c0.53,0,0.94,0.4,0.94,0.92
			C20.04,8.08,19.58,8.11,19.08,8.04z"/>
		<path class="st0" d="M22.24,30.56c-0.17-0.15-0.36-0.24-0.42-0.39c-0.06-0.14-0.04-0.38,0.05-0.51c0.19-0.26,0.45-0.48,0.68-0.72
			c1.23-1.24,2.46-2.48,3.72-3.69c0.18-0.17,0.65-0.29,0.82-0.18c0.4,0.26,0.18,0.6-0.1,0.88c-1.4,1.4-2.8,2.8-4.21,4.2
			C22.63,30.31,22.45,30.41,22.24,30.56z"/>
		<path class="st0" d="M28.73,22.73c0.26,0.33,0.57,0.61,0.53,0.68c-0.21,0.33-0.52,0.61-0.79,0.91c-0.19-0.17-0.56-0.44-0.52-0.5
			C28.12,23.46,28.4,23.17,28.73,22.73z"/>
		<path class="st0" d="M21.49,34.25c-0.51,0.14-1,0.3-1.5,0.41c-0.56,0.13-1.09-0.39-0.96-0.94c0.12-0.52,0.28-1.02,0.44-1.57
			C20.15,32.87,20.8,33.54,21.49,34.25z"/>
		<path class="st0" d="M31.72,19.04c0.17-0.16,0.37-0.34,0.53-0.49c0.99,1,1.96,1.97,2.95,2.97c-0.14,0.11-0.37,0.3-0.55,0.44
			C33.72,21.03,32.75,20.06,31.72,19.04z"/>
	</g>
</g>
</svg>
