<?xml version="1.0" encoding="utf-8"?>
<!-- Generator: Adobe Illustrator 24.1.3, SVG Export Plug-In . SVG Version: 6.00 Build 0)  -->
<svg version="1.1" id="Layer_1" xmlns="http://www.w3.org/2000/svg" xmlns:xlink="http://www.w3.org/1999/xlink" x="0px" y="0px"
	 viewBox="0 0 38.98 41.98" style="enable-background:new 0 0 38.98 41.98;" xml:space="preserve">
<g id="_1aExsb.tif" transform="translate(795.435 -208.183)">
	<g id="Group_4567" transform="translate(-795.435 208.183)">
		<path id="Path_2224" d="M33.35,14.58l1.65,0.3c0.53,0.05,0.92,0.52,0.87,1.05c0,0.05-0.01,0.1-0.03,0.15
			c-0.4,2.27-0.8,4.54-1.21,6.81c-0.5,2.79-1,5.59-1.49,8.38c-0.06,0.54-0.54,0.93-1.07,0.87c-0.05-0.01-0.1-0.01-0.14-0.03
			c-2.73-0.49-5.47-0.97-8.2-1.46l-9.07-1.61c-2.97-0.53-5.94-1.05-8.91-1.59c-0.53-0.09-1.07-0.12-1.61-0.11
			c-0.53,0.05-1-0.35-1.04-0.88c0-0.05,0-0.1,0-0.15c0-4.12,0-8.24,0-12.37c0-1.02,0-2.03,0-3.05c-0.05-0.53,0.35-1,0.88-1.05
			c0.05,0,0.11,0,0.16,0h28.1c0.53-0.07,1.03,0.3,1.1,0.83c0.01,0.09,0.01,0.17,0,0.26c0,1.13,0,2.27,0,3.4L33.35,14.58z
			 M4.92,25.51h26.61V11.65H4.92V25.51z M32,27.34H15.63v0.03l15.86,2.82L32,27.34z M33.36,19.56h0.03l0.54-3.04l-0.57-0.1
			L33.36,19.56z"/>
		<path id="Path_2225" d="M24.16,18.51c0.05,3.26-2.55,5.94-5.8,5.99c-0.03,0-0.06,0-0.09,0c-3.18,0.03-5.81-2.47-5.94-5.65
			c-0.14-3.26,2.4-6.02,5.66-6.16c3.27-0.14,6.03,2.4,6.17,5.67C24.15,18.42,24.15,18.47,24.16,18.51z M17.76,14.9
			c-0.08,0.01-0.14,0.01-0.19,0.02c-0.64,0.07-1.18,0.53-1.36,1.15c-0.2,0.64,0.03,1.33,0.58,1.71c0.28,0.2,0.57,0.38,0.87,0.53
			c0.31,0.17,0.64,0.3,0.95,0.49c0.35,0.18,0.51,0.59,0.37,0.96c-0.13,0.39-0.53,0.61-0.93,0.53c-0.3-0.08-0.59-0.21-0.85-0.37
			c-0.17-0.12-0.33-0.25-0.47-0.39l-0.86,0.82c0.44,0.53,1.05,0.89,1.73,1.03c0.15,0.02,0.19,0.08,0.19,0.22
			c-0.01,0.29,0,0.58,0,0.89h0.86c0-0.3,0.01-0.59,0-0.87c0-0.14,0.03-0.21,0.19-0.25c0.48-0.09,0.9-0.39,1.14-0.82
			c0.56-0.93,0.26-2.15-0.67-2.71c-0.03-0.02-0.05-0.03-0.08-0.05c-0.33-0.19-0.69-0.33-1.03-0.49c-0.18-0.08-0.35-0.17-0.52-0.28
			c-0.2-0.11-0.31-0.33-0.26-0.56c0.07-0.23,0.29-0.39,0.53-0.39c0.23,0,0.46,0.05,0.67,0.14c0.2,0.11,0.39,0.25,0.57,0.4l0.82-0.84
			c-0.25-0.3-0.58-0.54-0.94-0.68c-0.3-0.09-0.48-0.21-0.41-0.55c0-0.02-0.02-0.03-0.03-0.05h-0.82
			C17.78,14.63,17.77,14.76,17.76,14.9L17.76,14.9z"/>
	</g>
</g>
</svg>
