<?xml version="1.0" encoding="utf-8"?>
<!-- Generator: Adobe Illustrator 24.1.3, SVG Export Plug-In . SVG Version: 6.00 Build 0)  -->
<svg version="1.1" id="Layer_1" xmlns="http://www.w3.org/2000/svg" xmlns:xlink="http://www.w3.org/1999/xlink" x="0px" y="0px"
	 viewBox="0 0 38.98 41.98" style="enable-background:new 0 0 38.98 41.98;" xml:space="preserve">
<style type="text/css">
	.st0{fill:#FFFFFF;}
</style>
<g id="_5xp0s1.tif" transform="translate(-805.32 -505.911)">
	<g id="Group_4621" transform="translate(805.32 505.911)">
		<path id="Path_2240" d="M35.69,33.44H6.18l-1.46-1.46V26c0.39-0.27,0.83-0.49,1.29-0.63c1.53-0.18,2.69-1.44,2.76-2.98
			c0.02-1.57-1.15-2.9-2.71-3.08c-0.47-0.14-0.92-0.33-1.34-0.58v-6.15c0.47-0.89,1.42-1.44,2.43-1.39
			c9.2,0.03,18.4,0.01,27.61,0.02c1.68,0,2.39,0.74,2.39,2.43c0,5.73-0.02,11.47,0.02,17.2C37.3,31.94,36.7,32.99,35.69,33.44z
			 M6.75,13.26c0,1.06,0.06,2.04-0.02,3c-0.06,0.79,0.14,1.26,0.97,1.43c0.34,0.1,0.65,0.27,0.92,0.49
			c1.62,1.07,2.45,3.02,2.09,4.93c-0.26,1.84-1.52,3.38-3.28,3.98c-0.26,0.11-0.65,0.34-0.66,0.54c-0.06,1.23-0.03,2.46-0.03,3.72
			h28.31V13.26H6.75z"/>
		<path id="Path_2241" class="st0" d="M4.73,18.72c0.42,0.25,0.87,0.44,1.34,0.58c1.56,0.18,2.73,1.51,2.71,3.08
			c-0.07,1.53-1.24,2.79-2.76,2.98C5.56,25.51,5.12,25.72,4.73,26L4.73,18.72z"/>
		<path id="Path_2242" class="st0" d="M35.69,33.44c1.01-0.45,1.61-1.5,1.48-2.6c-0.04-5.73-0.02-11.47-0.02-17.2
			c0-1.7-0.71-2.43-2.39-2.43c-9.2-0.01-18.4,0.01-27.61-0.02c-1.01-0.04-1.95,0.5-2.43,1.39v-1.62h32.58v22.48L35.69,33.44z"/>
		<path id="Path_2243" class="st0" d="M4.73,31.99l1.46,1.46H4.73V31.99z"/>
		<path id="Path_2244" class="st0" d="M6.75,13.26h28.31v18.08H6.76c0-1.26-0.03-2.49,0.03-3.72c0.01-0.19,0.4-0.43,0.66-0.54
			c1.75-0.61,3.02-2.15,3.28-3.98c0.35-1.91-0.47-3.85-2.1-4.93c-0.27-0.23-0.58-0.39-0.92-0.49c-0.83-0.17-1.03-0.63-0.97-1.43
			C6.81,15.3,6.75,14.33,6.75,13.26z M19.95,29.56c0.35-0.24,0.67-0.51,0.97-0.81c1.6-1.89,3.19-3.8,4.77-5.7
			c1.66-1.99,3.32-3.96,4.97-5.96c0.6-0.72,0.44-1.54-0.3-1.77c-0.51-0.14-1.05,0.09-1.32,0.55c-1.72,2.07-3.45,4.14-5.18,6.2
			c-1.54,1.84-3.09,3.66-4.59,5.54c-0.23,0.37-0.31,0.81-0.22,1.24C19.13,29.11,19.59,29.28,19.95,29.56z M31.06,26.33
			c-0.01-1.68-1.38-3.02-3.06-3.01s-3.02,1.38-3.01,3.06c0.01,1.68,1.38,3.02,3.06,3.01c0,0,0.01,0,0.01,0
			c1.67-0.01,3.01-1.37,3-3.04C31.06,26.35,31.06,26.34,31.06,26.33L31.06,26.33z M24.99,18.29c0.01-1.68-1.34-3.04-3.02-3.05
			c-1.68-0.01-3.04,1.34-3.05,3.02c-0.01,1.67,1.34,3.04,3.01,3.05c1.67,0.01,3.04-1.33,3.05-3.01
			C24.99,18.3,24.99,18.3,24.99,18.29z M12.88,15.29v1.92h1.93v-1.92H12.88z M12.87,21.26h1.94v-1.91h-1.94V21.26z M12.87,25.32
			h1.93v-1.94h-1.93V25.32z M12.87,29.35h1.92v-1.92h-1.92V29.35z"/>
		<path id="Path_2245" d="M19.96,29.56c-0.36-0.28-0.82-0.45-0.88-0.72c-0.09-0.42-0.02-0.87,0.22-1.24
			c1.49-1.87,3.05-3.7,4.59-5.54c1.73-2.07,3.45-4.14,5.18-6.2c0.26-0.46,0.8-0.68,1.32-0.55c0.74,0.23,0.89,1.06,0.3,1.77
			c-1.65,1.99-3.31,3.97-4.97,5.96c-1.59,1.9-3.17,3.81-4.77,5.7C20.63,29.04,20.3,29.31,19.96,29.56z"/>
		<path id="Path_2246" d="M31.06,26.33c0.02,1.68-1.32,3.05-2.99,3.07c-1.68,0.02-3.05-1.32-3.07-2.99
			c-0.02-1.68,1.32-3.05,2.99-3.07c0.01,0,0.01,0,0.02,0C29.67,23.33,31.04,24.66,31.06,26.33z M28.04,27.36
			c0.54,0,0.98-0.43,0.99-0.97c0.01-0.55-0.42-1.01-0.97-1.02c-0.55-0.01-1.01,0.42-1.02,0.97c0,0.02,0,0.04,0,0.06
			c0,0.53,0.44,0.96,0.97,0.95C28.02,27.36,28.03,27.36,28.04,27.36L28.04,27.36z"/>
		<path id="Path_2247" d="M24.99,18.29c-0.01,1.68-1.37,3.03-3.05,3.02s-3.03-1.37-3.02-3.05s1.37-3.03,3.05-3.02
			C23.64,15.25,24.99,16.62,24.99,18.29L24.99,18.29z M21.95,17.27c-0.55,0-1,0.44-1.01,0.99c0,0.01,0,0.03,0,0.04
			c-0.01,0.52,0.4,0.94,0.92,0.95c0.02,0,0.05,0,0.07,0c0.51,0.04,0.95-0.33,0.99-0.84c0-0.03,0-0.07,0-0.1
			c0.03-0.55-0.4-1.01-0.94-1.04C21.98,17.28,21.96,17.28,21.95,17.27L21.95,17.27z"/>
		<path id="Path_2248" d="M12.88,15.29h1.93v1.92h-1.93V15.29z"/>
		<path id="Path_2249" d="M12.87,21.26v-1.91h1.94v1.91H12.87z"/>
		<path id="Path_2250" d="M12.87,25.32v-1.94h1.93v1.94H12.87z"/>
		<path id="Path_2251" d="M12.87,29.35v-1.92h1.92v1.92L12.87,29.35z"/>
		<path id="Path_2253" class="st0" d="M21.95,17.27c0.55,0,0.99,0.45,0.99,1c0,0.02,0,0.03,0,0.05c0.01,0.51-0.39,0.93-0.89,0.94
			c-0.03,0-0.07,0-0.1,0c-0.52,0.03-0.96-0.36-0.99-0.88c0-0.02,0-0.05,0-0.07c-0.02-0.55,0.41-1.01,0.96-1.04
			C21.92,17.27,21.94,17.27,21.95,17.27z"/>
	</g>
</g>
</svg>
