<?xml version="1.0" encoding="utf-8"?>
<!-- Generator: Adobe Illustrator 24.2.1, SVG Export Plug-In . SVG Version: 6.00 Build 0)  -->
<svg version="1.1" id="Layer_1" xmlns="http://www.w3.org/2000/svg" xmlns:xlink="http://www.w3.org/1999/xlink" x="0px" y="0px"
	 viewBox="0 0 22.9 22.4" style="enable-background:new 0 0 22.9 22.4;" xml:space="preserve">
<style type="text/css">
	.st0{fill:#FFFFFF;}
</style>
<g>
	<path class="st0" d="M11.4,16c1.2,0,2.4,0,3.6,0c0.8,0,1.2-0.5,1.3-1.2c0-0.8,0-1.7,0-2.5c0-0.4-0.2-0.6-0.5-0.6
		c-0.3,0-0.5,0.2-0.5,0.6c0,0.8,0,1.5,0,2.3c0,0.4-0.1,0.4-0.4,0.4c-2.3,0-4.5,0-6.8,0c-0.3,0-0.4-0.1-0.4-0.4c0-2.3,0-4.5,0-6.8
		c0-0.3,0.1-0.4,0.4-0.4c0.8,0,1.6,0,2.3,0c0.4,0,0.6-0.2,0.6-0.5c0-0.3-0.2-0.5-0.6-0.5c-0.8,0-1.6,0-2.4,0c-0.8,0-1.3,0.4-1.3,1.3
		c0,1.2,0,2.4,0,3.6c0,1.2,0,2.3,0,3.5c0,0.7,0.5,1.2,1.2,1.2C9,16,10.2,16,11.4,16z M15.3,8.1c0,0.4,0,0.8,0,1.1
		c0,0.3,0.2,0.5,0.5,0.5c0.3,0,0.5-0.2,0.5-0.5c0-0.7,0-1.5,0-2.2c0-0.4-0.2-0.6-0.5-0.6c-0.7,0-1.5,0-2.2,0c-0.4,0-0.6,0.2-0.6,0.5
		c0,0.3,0.2,0.5,0.6,0.5c0.3,0,0.7,0,1.1,0c-0.1,0.1-0.2,0.2-0.3,0.3c-1,1-2.1,2.1-3.1,3.1c-0.3,0.3-0.3,0.6-0.1,0.9
		c0.2,0.2,0.5,0.2,0.8-0.1c0.7-0.6,1.3-1.3,2-1.9C14.3,9.1,14.8,8.7,15.3,8.1z"/>
	<path d="M11.4,16c-1.2,0-2.4,0-3.6,0c-0.7,0-1.2-0.5-1.2-1.2c0-1.2,0-2.3,0-3.5c0-1.2,0-2.4,0-3.6c0-0.9,0.4-1.3,1.3-1.3
		c0.8,0,1.6,0,2.4,0c0.4,0,0.6,0.2,0.6,0.5c0,0.3-0.2,0.5-0.6,0.5c-0.8,0-1.6,0-2.3,0c-0.3,0-0.4,0.1-0.4,0.4c0,2.3,0,4.5,0,6.8
		C7.6,15,7.7,15,8,15c2.3,0,4.5,0,6.8,0c0.4,0,0.4-0.1,0.4-0.4c0-0.8,0-1.5,0-2.3c0-0.4,0.2-0.6,0.5-0.6c0.3,0,0.5,0.2,0.5,0.6
		c0,0.8,0,1.7,0,2.5c0,0.8-0.5,1.2-1.3,1.2C13.8,16,12.6,16,11.4,16z"/>
	<path d="M15.3,8.1c-0.5,0.5-1,1-1.5,1.4c-0.6,0.6-1.3,1.3-2,1.9c-0.3,0.3-0.6,0.3-0.8,0.1c-0.2-0.2-0.2-0.5,0.1-0.9
		c1-1,2.1-2.1,3.1-3.1c0.1-0.1,0.1-0.2,0.3-0.3c-0.4,0-0.7,0-1.1,0c-0.4,0-0.6-0.2-0.6-0.5c0-0.3,0.2-0.5,0.6-0.5c0.7,0,1.5,0,2.2,0
		c0.4,0,0.5,0.2,0.5,0.6c0,0.7,0,1.5,0,2.2c0,0.3-0.2,0.6-0.5,0.5c-0.3,0-0.5-0.2-0.5-0.5C15.3,8.9,15.3,8.6,15.3,8.1z"/>
</g>
</svg>
