<?xml version="1.0" encoding="utf-8"?>
<!-- Generator: Adobe Illustrator 24.2.1, SVG Export Plug-In . SVG Version: 6.00 Build 0)  -->
<svg version="1.1" id="Layer_1" xmlns="http://www.w3.org/2000/svg" xmlns:xlink="http://www.w3.org/1999/xlink" x="0px" y="0px"
	 viewBox="0 0 22.9 22.4" style="enable-background:new 0 0 22.9 22.4;" xml:space="preserve">
<style type="text/css">
	.st0{fill:#10A363;}
</style>
<g id="u1ADqQ.tif" transform="translate(-69.003 -1201.276)">
	<g id="Group_5040" transform="translate(69.003 1201.276)">
		<path id="Path_2274" class="st0" d="M9.5,16l7.1-7.1l-2.8-2.8l-7.1,7.2L9.5,16z"/>
		<path id="Path_2275" class="st0" d="M16.8,3.7c0.4,0.1,0.7,0.3,1,0.6c0.3,0.3,0.7,0.7,1,1c0.4,0.4,0.4,1,0.1,1.4c0,0,0,0-0.1,0.1
			c-0.4,0.4-0.9,0.9-1.3,1.3c0,0,0,0-0.1,0l-2.8-2.8c0.1-0.1,0.2-0.1,0.2-0.2c0.3-0.2,0.5-0.5,0.8-0.8c0.2-0.3,0.6-0.5,1-0.6
			L16.8,3.7z"/>
		<path id="Path_2276" class="st0" d="M5.1,17.2c0.1-0.4,0.2-0.7,0.3-1.1c0.2-0.7,0.3-1.4,0.4-2l2.8,2.8l-1,0.2l-2,0.5
			c-0.3,0.1-0.4,0-0.5-0.2L5.1,17.2z"/>
		<path id="Path_2277" class="st0" d="M9.5,16l-2.8-2.8l7.1-7.1l2.8,2.8L9.5,16z"/>
	</g>
</g>
</svg>
