<svg id="Layer_1" data-name="Layer 1" xmlns="http://www.w3.org/2000/svg" viewBox="0 0 121.26 121.26"><defs><style>.cls-1{fill:#3c5799;}.cls-2{fill:#fff;}</style></defs><circle class="cls-1" cx="60.63" cy="60.63" r="60.63"/><g id="ilMzao.tif"><path class="cls-2" d="M186.85,158.58H174.59V129.07h-4.32c-1.51,0-1.51,0-1.51-1.52v-8.93h5.82v-.84c0-2.51-.07-5,.14-7.52.45-5.41,3.66-10.11,10.18-10.63,3.64-.29,7.33-.11,11-.14,0,0,0,0,.1.06v10.08h-6.37c-1.64,0-2.62.77-2.71,2.39-.12,2.15,0,4.32,0,6.55h9.3c-.06.66-.1,1.25-.16,1.85-.27,2.71-.56,5.43-.82,8.14,0,.48-.29.52-.68.52h-7.68Z" transform="translate(-121.84 -68.39)"/></g></svg>