<svg id="Layer_1" data-name="Layer 1" xmlns="http://www.w3.org/2000/svg" viewBox="0 0 121.26 121.26"><defs><style>.cls-1{fill:#3c5799;}.cls-2{fill:#fff;}.cls-3{fill:#30a9e1;}.cls-4{fill:#147eb1;}.cls-5{fill:#3daee1;}</style></defs><circle class="cls-1" cx="60.63" cy="60.63" r="60.63"/><g id="ilMzao.tif"><path class="cls-2" d="M186.85,158.58H174.59V129.07h-4.32c-1.51,0-1.51,0-1.51-1.52v-8.93h5.82v-.84c0-2.51-.07-5,.14-7.52.45-5.41,3.66-10.11,10.18-10.63,3.64-.29,7.33-.11,11-.14,0,0,0,0,.1.06v10.08h-6.37c-1.64,0-2.62.77-2.71,2.39-.12,2.15,0,4.32,0,6.55h9.3c-.06.66-.1,1.25-.16,1.85-.27,2.71-.56,5.43-.82,8.14,0,.48-.29.52-.68.52h-7.68Z" transform="translate(-121.84 -68.39)"/></g><circle class="cls-3" cx="60.63" cy="60.63" r="60.63"/><g id="aOzvuk"><path class="cls-2" d="M173.49,142.49c-5.06-.63-8.42-3-10.28-7.76h4.46c-5.74-2.86-8.6-6.62-8.25-11l4.29,1.24.22-.25c-4.67-4-5.53-8.86-3.14-14.74,6.19,7,13.65,11.06,22.79,11.66.07-1.54,0-3,.21-4.38A11,11,0,0,1,194,108a11.42,11.42,0,0,1,8,2.68,2.53,2.53,0,0,0,1.94.45,37.84,37.84,0,0,0,4.06-1.46c.54-.21,1.07-.46,1.79-.78a12.94,12.94,0,0,1-4.21,5.69l.15.28,5.21-1.4.24.24c-1.46,1.49-2.89,3-4.41,4.44a2.22,2.22,0,0,0-.88,1.7,33.56,33.56,0,0,1-6.12,19.18,29.67,29.67,0,0,1-21.24,12.68A31.82,31.82,0,0,1,159,148.19a6.75,6.75,0,0,1-1.35-.94A23.66,23.66,0,0,0,173.49,142.49Z" transform="translate(-121.84 -68.39)"/></g><circle class="cls-4" cx="60.63" cy="60.63" r="60.63"/><path class="cls-2" d="M187.28,155.44H175.76V119.09h11v5.4a13.72,13.72,0,0,1,7-4.88,17.37,17.37,0,0,1,11.34.61c4.11,1.67,5.85,5.14,6.5,9.24a44,44,0,0,1,.52,6.48c.07,6,0,12,0,18v1.52H200.56c0-.44-.06-.85-.06-1.27-.06-6.41,0-12.84-.21-19.25-.22-6.18-4.7-7-8.73-5.82-2.63.74-4.19,3.41-4.24,7.21-.07,5.8,0,11.59,0,17.39Z" transform="translate(-121.84 -68.39)"/><path class="cls-2" d="M167.33,155.44H155.41V119.13h11.92Z" transform="translate(-121.84 -68.39)"/><path class="cls-2" d="M161.32,114.34a6.31,6.31,0,0,1-6.41-6.49,6.47,6.47,0,1,1,12.93.09A6.34,6.34,0,0,1,161.32,114.34Z" transform="translate(-121.84 -68.39)"/><circle class="cls-5" cx="60.63" cy="60.63" r="60.63"/><g id="plRXNA.tif"><path class="cls-2" d="M156.08,127a5.31,5.31,0,0,1,2.48-1.74l45-17.36a2.33,2.33,0,0,1,3.26,2.72c-.26,1.75-.68,3.49-1.05,5.22q-2.86,13.53-5.74,27c-.35,1.65-.69,3.3-1.06,4.95-.57,2.54-2.4,3.21-4.52,1.65l-10.56-7.8-.88-.64c-.33.37-.64.76-1,1.11q-2.35,2.31-4.73,4.6a2.71,2.71,0,0,1-2.11.94c.07-1.3.14-2.59.22-3.87.16-2.42.34-4.83.48-7.24a1.61,1.61,0,0,1,.56-1.25q10.4-9.33,20.75-18.68a1.45,1.45,0,0,0,.34-.31,7.92,7.92,0,0,0,.37-.71c-.3-.07-.63-.25-.89-.18a4.27,4.27,0,0,0-1.25.57L170,132.34a1.09,1.09,0,0,1-1,.19q-5.55-1.78-11.1-3.53a3,3,0,0,1-1.76-1.19Z" transform="translate(-121.84 -68.39)"/></g></svg>