<?xml version="1.0" encoding="utf-8"?>
<!-- Generator: Adobe Illustrator 24.2.1, SVG Export Plug-In . SVG Version: 6.00 Build 0)  -->
<svg version="1.1" id="Layer_1" xmlns="http://www.w3.org/2000/svg" xmlns:xlink="http://www.w3.org/1999/xlink" x="0px" y="0px"
	 viewBox="0 0 60 58.7" style="enable-background:new 0 0 60 58.7;" xml:space="preserve">
<style type="text/css">
	.st0{opacity:0.601;}
	.st1{fill:#595959;}
</style>
<g id="_524iKa.tif" transform="translate(-806.224 2241.016)" class="st0">
	<g id="Group_4689" transform="translate(806.224 -2241.016)">
		<path id="Path_2363" class="st1" d="M21,16.7c0.3,0.6,0.6,1.1,0.8,1.5c0.1,0.1,0.2,0.1,0.3,0.1c1.4,0,2.7,0,4.1,0
			c1.5,0,2.9,0,4.4,0c3.2,0,6.3,0,9.5,0c0.1,0,0.2,0,0.4,0c-0.2-0.4-0.3-0.8-0.5-1.2c-0.2-0.5-0.4-0.9-0.6-1.4
			c-0.1-0.2-0.3-0.4-0.5-0.4c-1.3,0-2.6,0-3.9,0c-0.6,0.1-1.2-0.4-1.2-1c0,0,0-0.1,0-0.1c0-0.6,0.5-1.1,1.1-1.2c0,0,0.1,0,0.1,0
			c1.6,0,3.2,0,4.8,0c0.6-0.1,1.1,0.3,1.2,0.8c1.4,3.5,2.8,7,4.1,10.4c0.2,0.4,0.3,0.5,0.7,0.4c5.6-1.4,11.3,2.1,12.6,7.7
			c0,0.1,0,0.2,0.1,0.3c1.1,4.1-0.3,8.5-3.7,11.2c-3.9,3.3-9.6,3.2-13.4-0.3C37,39.6,36.6,32.6,40.7,28c0.3-0.3,0.6-0.6,0.9-0.9
			c0.5-0.4,1.1-0.8,1.6-1.2c0.2-0.1,0.2-0.2,0.2-0.4c-0.5-1.2-1-2.5-1.5-3.7c0-0.1-0.1-0.1-0.1-0.2c-0.2,0.2-0.4,0.5-0.5,0.7
			c-3.5,4.5-6.9,9.1-10.4,13.6c-0.3,0.4-0.4,0.8-0.4,1.3c0,1.2,0,2.5,0,3.7c0,0.6-0.2,0.7-0.7,0.7s-1.1,0-1.6,0
			c-0.4,0-0.7-0.2-0.7-0.6s0.3-0.5,0.7-0.6c0.3,0,0.6,0,1,0c0.2,0,0.3-0.1,0.3-0.3c0-1.1,0-2.3,0-3.4c0-0.2-0.1-0.3-0.3-0.3
			c-2,0-4,0-6,0c-0.3,0-0.3,0.1-0.4,0.3c-0.5,4.5-3.9,8.2-8.3,9.2c-3,0.7-6.3,0-8.6-2.1c-3.1-2.4-4.6-6.3-4-10.2
			c0.5-4.3,3.5-7.8,7.6-9c2.2-0.7,4.6-0.5,6.8,0.4c0.3,0.1,0.4,0.1,0.6-0.2c1-1.9,2.1-3.7,3.1-5.5c0.1-0.1,0.1-0.3,0-0.5
			c-0.3-0.7-0.7-1.3-1-1.9c-0.1-0.1-0.2-0.2-0.4-0.2c-0.8,0-1.1-0.3-1.1-1.1c0-0.1,0-0.2,0-0.4c0-0.6,0.3-0.9,0.9-0.9
			c1.7,0,3.4,0,5,0c0.7,0,1.4,0,2,0c0.4,0,0.8,0.3,0.8,0.8c0,0,0,0,0,0c0,0.4-0.3,0.8-0.8,0.8c0,0,0,0,0,0l-0.7,0.1
			c-1,0.1-2.1,0.2-3.1,0.4C21.3,16.7,21.2,16.7,21,16.7z M44.3,28c-0.7,0.4-1.4,0.9-2,1.5c-3,3.3-3.1,8.4-0.1,11.8
			c2.8,3.2,7.6,3.7,11,1.2c2.8-2,4.2-5.5,3.3-8.9c-0.8-4.4-5-7.4-9.5-6.7c-0.3,0-0.5,0.1-0.8,0.2c0.1,0.2,0.1,0.3,0.2,0.4
			c1,2.5,2,4.9,2.9,7.4c0.3,0.6,0.1,1.3-0.5,1.5c0,0-0.1,0-0.1,0c-0.6,0.2-1.2-0.1-1.4-0.6c0-0.1,0-0.1,0-0.2c-0.7-1.7-1.3-3.3-2-5
			C45,29.8,44.6,28.9,44.3,28L44.3,28z M15.3,27.5c-0.2-0.1-0.3-0.1-0.4-0.2c-2.3-0.9-4.9-0.7-7,0.6c-3.3,2-4.9,5.8-4,9.6
			c0.8,3.6,3.8,6.3,7.5,6.6c3.7,0.3,7.2-2,8.5-5.5c0.2-0.6,0.3-1.3,0.5-1.9c-0.3,0-0.4,0-0.6,0c-2.5,0-5.1,0-7.6,0
			c-0.6,0.1-1.2-0.4-1.3-1c0-0.3,0-0.6,0.2-0.8c1.1-1.9,2.1-3.8,3.2-5.6C14.7,28.6,15,28,15.3,27.5L15.3,27.5z M29.2,31.9L29.2,31.9
			c0.1-0.7,0.1-1.4,0.1-2.1c0-0.4,0.2-0.6,0.5-0.6c0.6,0,1.3,0,1.9,0c0.3,0,0.5,0.2,0.5,0.5c0,0,0,0,0,0.1c0,0.3-0.2,0.5-0.5,0.5
			c0,0,0,0,0,0c-0.2,0-0.4,0-0.6,0c-0.8,0-0.8,0-0.8,0.8c0,0.6,0,1.1,0,1.7l0.1,0l9.2-12.1H23.2L29.2,31.9z M21.2,21.7
			c-0.1,0.1-0.1,0.2-0.2,0.2c-0.8,1.5-1.7,3-2.5,4.5c-0.1,0.2,0,0.3,0.1,0.5c2.2,1.8,3.6,4.3,3.9,7.1c0,0.3,0.1,0.4,0.4,0.4
			c1.2,0,2.4,0,3.5,0c0.5,0,0.9,0,1.5,0L21.2,21.7z M20.4,34.3C20.1,32,19,30,17.2,28.6L14,34.3H20.4z"/>
	</g>
</g>
</svg>
