<?xml version="1.0" encoding="utf-8"?>
<!-- Generator: Adobe Illustrator 24.2.1, SVG Export Plug-In . SVG Version: 6.00 Build 0)  -->
<svg version="1.1" id="Layer_1" xmlns="http://www.w3.org/2000/svg" xmlns:xlink="http://www.w3.org/1999/xlink" x="0px" y="0px"
	 viewBox="0 0 60 58.7" style="enable-background:new 0 0 60 58.7;" xml:space="preserve">
<style type="text/css">
	.st0{opacity:0.601;}
	.st1{fill:#595959;}
</style>
<g id="_6vGF1w.tif" transform="translate(-1375.31 258.203)" class="st0">
	<g id="Group_4678" transform="translate(1375.31 -258.203)">
		<path id="Path_2343" class="st1" d="M40.9,18.5c0,2.6,0,5.3,0,7.9c0,0.6,0.3,1.2,0.8,1.5c2.8,1.9,5.6,3.7,8.4,5.6
			c0.5,0.3,0.8,0.9,0.8,1.4c0,1.4,0,2.9,0,4.3c0.1,0.7-0.3,1.3-0.9,1.6c-5.5,3.1-11.1,6.1-16.6,9.2c-1,0.6-2,1.1-3,1.7
			c-0.5,0.4-1.3,0.3-1.7-0.1c-3.5-2.7-7-5.4-10.5-8.1c-0.7-0.5-1.4-1-2-1.6c-0.3-0.3-0.5-0.6-0.5-1c0-2,0-4.1,0-6.1
			c0-0.4,0.2-0.7,0.4-0.9c0.2-0.2,0.3-0.4,0.3-0.7c0-5.5,0-11,0-16.5c0-1.1,0-2.2,0-3.3c-0.1-0.6,0.3-1.2,0.9-1.3
			c5.5-1.7,11-3.4,16.5-5c1-0.3,1.7,0.3,1.6,1.2c-0.1,0.5-0.5,0.9-1,1c-2.2,0.7-4.4,1.3-6.6,2c-2.1,0.6-4.1,1.2-6.2,1.9
			c-0.2,0.1-0.3,0.2-0.4,0.3c0.1,0.1,0.3,0.2,0.4,0.3c0.9,0.5,1.9,0.6,2.9,0.2c4.9-1.5,9.9-3,14.8-4.5c1.1-0.3,1.7,0.2,1.7,1.3
			C40.9,13.2,40.9,15.8,40.9,18.5z M38.7,18.8c0-1.3,0-2.5,0-3.8c0-0.8,0-1.5,0-2.3c0-0.7-0.2-0.9-0.9-0.7c-0.1,0-0.2,0-0.3,0.1
			c-4.1,1.2-8.2,2.5-12.2,3.7c-1.2,0.4-1.2,0.5-1.2,1.7c0,3.8,0,7.7,0,11.5c0,0.9,0.2,1,1,0.7c3.5-1.6,7.1-3.1,10.6-4.7
			c0.6-0.4,1.5-0.3,2,0.2c0.1,0.1,0.2,0.1,0.3,0.2c0.2,0.1,0.5,0.2,0.7,0.2c0.1-0.2,0.2-0.5,0.2-0.7C38.7,22.8,38.7,20.8,38.7,18.8z
			 M36.3,27.2c-0.3,0.1-0.6,0.2-0.8,0.3c-1.6,0.7-3.2,1.4-4.8,2.1c-3.7,1.6-7.3,3.2-11,4.9C19,34.7,19,35,19.5,35.4
			c3.3,2.5,6.6,5.1,10,7.6c0.5,0.4,1.1,0.4,1.6,0.1c5.2-2.7,10.3-5.4,15.5-8.1c0.8-0.4,0.8-0.6,0.1-1.1c-3.2-2.1-6.3-4.2-9.5-6.3
			C36.9,27.4,36.6,27.3,36.3,27.2L36.3,27.2z M17.7,38.8c-0.2,0.9,0.2,1.9,1,2.4c3.4,2.6,6.7,5.2,10.1,7.7c0.5,0.4,1.1,0.5,1.7,0.1
			c5.6-3.2,11.3-6.3,16.9-9.4c1-0.3,1.5-1.4,1.2-2.4c-0.1-0.5-0.3-0.6-0.7-0.4c-0.1,0.1-0.3,0.1-0.4,0.2c-5.5,2.9-11.1,5.8-16.6,8.7
			c-0.5,0.3-1.2,0.3-1.7-0.1c-2.6-2-5.2-4-7.8-6c-1-0.8-2-1.5-3-2.3c-0.5-0.3-0.7-0.2-0.7,0.3C17.7,38,17.7,38.3,17.7,38.8
			L17.7,38.8z M21.7,19.6l-3.2-1.2c0,0,0,0.1,0,0.1c0,2,0,3.9,0,5.9c0,0.1,0,0.2,0.1,0.4c0.9,0.8,2,1.2,3.1,1.3L21.7,19.6z
			 M18.6,25.8c0,1.9,0,3.8,0,5.8c0,0.5,0.3,0.6,0.7,0.5c0.6-0.2,1.2-0.4,1.7-0.7c0.3-0.2,0.7-0.5,0.7-0.9c0.1-1.2,0-2.4,0-3.5
			L18.6,25.8z M21.8,18.7c0-0.6,0-1.3,0-1.9c-0.1-0.3-0.2-0.7-0.5-0.9c-0.6-0.4-1.3-0.7-2-0.9c-0.4-0.1-0.6,0-0.6,0.5
			c0,0.5,0,1.1,0,1.6c0,0.1,0.1,0.2,0.1,0.3C19.6,18.1,20.6,18.6,21.8,18.7L21.8,18.7z"/>
		<path id="Path_2344" class="st1" d="M44.7,33.7c-0.2,0.2-0.3,0.4-0.5,0.6c-1.2,0.7-2.4,1.4-3.7,2.1c-0.2,0.1-0.5,0-0.7-0.1
			c-1.7-1.1-3.4-2.3-5.1-3.5c-1-0.7-1.9-1.3-2.9-2c-0.2-0.1-0.4-0.3-0.3-0.5s0.3-0.3,0.4-0.4c1.3-0.6,2.7-1.1,4.1-1.7
			c0.2-0.1,0.5,0,0.7,0.1c2.5,1.7,5,3.4,7.5,5.1C44.4,33.6,44.5,33.6,44.7,33.7z M43.5,33.9c-2.4-1.6-4.6-3.2-6.9-4.8
			c-0.2-0.1-0.4-0.1-0.6,0c-0.9,0.3-1.8,0.7-2.7,1.1c-0.2,0.1-0.4,0.2-0.6,0.3c2.5,1.7,5,3.4,7.4,5.1c0.1,0.1,0.3,0.1,0.4,0.1
			C41.4,35,42.4,34.5,43.5,33.9L43.5,33.9z"/>
	</g>
</g>
</svg>
