<?xml version="1.0" encoding="utf-8"?>
<!-- Generator: Adobe Illustrator 24.2.1, SVG Export Plug-In . SVG Version: 6.00 Build 0)  -->
<svg version="1.1" id="Layer_1" xmlns="http://www.w3.org/2000/svg" xmlns:xlink="http://www.w3.org/1999/xlink" x="0px" y="0px"
	 viewBox="0 0 60 58.7" style="enable-background:new 0 0 60 58.7;" xml:space="preserve">
<style type="text/css">
	.st0{opacity:0.601;}
	.st1{fill:#595959;}
</style>
<g id="HtbhFc.tif" transform="translate(501.852 -557.792)" class="st0">
	<g id="Group_4700" transform="translate(-501.852 557.792)">
		<path id="Path_2383" class="st1" d="M26.2,30.3l0.6-0.6c-0.4-0.4-0.8-0.7-1.2-1.1c-1.5-1.5-3-3-4.5-4.6c-0.2-0.2-0.5-0.3-0.8-0.3
			c-4.6,0.7-8.9-2.5-9.5-7.1c0,0,0,0,0,0c-0.2-1.5,0-3.1,0.6-4.5c0.4-0.9,1-1,1.7-0.3c1.6,1.6,3.2,3.2,4.8,4.8
			c0.6,0.7,1.6,0.7,2.3,0.1c0.2-0.2,0.4-0.5,0.5-0.8c0.2-0.6,0-1.3-0.5-1.7c-1.1-1.1-2.3-2.3-3.4-3.4c-0.5-0.5-1-1-1.5-1.5
			c-0.4-0.3-0.5-0.8-0.2-1.2c0.1-0.2,0.3-0.3,0.5-0.4c4.3-1.9,9.2,0.1,11.1,4.3c0.3,0.8,0.5,1.5,0.6,2.4c0.1,0.7,0.1,1.5,0,2.2
			c0,0.3,0.1,0.6,0.3,0.9c1.8,1.7,3.5,3.5,5.3,5.3c0.1,0.1,0.2,0.2,0.4,0.3c0.1-0.1,0.3-0.2,0.4-0.4c2.1-2.1,4.2-4.2,6.3-6.3
			c0.4-0.3,0.7-0.8,0.8-1.3c0.3-1.3,1-2.5,2-3.4c0.8-0.7,1.4-1.4,2.2-2.1c0.3-0.4,0.9-0.5,1.3-0.2c0.1,0.1,0.1,0.1,0.2,0.2
			c1.1,1.1,2.2,2.2,3.3,3.3c0.4,0.3,0.5,0.9,0.2,1.3c-0.1,0.1-0.1,0.2-0.2,0.2c-1.1,1.1-2.2,2.2-3.3,3.3c-0.3,0.2-0.6,0.4-0.9,0.5
			c-1.3,0.3-2.6,1.1-3.5,2.1c-1.7,1.9-3.6,3.6-5.4,5.4c-0.1,0.1-0.3,0.2-0.4,0.3c0.1,0.2,0.2,0.3,0.3,0.4c1.8,1.8,3.6,3.6,5.4,5.4
			c0.2,0.2,0.5,0.3,0.8,0.3c4.6-0.7,8.8,2.5,9.5,7c0.1,0.8,0.1,1.5,0,2.3c-0.1,0.8-0.3,1.6-0.6,2.4c-0.3,0.8-1,0.9-1.6,0.3
			c-1.6-1.6-3.3-3.3-4.9-4.9c-0.6-0.7-1.6-0.7-2.3-0.1c-0.2,0.2-0.4,0.5-0.5,0.7c-0.2,0.6,0,1.4,0.5,1.8l4.4,4.4
			c0.2,0.2,0.3,0.3,0.5,0.5c0.4,0.3,0.4,0.8,0.1,1.2c-0.1,0.1-0.3,0.2-0.4,0.3c-1.2,0.5-2.5,0.8-3.8,0.7c-3.9-0.1-7.3-2.9-8-6.8
			c-0.1-1-0.1-1.9-0.1-2.9c0-0.2,0-0.4-0.1-0.6c-1.9-1.9-3.8-3.8-5.7-5.7c-0.1,0-0.1-0.1-0.2-0.1l-0.5,0.6l1.8,1.8
			c0.6,0.6,0.6,1,0,1.7c-0.5,0.5-1,1-1.5,1.5c-0.3,0.4-0.8,0.5-1.2,0.2c0,0-0.1-0.1-0.1-0.1c-0.6-0.4-1-0.4-1.4,0
			c-0.4,0.4-0.4,0.9,0,1.4c0.3,0.3,0.4,0.9,0,1.2c0,0-0.1,0.1-0.1,0.1c-2.4,2.4-4.8,4.8-7.2,7.2c-1.9,1.7-4.6,2-6.8,0.9
			c-2.1-1.2-3.3-3.5-2.9-5.9c0.2-1.3,0.8-2.6,1.7-3.5c2.3-2.3,4.5-4.5,6.8-6.8c0.6-0.6,0.9-0.6,1.6-0.1c0.4,0.3,0.9,0.3,1.2-0.1
			c0,0,0,0,0,0c0.4-0.3,0.5-0.9,0.2-1.3c0,0,0,0,0-0.1c-0.5-0.7-0.5-1,0.1-1.6c0.4-0.4,0.9-0.9,1.3-1.3c0.7-0.7,1.1-0.6,1.7,0
			C24.9,29.1,25.5,29.7,26.2,30.3z M50.3,42.1l0.2-0.1c0.1-0.6,0.1-1.3,0.2-1.9c-0.1-3.5-3.8-7.3-8.2-6.2c-0.5,0.2-1,0-1.3-0.3
			c-1.9-1.9-3.8-3.8-5.7-5.7c-0.1-0.1-0.3-0.2-0.3-0.3L31,31.7c0.2,0.1,0.3,0.2,0.4,0.3c1.9,1.9,3.8,3.8,5.7,5.7
			c0.4,0.3,0.5,0.8,0.4,1.3c-0.1,0.5-0.2,1-0.2,1.5c0,2.8,1.8,5.3,4.4,6.3c1.3,0.5,2.7,0.6,4,0.2c-0.2-0.2-0.3-0.3-0.4-0.4
			c-1.2-1.2-2.4-2.4-3.6-3.6c-1.3-1.3-1.3-3.5-0.1-4.8c1.4-1.3,3.5-1.2,4.8,0.1c1.1,1.1,2.2,2.2,3.3,3.3
			C49.9,41.6,50.1,41.8,50.3,42.1L50.3,42.1z M27.8,28.4l4.1-4.1c-0.1-0.1-0.2-0.2-0.3-0.3c-1.9-1.9-3.8-3.8-5.7-5.7
			c-0.4-0.3-0.5-0.9-0.4-1.4c0.1-0.5,0.2-1.1,0.2-1.6c-0.1-3.6-3-6.4-6.6-6.5c-0.6,0-1.1,0.1-1.7,0.2l-0.1,0.2
			c0.2,0.1,0.4,0.2,0.5,0.4c1.2,1.2,2.3,2.3,3.5,3.5c0.8,0.8,1.2,2,0.9,3.2c-0.2,1.2-1,2.1-2.1,2.4c-1.2,0.4-2.6,0.1-3.5-0.8
			c-1.2-1.2-2.4-2.4-3.6-3.6c-0.1-0.1-0.3-0.3-0.5-0.5c-0.1,0.6-0.2,1.1-0.2,1.5c-0.1,3.7,2.9,6.8,6.6,6.8c0.5,0,1.1,0,1.6-0.2
			c0.4-0.1,0.9,0,1.2,0.3c1.7,1.7,3.4,3.4,5.1,5.1C27.2,27.7,27.5,28.1,27.8,28.4L27.8,28.4z M23.4,30.2c-0.6,0.5-0.6,0.5-0.4,1.2
			c0.4,1.4-0.4,2.8-1.8,3.1c-0.2,0-0.3,0.1-0.5,0.1c-0.4,0-0.8,0-1.3-0.1c-0.2,0-0.4,0-0.5,0.1c-2.2,2.2-4.3,4.3-6.5,6.5
			c-1,0.9-1.4,2.3-1.1,3.6c0.3,1.6,1.5,2.9,3,3.3c1.5,0.4,3.1,0,4.1-1.2c2-2,4.1-4.1,6.1-6.1c0.3-0.2,0.4-0.6,0.3-1
			c-0.4-1.4,0.3-2.8,1.7-3.2c0.5-0.2,1-0.2,1.5,0c0.4,0.2,1,0,1.2-0.5L23.4,30.2z M28,32.2c0.1-0.2,0.2-0.4,0.3-0.5
			c4.5-4.5,9-9.1,13.6-13.6c0.4-0.5,1-0.8,1.6-1c1.2-0.2,2.3-0.9,3-1.8c0.4-0.5,1-1,1.5-1.5l-2.4-2.3c-0.4,0.5-0.9,1-1.4,1.4
			c-1,0.8-1.7,1.9-1.9,3.1c-0.1,0.6-0.5,1.1-0.9,1.5c-4.5,4.5-9.1,9.1-13.6,13.6c-0.1,0.1-0.3,0.3-0.4,0.4L28,32.2z"/>
		<path id="Path_2384" class="st1" d="M15.5,44.9c-0.3-0.2-0.6-0.3-0.7-0.6c-0.1-0.3-0.1-0.6,0-0.9c0-0.1,0.2-0.2,0.3-0.3
			c1.9-1.9,3.9-3.9,5.8-5.8c0.1-0.1,0.2-0.2,0.2-0.2c0.3-0.3,0.8-0.3,1.2,0.1c0.3,0.3,0.3,0.8,0.1,1.2c-0.1,0.1-0.2,0.2-0.2,0.2
			c-1.9,1.9-3.9,3.9-5.8,5.8C16.1,44.6,15.8,44.8,15.5,44.9z"/>
	</g>
</g>
</svg>
