<?xml version="1.0" encoding="utf-8"?>
<!-- Generator: Adobe Illustrator 24.2.1, SVG Export Plug-In . SVG Version: 6.00 Build 0)  -->
<svg version="1.1" id="Layer_1" xmlns="http://www.w3.org/2000/svg" xmlns:xlink="http://www.w3.org/1999/xlink" x="0px" y="0px"
	 viewBox="0 0 60 58.7" style="enable-background:new 0 0 60 58.7;" xml:space="preserve">
<style type="text/css">
	.st0{opacity:0.601;}
	.st1{fill:#595959;}
</style>
<g id="_09I6tB.tif" transform="translate(-58.658 -50.035)" class="st0">
	<g id="Group_4713" transform="translate(58.658 50.035)">
		<path id="Path_2386" class="st1" d="M37.5,53v-4.1c-2-0.4-0.8-2.1-1-3.6c-4.1-1.4-6.7-4.5-8.5-8.4c-0.1-0.2-0.5-0.4-0.8-0.6
			c-0.2,0.3-0.3,0.6-0.4,1c-0.1,1.1,0.7,2.6-1.4,2.7c-0.1,0-0.2,0.2-0.2,0.3c-0.2,1.4-0.9,2.9-0.5,4c0.7,2.3,0.6,4.8-0.2,7.1
			c-0.2,0.4-0.5,0.8-0.8,1.1c-0.2-0.4-0.6-0.9-0.6-1.3c0.1-0.6,0.2-1.2,0.3-1.8c0.2-1,0.3-2.1,0.1-3.2c-0.7-2-0.6-4.2,0.2-6.1
			c-2.4-0.5-1.4-2.2-1.4-3.6c-8.5-2.9-12-14.6-9.7-21.5c1.6-5.1,6.3-8.5,11.6-8.5c5.7-0.1,10.3,2.8,12.2,7.9
			c0.1,0.3,0.2,0.6,0.3,0.8c1.8,0,3.5,0.2,5.2,0.4c5.1,0.9,8.9,5.2,9.4,10.3c0.9,6-1.1,12-5.4,16.2c-1.3,1.3-3.1,2.2-4.8,3.3
			c0,0.4,0.1,1.1,0.1,1.8c0,0.3-0.1,0.9-0.3,1c-2.3,0.6-1.7,2.6-2.3,4.1c-0.1,0.1-0.1,0.3-0.2,0.4L37.5,53z M13.2,19
			c0.2,6,1.8,10.3,5.4,13.8c3.6,3.5,8.2,3.4,11.8-0.1c2.2-2.2,3.8-5,4.6-8.1c1.1-4.3,1.1-8.5-1.6-12.2s-8.2-5.1-13-3.5
			C16.1,10.4,13.2,14.5,13.2,19z M28.7,35.8c1.1,1.8,2.4,3.5,3.7,5.2c3.7,4.1,8.6,4.1,12.4,0.2c3.5-3.6,5.3-8.5,5-13.4
			c-0.3-6.2-3.8-9.9-9.8-10.7C39,17,38,17,37,17c0.6,6.2-0.9,11.4-4.7,15.9c-0.3,0.5-0.4,1-0.2,1.6c1.1,1.7,2.3,3.3,3.5,5
			c0.3,0.5,0.5,1,0.6,1.5c-0.5-0.1-1.1-0.2-1.6-0.4c-0.4-0.2-0.7-0.5-0.9-0.8c-1.2-1.6-2.3-3.2-3.4-4.9L28.7,35.8z"/>
		<path id="Path_2387" class="st1" d="M33.9,20.2c-0.1,0.9-0.2,1.8-0.4,2.7c-0.1,0.4-0.6,0.7-0.9,1.1c-0.2-0.4-0.4-0.8-0.4-1.3
			c0.1-1.4,0.2-2.9,0.1-4.3c-0.3-1.2-0.6-2.5-1.1-3.6c-0.1-0.5-0.1-1.1-0.1-1.6c0.5,0.3,1.2,0.5,1.4,0.9c0.7,1.9,1.2,3.9,1.8,5.9
			L33.9,20.2z"/>
		<path id="Path_2388" class="st1" d="M22.4,32.2c-0.8,0.1-1.4,0.4-1.7,0.2c-2.4-1.7-4.1-4.2-4.8-7.1c-0.1-0.2,0.3-0.6,0.5-0.9
			c0.3,0.2,0.7,0.3,0.9,0.6c0.7,1.2,1.2,2.6,2,3.8c0.6,0.8,1.2,1.5,1.9,2.1C21.5,31.2,21.8,31.5,22.4,32.2z"/>
		<path id="Path_2389" class="st1" d="M27.7,10.1l2.2,1.7c-0.3,0.3-0.6,0.8-0.7,0.7c-0.8-0.4-1.5-0.8-2.2-1.3L27.7,10.1z"/>
		<path id="Path_2390" class="st1" d="M48.3,28.8c-0.1,1-0.2,2-0.4,3c-0.1,0.4-0.6,0.7-0.9,1c-0.3-0.4-0.4-0.8-0.5-1.2
			c0-1.7,0.2-3.5,0-5.2c-0.3-1.1-0.7-2.1-1.1-3.1c0-0.4,0-0.9,0.1-1.3c0.4,0.2,1,0.3,1.1,0.6c0.8,2,1.4,4.1,2.1,6.1L48.3,28.8z"/>
		<path id="Path_2391" class="st1" d="M44.8,20.5c-0.8,0.4-1.2,0.8-1.4,0.7c-0.8-0.4-1.5-0.9-2.2-1.3c0.3-0.2,0.6-0.7,0.8-0.7
			C43,19.6,43.9,20.1,44.8,20.5z"/>
	</g>
</g>
</svg>
