<?xml version="1.0" encoding="utf-8"?>
<!-- Generator: Adobe Illustrator 24.2.1, SVG Export Plug-In . SVG Version: 6.00 Build 0)  -->
<svg version="1.1" id="Layer_1" xmlns="http://www.w3.org/2000/svg" xmlns:xlink="http://www.w3.org/1999/xlink" x="0px" y="0px"
	 viewBox="0 0 60 58.7" style="enable-background:new 0 0 60 58.7;" xml:space="preserve">
<style type="text/css">
	.st0{opacity:0.601;}
	.st1{fill:#595959;}
</style>
<g id="BaATu8.tif" transform="translate(66.186 593.043)" class="st0">
	<g id="Group_4699" transform="translate(-10 -646)">
		<path id="Path_2377" class="st1" d="M-5.9,78.3c-0.2,0.2-0.5,0.5-0.7,0.7c-1.9,1.2-3.8,2.4-5.7,3.5c-0.3,0.1-0.4,0.4-0.4,0.7
			c0,6.6,0,13.2,0,19.7c0,0.9-0.3,1.2-1.2,1.2h-23.3c-0.9,0-1.2-0.3-1.2-1.2c0-6.6,0-13.2,0-19.8c0-0.3-0.1-0.6-0.4-0.7
			c-1.9-1.2-3.9-2.4-5.8-3.6c-0.7-0.4-0.8-0.8-0.5-1.5c1.7-3.8,3.5-7.5,5.2-11.3c0.5-1.2,1.4-2.1,2.5-2.6c2-1,4-2,5.9-3h0.6
			c0,0,0.1,0.1,0.1,0.1c2.4,0.7,4.9,0.9,7.4,0.6c1-0.2,1.9-0.4,2.9-0.7h0.6c1.9,1,3.9,2,5.9,3c1.2,0.6,2.2,1.6,2.7,2.8
			c1,2.2,1.9,4.3,2.9,6.4c0.8,1.7,1.6,3.4,2.4,5.2L-5.9,78.3z M-19.2,62.6c-1.1,3.5-4.8,5.4-8.2,4.4c-2.1-0.6-3.7-2.3-4.4-4.4
			l-1.5,0.8c0.1,0.2,0.1,0.4,0.2,0.5c0.8,1.9,2.2,3.3,4,4.2c0.6,0.3,0.8,0.8,0.6,1.2c-0.2,0.5-0.7,0.6-1.3,0.3c-2.2-1-4-2.8-4.9-5.1
			c0-0.1-0.1-0.2-0.2-0.3c-0.5,0.3-1,0.5-1.6,0.8c-0.8,0.4-1.4,1-1.8,1.8c-1.6,3.5-3.2,7.1-4.8,10.6c-0.1,0.1-0.1,0.2-0.1,0.4l4.9,3
			v-5.2c0-0.5,0.3-0.9,0.8-0.9h0c0.5,0,0.9,0.4,0.9,0.9c0,0,0,0,0,0v26.9h22.2V75.8c0-0.2,0-0.4,0-0.5c0.1-0.4,0.5-0.6,0.9-0.6
			c0.4,0.1,0.8,0.5,0.7,0.9c0,1.6,0,3.1,0,4.7c0,0.1,0,0.3,0,0.5l4.9-3l-1.6-3.6l-3.3-7.3c-0.2-0.6-0.6-1.1-1-1.4
			c-0.7-0.4-1.5-0.8-2.3-1.2c-0.4,1.2-1.1,2.2-1.9,3.1c-0.9,1-2.1,1.8-3.3,2.4c-0.4,0.2-0.9,0-1.2-0.4l0,0c-0.2-0.4,0-0.9,0.4-1.1
			c0,0,0,0,0,0l0,0c0.1-0.1,0.3-0.2,0.5-0.2c1.3-0.7,2.4-1.7,3.2-2.9c0.3-0.5,0.5-1,0.8-1.6L-19.2,62.6z M-21,62.4
			c-3,0.8-6.1,0.8-9,0c0.9,2.5,3.6,3.8,6.1,2.9c0,0,0,0,0,0C-22.6,64.8-21.5,63.8-21,62.4z"/>
		<path id="Path_2381" class="st1" d="M-21,62.4"/>
		<path id="Path_2381-2" class="st1" d="M-30,62.4"/>
		<path id="Path_2381-3" class="st1" d="M-27.1,65.3"/>
		<path id="Path_2382" class="st1" d="M-25.5,70.6c-0.5,0-0.8-0.3-0.9-0.8c0-0.5,0.3-0.9,0.8-0.9c0.5,0,0.9,0.3,0.9,0.8c0,0,0,0,0,0
			C-24.7,70.2-25.1,70.6-25.5,70.6z"/>
	</g>
</g>
</svg>
