<?xml version="1.0" encoding="utf-8"?>
<!-- Generator: Adobe Illustrator 24.2.1, SVG Export Plug-In . SVG Version: 6.00 Build 0)  -->
<svg version="1.1" id="Layer_1" xmlns="http://www.w3.org/2000/svg" xmlns:xlink="http://www.w3.org/1999/xlink" x="0px" y="0px"
	 viewBox="0 0 60 58.7" style="enable-background:new 0 0 60 58.7;" xml:space="preserve">
<style type="text/css">
	.st0{opacity:0.601;}
	.st1{fill:#595959;}
</style>
<g id="fmpTZB.tif" transform="translate(-493.008 619.247)" class="st0">
	<g id="Group_4679" transform="translate(493.008 -619.247)">
		<path id="Path_2345" class="st1" d="M47.2,45.5H14.5c-0.4-0.2-0.6-0.6-0.6-1c0-8.2,0-16.5,0-24.7c0-0.7,0.3-1,1-1h6.5
			c0-0.2,0-0.3,0-0.4c0-1.6,0-3.1,0-4.7c0-1.1,0.8-1.9,1.9-2c0.5-0.1,1-0.1,1.5-0.1c4.3,0,8.7,0,13,0c0.3,0,0.5,0,0.8,0.1
			c1,0.3,1.7,1.2,1.7,2.2c0,1.5,0,3,0,4.5v0.4h6.5c0.8,0,1.1,0.3,1.1,1.1c0,8.2,0,16.4,0,24.5C47.8,44.9,47.6,45.3,47.2,45.5z
			 M30.9,43.6H45c0.8,0,1-0.2,1-1c0-7,0-14,0-21c0-0.8-0.2-1-1-1H16.7c-0.8,0-1,0.3-1,1c0,7,0,14,0,21c0,0.7,0.3,1,1,1L30.9,43.6z
			 M24.1,18.7h13.5c0-1.4,0-2.7,0-4c0-0.3-0.2-0.5-0.5-0.5c0,0,0,0,0,0c-0.1,0-0.2,0-0.3,0l-12,0c-0.4,0-0.6,0.2-0.6,0.6
			c0,0.7,0,1.4,0,2.2L24.1,18.7z"/>
		<path id="Path_2346" class="st1" d="M38.9,32.2c0,0.8,0,1.7,0,2.5c0.1,0.5-0.3,0.9-0.8,1c-0.1,0-0.2,0-0.2,0c-0.7,0-1.5,0-2.2,0
			c-0.6-0.1-1.2,0.4-1.3,1c0,0.1,0,0.1,0,0.2c0,0.8,0,1.5,0,2.3c0,0.7-0.3,1-1,1c-1.7,0-3.3,0-5,0c-0.5,0.1-1-0.3-1-0.8
			c0-0.1,0-0.2,0-0.2c0-0.8,0-1.6,0-2.5c0.1-0.5-0.3-1-0.8-1.1c-0.1,0-0.2,0-0.3,0c-0.8,0-1.7,0-2.5,0c-0.5,0.1-0.9-0.3-1-0.8
			c0,0,0-0.1,0-0.1c0-0.5,0-1,0-1.5c0-1.1,0-2.3,0-3.5c0-0.8,0.3-1.1,1.1-1.1c0.9,0,1.7,0,2.6,0c0.6,0,0.8-0.2,0.9-0.8
			c0-0.9,0-1.7,0-2.6c0-0.3,0.1-0.6,0.3-0.8c0.2-0.2,0.4-0.3,0.7-0.3c1.7,0,3.4,0,5.1,0c0.5,0,0.9,0.3,0.9,0.8c0,0,0,0.1,0,0.1
			c0,0.8,0,1.6,0,2.5c0,0.9,0.3,1.2,1.2,1.2c0.8,0,1.6,0,2.4,0c0.5-0.1,0.9,0.3,1,0.8c0,0.1,0,0.1,0,0.2
			C38.9,30.5,38.9,31.3,38.9,32.2z M24.3,30.1v4c0.1,0,0.3,0,0.4,0c0.9,0,1.9,0,2.8,0c0.6,0,1.2,0.4,1.2,1c0,0.2,0,0.4,0,0.6
			c0,0.8,0,1.6,0,2.4v0.3h4.1c0-0.9,0-1.7,0-2.6c0-0.3,0-0.6,0.1-0.8c0.1-0.6,0.6-1,1.2-1c0.9,0,1.8,0,2.7,0c0.1,0,0.2,0,0.4,0
			c0-0.1,0-0.3,0-0.4c0-1.1,0-2.2,0-3.3c0-0.3-0.1-0.4-0.4-0.4c-0.9,0-1.7,0-2.6,0c-0.7,0.1-1.2-0.4-1.3-1.1c0-0.2-0.1-0.4-0.1-0.6
			c0-0.9,0-1.8,0-2.8h-4.1v0.4c0,1,0,2,0,3c0.1,0.5-0.3,1-0.8,1c-0.1,0-0.2,0-0.2,0c-0.4,0-0.7,0-1.1,0L24.3,30.1z"/>
	</g>
</g>
</svg>
