<?xml version="1.0" encoding="utf-8"?>
<!-- Generator: Adobe Illustrator 24.2.1, SVG Export Plug-In . SVG Version: 6.00 Build 0)  -->
<svg version="1.1" id="Layer_1" xmlns="http://www.w3.org/2000/svg" xmlns:xlink="http://www.w3.org/1999/xlink" x="0px" y="0px"
	 viewBox="0 0 60 58.7" style="enable-background:new 0 0 60 58.7;" xml:space="preserve">
<style type="text/css">
	.st0{opacity:0.601;}
	.st1{fill:#595959;}
</style>
<g id="Group_4715" transform="translate(20.516 -80.264)" class="st0">
	<path id="Path_2392" class="st1" d="M-8.8,114.6c0-0.7,0-1.3,0-2c-0.1-2.1,1.4-3.9,3.5-4c0.2,0,0.3,0,0.5,0c4.1,0,8.1,0,12.2,0
		c1.2-0.1,2.4,0.4,3.2,1.4c0,0,0.1,0.1,0.1,0.1c0.6-0.7,1.4-1.2,2.3-1.4c0.3,0,0.6-0.1,0.8-0.1c4.1,0,8.1,0,12.2,0
		c2.1-0.2,3.9,1.4,4,3.5c0,0.2,0,0.4,0,0.6c0,0.6,0,1.3,0,1.9c0.8,0,1.6,0.3,2.3,0.8c0.9,0.7,1.5,1.9,1.5,3.1c0,4.4,0,8.8,0,13.2
		c0,0.7-0.3,0.9-1.1,0.9h-44.3c-0.9,0-1.1-0.2-1.1-1.1c0-4.2,0-8.5,0-12.7c-0.2-2.2,1.4-4,3.6-4.2C-8.9,114.6-8.8,114.6-8.8,114.6z
		 M-7.3,114.6c0.8,0,1.6,0.3,2.3,0.8c1,0.7,1.5,1.9,1.5,3.1c0,0.9,0,1.8,0,2.8c0.9-0.6,2-0.8,3.1-0.7c2.4,0,4.7,0,7.1,0
		c1.2-0.1,2.3,0.1,3.3,0.7v-0.5c0-2.7,0-5.5,0-8.2c0.2-1.2-0.7-2.4-2-2.5c-0.2,0-0.4,0-0.6,0c-3.1,0-6.2,0-9.4,0c-1,0-2,0-3,0
		c-1.2,0-2.2,0.9-2.3,2.1C-7.3,113-7.3,113.7-7.3,114.6L-7.3,114.6z M28.7,114.6c0-0.7,0-1.3,0-2c0.1-1.2-0.8-2.4-2-2.5
		c-0.2,0-0.3,0-0.5,0c-4.1,0-8.2,0-12.3,0c-1.2-0.1-2.3,0.8-2.5,2c0,0.2,0,0.3,0,0.5c0,2.8,0,5.5,0,8.3c0,0.1,0,0.3,0,0.4
		c0.8-0.5,1.8-0.8,2.8-0.7c2.3,0,4.7,0,7,0c1.2,0,2.5-0.1,3.6,0.8c0-1,0-1.9,0-2.9c0-1.2,0.5-2.4,1.5-3.1
		C27.1,114.9,27.9,114.6,28.7,114.6L28.7,114.6z M-5,131v-10.6c0-0.7,0-1.3,0-2c0.1-1.2-0.9-2.3-2.1-2.4c-0.1,0-0.2,0-0.2,0
		c-0.4,0-0.7,0-1.1,0c-1.2-0.2-2.4,0.7-2.6,2c0,0.2,0,0.4,0,0.6c0,4,0,7.9,0,11.9v0.5L-5,131z M32.4,131v-3.3c0-3.1,0-6.2,0-9.3
		c0.1-1.2-0.8-2.3-2.1-2.4c-0.1,0-0.2,0-0.2,0c-0.4,0-0.7,0-1.1,0c-1.3-0.2-2.4,0.7-2.6,1.9c0,0.2,0,0.4,0,0.6V131L32.4,131z
		 M-3.5,131h28.4v-2.9H-3.5L-3.5,131z M-3.5,126.5H10c0-0.8,0-1.6,0-2.3c0-1.2-1-2.1-2.1-2.1c-3.1,0-6.1,0-9.2,0
		c-1.2,0-2.1,0.9-2.1,2.1C-3.5,125-3.5,125.7-3.5,126.5L-3.5,126.5z M24.9,126.6c0-0.7,0-1.3,0-2c0-0.2,0-0.3,0-0.5
		c-0.1-1.1-1-2-2.2-2c-3,0-6.1,0-9.1,0c-0.9,0-1.8,0.6-2,1.5c-0.1,1-0.2,2-0.2,3L24.9,126.6z"/>
	<path id="Path_2393" class="st1" d="M10.7,105.6H-0.2c-0.8,0-1.1-0.2-1.1-1.1V88.7c0-0.9,0.2-1.1,1.1-1.1h21.8
		c0.9,0,1.1,0.2,1.1,1.1c0,5.3,0,10.5,0,15.8c0,0.8-0.2,1.1-1.1,1.1H10.7z M0.2,104.1h20.9V89.1H0.2V104.1z"/>
	<path id="Path_2394" class="st1" d="M10.7,89.9h8.7c0.8,0,1.1,0.2,1.1,1.1c0,3.8,0,7.6,0,11.4c0,0.8-0.2,1.1-1.1,1.1H2
		c-0.8,0-1.1-0.2-1.1-1.1c0-3.8,0-7.6,0-11.4c0-0.8,0.2-1,1-1C4.9,89.9,7.8,89.9,10.7,89.9z M18.8,101.9l0.1-0.1V91.4H2.5V102
		c0.2-0.1,0.4-0.2,0.6-0.4c1.1-1.3,2.1-2.6,3.2-3.8c0.5-0.5,0.9-0.5,1.4,0c0.3,0.3,0.6,0.7,0.9,1c1.1-1.3,2.2-2.7,3.3-4
		c0.6-0.7,1-0.7,1.5,0c1.7,2.2,3.3,4.4,5,6.6C18.5,101.7,18.6,101.8,18.8,101.9z M16.7,101.9l-4.1-5.5c-0.9,1-1.7,2-2.6,3.1
		c-0.5,0.6-0.4,0.6,0,1.2c0.5,1,1.6,1.5,2.7,1.3C14,101.8,15.3,101.9,16.7,101.9z M9.1,101.8L7,99.3l-2.1,2.6H9.1z"/>
	<path id="Path_2395" class="st1" d="M4.7,94.3c0-1.2,1-2.2,2.3-2.2c1.2,0,2.2,1,2.2,2.3c0,1.2-1,2.2-2.3,2.2
		C5.7,96.6,4.7,95.6,4.7,94.3z M7,95.1c0.4,0,0.7-0.3,0.8-0.7c0-0.4-0.3-0.7-0.7-0.8c-0.4,0-0.7,0.3-0.8,0.7
		C6.2,94.8,6.5,95.1,7,95.1z"/>
	<path id="Path_2396" class="st1" d="M6.2,94.4"/>
</g>
</svg>
