<?xml version="1.0" encoding="utf-8"?>
<!-- Generator: Adobe Illustrator 24.2.1, SVG Export Plug-In . SVG Version: 6.00 Build 0)  -->
<svg version="1.1" id="Layer_1" xmlns="http://www.w3.org/2000/svg" xmlns:xlink="http://www.w3.org/1999/xlink" x="0px" y="0px"
	 viewBox="0 0 60 58.7" style="enable-background:new 0 0 60 58.7;" xml:space="preserve">
<style type="text/css">
	.st0{opacity:0.601;}
	.st1{fill:#595959;}
</style>
<g id="RaFC1f.tif" transform="translate(-241.527 -271.449)" class="st0">
	<g id="Group_4676" transform="translate(241.527 271.449)">
		<path id="Path_2332" class="st1" d="M48.6,27.6c0-0.2,0-0.3,0-0.5c0-3.8,0-7.7,0-11.5c0-1.6,0-3.3-0.1-4.9c0-1.3-0.9-2.5-2.1-3
			c-0.6-0.3-1.3-0.4-1.9-0.4c-2.9,0-5.8,0-8.6,0H17.9c-2.4,0-4.9,0-7.3,0C9.2,7.1,8,7.7,7.2,8.8c-0.5,0.8-0.8,1.7-0.7,2.6
			c0,4,0,8.1,0,12.1c0,4.6,0,9.3,0,13.9c-0.1,1.8,1.1,3.4,2.8,3.8c0.5,0.1,0.9,0.2,1.4,0.2c8.4,0,16.8,0,25.1,0c0.1,0,0.2,0,0.4,0
			v-6.6h-0.4H11c-1.6,0-2.3-0.7-2.3-2.3c0-4.9,0-9.8,0-14.7c0-2.1,0-4.2,0-6.2c-0.1-1.1,0.7-2,1.8-2.1c0.1,0,0.2,0,0.3,0
			c0.2,0,0.4,0,0.5,0h14.8c6,0,12,0,18,0c1.6,0,2.3,0.7,2.3,2.3c0,5.1,0,10.2,0,15.3c0,0.2,0,0.4,0,0.6L48.6,27.6z M54.4,37.4
			c0-2.4,0-4.8,0-7.1c0-0.8-0.7-1.6-1.5-1.7c-0.3-0.1-0.6-0.1-0.9-0.1c-4.1,0-8.3,0-12.4,0c-1.1-0.2-2.2,0.6-2.3,1.7
			c0,0.2,0,0.4,0,0.6c0,3.4,0,6.8,0,10.3c0,2.7,0,5.4,0,8.2c-0.1,1,0.6,1.9,1.6,2c0.2,0,0.5,0.1,0.7,0.1c2.7,0,5.3,0,8,0h0.7v-3
			h-0.7c-2.6,0-5.2,0-7.8,0c-0.9,0-1.2-0.4-1.2-1.2c0-5.4,0-10.8,0-16.3c0-0.9,0.4-1.3,1.3-1.3c4.1,0,8.2,0,12.4,0
			c0.9,0,1.2,0.4,1.2,1.2c0,2,0,4,0,6v0.5L54.4,37.4z M18.5,51.4l0.1,0.1h17.6c0-0.5,0-1,0-1.5c0-0.2-0.1-0.4-0.2-0.5
			c-0.7-0.6-1.4-1.2-2.1-1.7c-0.2-0.1-0.3-0.4-0.3-0.7c0-1.1,0-2.1,0-3.2c0-0.1,0-0.3,0-0.4h-2.2c0,0.8,0,1.7,0,2.5
			c-0.2,1,0.2,2,1.1,2.5c0.3,0.2,0.5,0.4,0.7,0.7h-9.8c0.4-0.5,0.8-1,1.1-1.5c0.1-0.1,0.2-0.3,0.2-0.5c0-1.1,0-2.3,0-3.4
			c0-0.1,0-0.2,0-0.3h-2.1v0.5c0,1,0,2,0,3c0,0.4-0.1,0.7-0.4,1c-0.8,0.8-1.6,1.5-2.3,2.3C19.3,50.7,18.9,51.1,18.5,51.4z
			 M49.4,44.9L49.4,44.9c0,1.8,0,3.5,0,5.3c-0.1,0.6,0.4,1.2,1,1.2c0.1,0,0.2,0,0.2,0c1.2,0,2.5,0,3.7,0c0.6,0.1,1.2-0.4,1.2-1
			c0-0.1,0-0.2,0-0.3c0-3.5,0-7,0-10.5c0.1-0.6-0.4-1.2-1-1.2c-0.1,0-0.2,0-0.3,0c-1.2,0-2.4,0-3.7,0c-0.6-0.1-1.2,0.3-1.3,1
			c0,0.1,0,0.2,0,0.3C49.4,41.3,49.4,43.1,49.4,44.9z"/>
		<path id="Path_2333" class="st1" d="M48.6,27.6h-2.2c0-0.2,0-0.4,0-0.6c0-5.1,0-10.2,0-15.3c0-1.6-0.7-2.3-2.3-2.3c-6,0-12,0-18,0
			H11.3c-0.2,0-0.4,0-0.5,0c-1.1-0.1-2,0.7-2.1,1.7c0,0.1,0,0.2,0,0.3c0,2.1,0,4.2,0,6.2c0,4.9,0,9.8,0,14.7c0,1.6,0.7,2.3,2.3,2.3
			h24.8h0.4v6.6c-0.1,0-0.2,0-0.4,0c-8.4,0-16.8,0-25.1,0c-0.5,0-1-0.1-1.4-0.2c-1.7-0.4-2.9-2-2.8-3.8c0-4.6,0-9.3,0-13.9
			c0-4,0-8.1,0-12.1c-0.1-0.9,0.2-1.8,0.7-2.6c0.8-1,2.1-1.6,3.4-1.6c2.4,0,4.9,0,7.3,0h18.1c2.9,0,5.8,0,8.6,0
			c0.7,0,1.3,0.2,1.9,0.4c1.2,0.5,2.1,1.7,2.1,3c0.1,1.6,0.1,3.3,0.1,4.9c0,3.8,0,7.7,0,11.5C48.6,27.2,48.6,27.4,48.6,27.6z"/>
		<path id="Path_2334" class="st1" d="M54.4,37.4h-1.1v-0.5c0-2,0-4,0-6c0-0.9-0.4-1.2-1.2-1.2c-4.1,0-8.2,0-12.4,0
			c-0.9,0-1.2,0.4-1.2,1.3c0,5.4,0,10.8,0,16.3c0,0.8,0.4,1.2,1.2,1.2c2.6,0,5.2,0,7.8,0h0.7v3h-0.7c-2.7,0-5.3,0-8,0
			c-0.2,0-0.5,0-0.7-0.1c-1-0.2-1.7-1.1-1.6-2c0-2.7,0-5.4,0-8.2c0-3.4,0-6.8,0-10.3c-0.2-1.1,0.6-2.2,1.7-2.3c0.2,0,0.4,0,0.6,0
			c4.1,0,8.3,0,12.4,0c0.3,0,0.6,0,0.9,0.1c0.8,0.1,1.5,0.8,1.5,1.7C54.4,32.6,54.4,35,54.4,37.4z M45.9,50.6c0.4,0,0.8-0.3,0.8-0.7
			c0,0,0,0,0,0c0-0.4-0.3-0.8-0.8-0.8c-0.4,0-0.8,0.3-0.8,0.8C45.1,50.2,45.4,50.6,45.9,50.6C45.9,50.6,45.9,50.6,45.9,50.6z"/>
		<path id="Path_2335" class="st1" d="M18.5,51.4c0.4-0.4,0.8-0.7,1.2-1.1c0.8-0.8,1.5-1.6,2.3-2.3c0.3-0.2,0.4-0.6,0.4-1
			c0-1,0-2,0-3v-0.5h2.1c0,0.1,0,0.2,0,0.3c0,1.1,0,2.3,0,3.4c0,0.2-0.1,0.3-0.2,0.5c-0.3,0.5-0.7,1-1.1,1.5h9.8
			c-0.2-0.3-0.5-0.5-0.7-0.7c-0.8-0.5-1.3-1.5-1.1-2.5c0-0.8,0.1-1.7,0-2.5h2.2c0,0.1,0,0.3,0,0.4c0,1.1,0,2.1,0,3.2
			c0,0.3,0.1,0.5,0.3,0.7c0.7,0.6,1.4,1.1,2.1,1.7c0.1,0.1,0.2,0.3,0.2,0.5c0,0.5,0,1,0,1.5H18.6L18.5,51.4z"/>
		<path id="Path_2336" class="st1" d="M49.4,44.9c0-1.8,0-3.5,0-5.3c-0.1-0.6,0.3-1.2,1-1.3c0.1,0,0.2,0,0.3,0c1.2,0,2.4,0,3.7,0
			c0.6-0.1,1.2,0.4,1.3,1c0,0.1,0,0.2,0,0.3c0,3.5,0,7,0,10.5c0.1,0.6-0.3,1.2-1,1.3c-0.1,0-0.2,0-0.3,0c-1.2,0-2.5,0-3.7,0
			c-0.6,0.1-1.2-0.4-1.2-1c0-0.1,0-0.2,0-0.2C49.4,48.4,49.4,46.6,49.4,44.9L49.4,44.9z M50.1,39.7v9.3c0.2,0,0.3,0,0.4,0
			c1.3,0,2.6,0,3.9,0c0.4,0,0.5-0.1,0.5-0.5c0-2.8,0-5.6,0-8.4c0-0.2,0-0.3,0-0.5L50.1,39.7z M52.5,39.2L52.5,39.2
			c0.3,0,0.6,0,0.9,0c0.1,0,0.2-0.2,0.3-0.2c-0.1-0.1-0.2-0.2-0.3-0.2c-0.6,0-1.3,0-1.9,0c-0.1,0-0.2,0.1-0.3,0.2
			c0.1,0.1,0.2,0.2,0.3,0.2C51.9,39.2,52.2,39.2,52.5,39.2L52.5,39.2z M52.7,49.9h-0.2c-0.1,0.2-0.3,0.3-0.3,0.5
			c0,0.3,0.2,0.5,0.5,0.4c0.3,0,0.5-0.2,0.4-0.5C53,50.2,52.8,50.1,52.7,49.9L52.7,49.9z"/>
		<path id="Path_2337" class="st1" d="M45.9,50.6c-0.4,0-0.8-0.3-0.8-0.7c0,0,0,0,0,0c0-0.4,0.4-0.8,0.8-0.8c0.4,0,0.8,0.3,0.8,0.8
			C46.7,50.2,46.3,50.6,45.9,50.6C45.9,50.6,45.9,50.6,45.9,50.6z"/>
		<path id="Path_2338" class="st1" d="M50.1,39.7h4.7c0,0.2,0,0.3,0,0.5c0,2.8,0,5.6,0,8.4c0,0.4-0.1,0.5-0.5,0.5
			c-1.3,0-2.6,0-3.9,0c-0.1,0-0.2,0-0.4,0L50.1,39.7z"/>
		<path id="Path_2339" class="st1" d="M52.5,39.2c-0.3,0-0.6,0-0.9,0c-0.1,0-0.2-0.1-0.3-0.2c0.1-0.1,0.2-0.2,0.3-0.2
			c0.6,0,1.3,0,1.9,0c0.1,0,0.2,0.1,0.3,0.2c-0.1,0.1-0.2,0.2-0.3,0.2C53.1,39.2,52.8,39.2,52.5,39.2L52.5,39.2z"/>
		<path id="Path_2340" class="st1" d="M52.7,49.9c0.1,0.2,0.3,0.3,0.3,0.5c0.1,0.3-0.1,0.4-0.4,0.5c-0.3,0-0.5-0.2-0.5-0.4
			c0-0.2,0.2-0.3,0.3-0.5L52.7,49.9z"/>
	</g>
</g>
</svg>
