<?xml version="1.0" encoding="utf-8"?>
<!-- Generator: Adobe Illustrator 24.2.1, SVG Export Plug-In . SVG Version: 6.00 Build 0)  -->
<svg version="1.1" id="Layer_1" xmlns="http://www.w3.org/2000/svg" xmlns:xlink="http://www.w3.org/1999/xlink" x="0px" y="0px"
	 viewBox="0 0 60 58.7" style="enable-background:new 0 0 60 58.7;" xml:space="preserve">
<style type="text/css">
	.st0{opacity:0.601;}
	.st1{fill:#595959;}
</style>
<g id="tZIzpn.tif" transform="translate(-1628.099 1755.409)" class="st0">
	<g id="Group_4688" transform="translate(1628.099 -1755.409)">
		<path id="Path_2359" class="st1" d="M39,39.5h10.9c-0.4-1.3-0.8-2.5-1.2-3.7c-1-3-2-5.9-2.9-8.9c-0.2-0.5-0.1-1.1,0.2-1.5
			c0.5-0.6,1.3-0.2,1.7,0.8c0.9,2.6,1.7,5.2,2.6,7.8c0.1,0.3,0.1,0.7,0.3,0.8c0.3,0.3,0.8,0.6,1.1,0.5c0.4-0.2,0.6-0.6,0.6-1
			c-0.2-1.1-0.6-2.1-0.9-3.2c-1-3.1-2.1-6.3-3.1-9.4c-0.7-2.1-1.5-2.7-3.7-2.8c-1.4,0-2.9,0-4.3,0c-1.1-0.1-2.3,0.2-3.2,0.9
			c-0.2,0.2-0.9,0-1.4-0.1c0.1-0.5-0.1-1.1,0.2-1.4c0.9-1,2.2-1.5,3.5-1.4c1.9,0,3.7,0,5.6,0c2.4-0.2,4.6,1.4,5.2,3.8
			c1.4,4.1,2.7,8.2,4.1,12.3c0.8,2.4,0,3.7-2.5,4.5c0.1,0.5,0.2,0.9,0.3,1.4c0.3,1.1-0.2,2.2-1.3,2.5c-0.3,0.1-0.6,0.1-0.9,0.1
			c-0.8,0-1.5,0-2.4,0c0,2.2,0,4.2,0,6.2c0,0.7,0,1.4,0,2.1c0,1.7-1.4,3.1-3.1,3c-0.5,0-0.9-0.1-1.4-0.3c-0.4-0.2-0.8-0.2-1.2,0
			c-1.5,0.8-3.4,0.3-4.2-1.2c-0.3-0.5-0.4-1-0.4-1.6c0-2,0-4,0-6.1c-0.8-0.2-1.1,0.1-1.1,0.9c0,1.9,0,3.8,0,5.7
			c0.1,1.4-0.9,2.6-2.3,2.7c-0.1,0-0.2,0-0.3,0c-1,0-2,0-3,0c-1.4,0-2.5-1.1-2.6-2.5c0-0.1,0-0.1,0-0.2c0-1.9,0-3.8,0-5.7
			c0-0.7-0.2-1.1-1.1-0.9c0,1.8,0,3.7,0,5.6c0,3.2-2.5,4.8-5.5,3.5c-0.4-0.1-0.9-0.1-1.3,0c-1.3,0.1-2.5,0.1-3.8,0
			c-1.2-0.3-1.7-1.4-1.7-2.6c0-3.5,0-6.9,0-10.4v-1.1c-2.8,0.2-4.1-1-4.1-3.7c0-4,0-7.9,0-11.9c-0.1-3.1,2.3-5.7,5.4-5.9
			c0.1,0,0.3,0,0.4,0c3,0,6-0.1,9,0c1.4,0.2,2.9,0.5,4.2,1.1c0.2,0.1,0.5,0.7,0.4,1c-0.1,0.3-0.4,0.6-0.7,0.7
			c-0.6,0-1.2-0.1-1.8-0.2c-0.9-0.3-1.9-0.5-2.8-0.6c-2.7-0.1-5.5,0-8.2,0c-2-0.1-3.7,1.3-3.8,3.3c0,0.2,0,0.4,0,0.5
			c0,4,0,8.1,0,12.1c0,0.8,0.1,1.5,1.1,1.5c0.9,0,1-0.8,1-1.5c0-3,0-6.1,0-9.1c0-0.8,0-1.7,1.1-1.7c1.1,0,1,0.9,1,1.7
			c0,7.8,0,15.6,0,23.4c0,0.9,0.7,1.7,1.6,1.8c0.4,0,0.7-0.1,1-0.3c0.3-0.2,0.4-0.9,0.4-1.3c0-3.9,0-7.8,0-11.8
			c0-0.4,0.1-0.8,0.3-1.2c0.3-0.2,0.6-0.3,1-0.2c0.4,0.3,0.6,0.7,0.7,1.1c0.1,2.6,0,5.3,0,7.9c0,1.4,0.1,2.8,0,4.2
			c-0.1,1.3,0.6,1.4,1.6,1.4c1,0,1.5-0.1,1.5-1.3c-0.1-5.1,0-10.3-0.1-15.4c-0.1-2.7,1.6-5.1,4.9-4.8c1.7,0.1,3.4,0,5.1,0
			c2.8,0,4.4,1.7,4.4,4.5C39,35.7,39,37.5,39,39.5z M36.9,36.8c0-1.1,0-2.1,0-3.2c0.2-1.1-0.6-2.2-1.8-2.3c-0.2,0-0.3,0-0.5,0
			c-1.9,0-3.7,0-5.6,0c-1.7,0-2.4,0.8-2.4,2.5c0,2.1,0,4.1,0,6.2c0,1.4,0.2,1.7,1.7,1.7c1,0,1.4,0.4,1.4,1.4c0,1.6,0,3.2,0,4.8
			c0,3,0,3,3,3c0.9,0,1.2-0.4,1.2-1.2c0-2.1,0-4.2,0-6.3c0-1.6,0.1-1.7,1.7-1.8c1,0,1.5-0.5,1.4-1.5C36.9,39,36.9,37.9,36.9,36.8
			L36.9,36.8z M39,41.6c0,2.8,0,5.5,0,8.2c0.1,0.5,0.5,0.8,1,0.9c0.3,0,0.9-0.6,0.9-1c0.1-0.8,0.1-1.7,0.1-2.5c0-1.9,0-3.8,0-5.7
			L39,41.6z M43.1,41.6c0,2.8,0,5.4,0,8c0,0.7,0.3,1.2,1,1.2s1-0.5,1-1.2c0-1.2,0-2.4,0-3.5c0-1.5,0-2.9,0-4.4L43.1,41.6z"/>
		<path id="Path_2360" class="st1" d="M15.4,10.8c0-2.8,2.2-5.1,5-5.1c0,0,0.1,0,0.1,0c2.8,0,5.1,2.3,5.1,5.1c0.1,2.8-2.2,5.1-5,5.2
			c0,0,0,0-0.1,0C17.7,15.9,15.4,13.7,15.4,10.8C15.4,10.8,15.4,10.8,15.4,10.8z M20.4,13.8c1.7,0,3.1-1.4,3.1-3.1
			c0-1.7-1.4-3-3-3.1c-1.7,0-3.1,1.3-3.2,3C17.3,12.4,18.7,13.8,20.4,13.8z"/>
		<path id="Path_2361" class="st1" d="M42.1,5.6c2.8,0,5.1,2.4,5.1,5.2c-0.1,2.8-2.4,5.1-5.2,5.1c-2.8-0.1-5-2.3-5.1-5.1
			C36.9,7.9,39.2,5.6,42.1,5.6z M42,13.8c1.7,0,3.1-1.3,3.1-3c0,0,0-0.1,0-0.1c0-1.7-1.3-3-3-3.1C40.4,7.6,39,8.9,39,10.6
			c0,0,0,0.1,0,0.1c-0.1,1.7,1.2,3.1,2.9,3.1C41.9,13.8,41.9,13.8,42,13.8L42,13.8z"/>
		<path id="Path_2362" class="st1" d="M27.7,24.1c0-2.2,1.8-4.1,4-4.1c2.3,0,4.1,1.8,4.1,4.1c0,0,0,0,0,0c0,2.3-1.8,4.1-4.1,4.1
			c0,0,0,0,0,0C29.5,28.2,27.7,26.4,27.7,24.1z M29.7,24c-0.1,1.1,0.8,2.1,2,2.1c0,0,0.1,0,0.1,0c1.1,0,2-0.8,2.1-2
			c0.1-1.1-0.8-2.1-2-2.1c0,0-0.1,0-0.1,0C30.7,22,29.7,22.9,29.7,24L29.7,24z"/>
	</g>
</g>
</svg>
