<?xml version="1.0" encoding="utf-8"?>
<!-- Generator: Adobe Illustrator 24.2.1, SVG Export Plug-In . SVG Version: 6.00 Build 0)  -->
<svg version="1.1" id="Layer_1" xmlns="http://www.w3.org/2000/svg" xmlns:xlink="http://www.w3.org/1999/xlink" x="0px" y="0px"
	 viewBox="0 0 60 58.7" style="enable-background:new 0 0 60 58.7;" xml:space="preserve">
<style type="text/css">
	.st0{opacity:0.601;}
	.st1{fill:#595959;}
</style>
<g id="r207Y6.tif" transform="translate(-1477.107 1385.984)" class="st0">
	<g id="Group_4683" transform="translate(1477.107 -1385.985)">
		<path id="Path_2353" class="st1" d="M30.8,13.5c3.3,0,6.5,0,9.8,0c5.1,0,9.5,3.4,10.7,8.3c0.2,0.7,0.3,1.4,0.3,2.1
			c0,4.8,0.1,9.6,0,14.4c0,2.3-1.4,4.3-3.6,5.1c-2.1,1-4.6,0.5-6.2-1.1c-2.1-2-4-4.1-6.1-6.2c-0.5-0.5-1-1-1.6-1.4
			c-2.6-1.7-6-1.3-8.2,1c-2,2.1-4,4.2-6.1,6.3c-1.2,1.3-2.9,2-4.7,1.9c-2.9-0.2-5.2-2.5-5.4-5.4c-0.1-2.9,0-5.7,0-8.6c0-2,0-4,0-6
			c0.3-5.1,4-9.3,9-10.3c0.8-0.1,1.6-0.2,2.4-0.2C24.4,13.5,27.6,13.5,30.8,13.5L30.8,13.5z M30.8,16.4c-3.2,0-6.3,0-9.5,0
			c-0.5,0-0.9,0-1.4,0.1c-4.1,0.5-7.2,4-7.2,8.2c-0.1,4.5,0,8.9,0,13.4c0,0.9,0.3,1.7,1,2.3c1.2,1.1,3.1,1,4.2-0.2c0,0,0,0,0,0
			c2-2.1,4-4.2,6.1-6.3c2.2-2.3,5.4-3.4,8.5-2.7c2,0.3,3.8,1.3,5.1,2.8c2,2.1,4,4.1,6,6.2c0.5,0.6,1.2,0.9,1.9,1
			c1.6,0.2,3.1-0.9,3.3-2.5c0-0.2,0-0.4,0-0.6c0-4.4,0-8.7,0-13.1c0-0.9-0.2-1.9-0.5-2.8c-1.1-3.4-4.3-5.7-7.9-5.6
			C37.2,16.4,34,16.4,30.8,16.4L30.8,16.4z"/>
		<path id="Path_2354" class="st1" d="M22.9,26.4c0,0.7,0.1,1.3,0,1.8c-0.1,0.8-0.8,1.3-1.6,1.2c-0.1,0-0.2,0-0.3-0.1
			c-0.6-0.2-0.9-0.7-0.9-1.3c0-0.5,0-1.1,0-1.7c-0.5,0-1,0-1.5,0c-0.8,0.1-1.5-0.5-1.6-1.3c0,0,0-0.1,0-0.1c0-0.8,0.7-1.5,1.5-1.5
			c0,0,0.1,0,0.1,0c0.5,0,1,0,1.5,0c0-0.6,0-1.2,0-1.7c0-0.7,0.5-1.3,1.2-1.4c0.6-0.1,1.3,0.2,1.5,0.8c0.1,0.3,0.1,0.6,0.2,0.9
			c0,0.4,0,0.9,0,1.4c0.5,0,1,0,1.5,0c0.8-0.1,1.5,0.5,1.6,1.3c0,0.1,0,0.1,0,0.2c0,0.8-0.7,1.4-1.5,1.4c0,0-0.1,0-0.1,0
			C24,26.5,23.5,26.4,22.9,26.4z"/>
		<path id="Path_2355" class="st1" d="M37.4,25c0,0.8-0.6,1.5-1.4,1.5c0,0,0,0,0,0c-0.8,0-1.5-0.7-1.5-1.5c0-0.8,0.6-1.4,1.4-1.4
			C36.7,23.5,37.4,24.2,37.4,25C37.4,25,37.4,25,37.4,25z"/>
		<path id="Path_2356" class="st1" d="M44.6,25c0,0.8-0.6,1.5-1.4,1.5c0,0,0,0,0,0c-0.8,0-1.5-0.7-1.5-1.5c0-0.8,0.6-1.4,1.4-1.4
			C43.9,23.5,44.6,24.2,44.6,25C44.6,25,44.6,25,44.6,25z"/>
		<path id="Path_2357" class="st1" d="M39.6,19.9c0.8,0,1.4,0.6,1.4,1.4c0,0,0,0,0,0c0,0.8-0.7,1.4-1.5,1.4c0,0,0,0,0,0
			c-0.8,0-1.4-0.6-1.4-1.4c0,0,0,0,0,0C38.1,20.6,38.7,19.9,39.6,19.9C39.5,19.9,39.5,19.9,39.6,19.9z"/>
		<path id="Path_2358" class="st1" d="M39.5,30c-0.8,0-1.4-0.6-1.4-1.4c0,0,0,0,0,0c0-0.8,0.6-1.4,1.4-1.4c0,0,0,0,0,0
			c0.8,0,1.5,0.6,1.5,1.4c0,0,0,0,0,0C41,29.4,40.3,30.1,39.5,30C39.5,30,39.5,30,39.5,30z"/>
	</g>
</g>
</svg>
