<?xml version="1.0" encoding="utf-8"?>
<!-- Generator: Adobe Illustrator 24.2.1, SVG Export Plug-In . SVG Version: 6.00 Build 0)  -->
<svg version="1.1" id="Layer_1" xmlns="http://www.w3.org/2000/svg" xmlns:xlink="http://www.w3.org/1999/xlink" x="0px" y="0px"
	 viewBox="0 0 60 58.7" style="enable-background:new 0 0 60 58.7;" xml:space="preserve">
<style type="text/css">
	.st0{opacity:0.601;}
	.st1{fill:#595959;}
</style>
<g id="fBsCJu.tif" transform="translate(-1829.541 1824.859)" class="st0">
	<g id="Group_4690" transform="translate(1829.541 -1824.859)">
		<path id="Path_2364" class="st1" d="M54.1,42.8c-0.2,0.4-0.6,0.6-1.1,0.6c-14.1,0-28.1,0-42.2,0c-0.8,0-1-0.2-1-1
			c0-0.7,0-1.5,0-2.3c-0.2,0.2-0.3,0.4-0.4,0.5c-0.7,0.8-1.4,1.6-2.1,2.5c-0.2,0.4-0.8,0.5-1.2,0.3c0,0,0,0-0.1,0
			C5.8,42.9,5.7,42.4,6,42c0,0,0.1-0.1,0.1-0.1c1.2-1.4,2.4-2.9,3.6-4.3c0.2-0.2,0.3-0.4,0.4-0.7c3.7-8.3,7.3-16.7,10.9-25
			c0.3-0.7,0.6-0.9,1.4-0.6c3.6,1.3,7.4,2.1,11.3,2.3c2.1,0,4.2-0.3,6.1-0.8c1.3-0.4,2.6-0.9,3.9-1.4c0.9-0.3,1.2-0.2,1.5,0.7
			c2.9,8.4,5.8,16.8,8.6,25.1c0,0.1,0.1,0.3,0.2,0.4L54.1,42.8z M27.1,21.6c0.1,0.2,0.1,0.3,0.2,0.4c2.1,4.9,4.3,9.7,6.4,14.6
			c0.1,0.2,0.3,0.3,0.5,0.3c5.9,0,11.9,0,17.8,0c0.1,0,0.2,0,0.3,0c0-0.1-0.1-0.2-0.1-0.3c-1.3-3.8-2.6-7.6-3.9-11.5
			c-0.1-0.3-0.3-0.3-0.5-0.3c-5,0-10,0-14.9,0c-0.7,0-1.1-0.3-1.1-0.8s0.4-0.8,1.1-0.8h14.8L44,13.1c-0.5,0.2-1,0.4-1.5,0.6
			c-3.6,1.3-7.4,1.8-11.1,1.4c-2.6-0.3-5.1-0.8-7.6-1.6c-0.1,0-0.2,0-0.3-0.1c0.9,2.1,1.9,4.2,2.8,6.3c0.1,0.2,0.3,0.4,0.6,0.4
			c2.1,0,4.3,0,6.4,0c0.4,0,0.8,0.3,0.9,0.7c0,0,0,0.1,0,0.1c0,0.4-0.4,0.8-0.8,0.8c0,0,0,0-0.1,0c-1.5,0-3.1,0-4.6,0L27.1,21.6z
			 M21.9,14c-0.1,0.2-0.1,0.3-0.2,0.4c-3.2,7.4-6.5,14.8-9.7,22.2c-0.4,0.8-0.6,1.7-0.5,2.6c0,0.8,0,1.6,0,2.4h4.7
			c-0.7-1.5-1.4-2.9-2.1-4.3c-0.2-0.3-0.2-0.7,0-1c0.8-1.5,1.5-3,2.3-4.5c0.1-0.2,0.3-0.4,0.5-0.5c1.5-0.8,3-1.5,4.5-2.3
			c0.3-0.2,0.7-0.2,1,0c1.5,0.8,3,1.5,4.5,2.3c0.2,0.1,0.4,0.3,0.6,0.6c0.8,1.5,1.5,3,2.3,4.5c0.2,0.3,0.2,0.7,0,1.1
			c-0.7,1.3-1.3,2.6-2,3.9c-0.1,0.1-0.1,0.2-0.2,0.4h4.7c0-1.2,0-2.3,0-3.4c0-0.3-0.1-0.5-0.2-0.8c-2.8-6.3-5.5-12.7-8.3-19
			C23.3,17,22.6,15.5,21.9,14L21.9,14z M35,38.5c0.1,0.1,0.1,0.1,0.1,0.2c0.8,0.9,1.6,1.9,2.3,2.8c0.1,0.1,0.3,0.2,0.5,0.2
			c4.7,0,9.5,0,14.2,0c0.1,0,0.2,0,0.4,0v-3.2L35,38.5z M21.9,31.8L18,41.7h7.9L21.9,31.8z M26.8,39.8c0.5-1,0.9-1.8,1.3-2.7
			c0-0.1,0-0.3,0-0.4c-0.4-0.9-1-1.8-1.3-2.7c-0.3-0.9-1-1.6-1.9-1.9c-0.5-0.2-1-0.4-1.4-0.7L26.8,39.8z M17,39.8l3.3-8.3
			c-0.9,0.4-1.7,0.8-2.6,1.2c-0.1,0.1-0.1,0.1-0.2,0.2c-0.6,1.3-1.3,2.5-1.9,3.8c-0.1,0.1-0.1,0.2,0,0.3
			C16.1,37.9,16.5,38.8,17,39.8L17,39.8z M34,40v1.7h1.5L34,40z"/>
		<path id="Path_2365" class="st1" d="M34,41.7V40"/>
		<path id="Path_2366" class="st1" d="M44,35.3c-0.2,0-0.4,0-0.5-0.1c-0.4-0.1-0.6-0.4-0.6-0.8c0-0.4,0.2-0.7,0.6-0.8
			c0.4-0.1,0.7-0.1,1.1,0c0.4,0,0.7,0.4,0.7,0.8c0,0.4-0.3,0.7-0.7,0.8C44.4,35.3,44.2,35.3,44,35.3z"/>
		<path id="Path_2367" class="st1" d="M48,35.3c-0.2,0-0.4,0-0.6-0.1c-0.4-0.1-0.6-0.4-0.6-0.8c0-0.4,0.2-0.7,0.6-0.8
			c0.4-0.1,0.7-0.1,1.1,0c0.4,0,0.7,0.4,0.7,0.8c0,0.4-0.3,0.8-0.7,0.8C48.4,35.3,48.3,35.3,48,35.3z"/>
		<path id="Path_2368" class="st1" d="M36.8,21.6c-0.1,0-0.3,0-0.4,0c-0.4,0-0.8-0.3-0.8-0.7c0,0,0,0,0,0c0-0.4,0.3-0.8,0.7-0.8
			c0,0,0,0,0,0c0.3,0,0.6,0,0.9,0c0.4,0,0.7,0.4,0.7,0.8c0,0.4-0.4,0.8-0.8,0.8C37.1,21.6,37,21.6,36.8,21.6z"/>
	</g>
</g>
</svg>
