<svg id="Layer_1" data-name="Layer 1" xmlns="http://www.w3.org/2000/svg" viewBox="0 0 186.46 189.05"><defs><style>.cls-1{fill:#efefef;}.cls-2{fill:#ddd;}.cls-3{fill:#535454;}.cls-4{fill:#444443;}.cls-5{fill:#a4d9f4;}.cls-6{fill:#7cc9e8;}.cls-7{fill:#666;}.cls-8{fill:#70b5e8;}.cls-9{fill:#52a5d8;}.cls-10{fill:#92b620;}.cls-11{fill:#ffb70d;}.cls-12{fill:#898989;}.cls-13{fill:#f94a46;}.cls-14{fill:#dda36f;}.cls-15{fill:#f9d698;}.cls-16{fill:#ff7058;}.cls-17{fill:#fff;}.cls-18{fill:#fed832;}.cls-19{fill:#383838;}</style></defs><path class="cls-1" d="M149.88,265a8.61,8.61,0,0,0-8.59,8.59v125.1a8.61,8.61,0,0,0,8.59,8.59h39.93V265Z" transform="translate(-141.29 -218.24)"/><path class="cls-2" d="M149.62,398.69V273.59a8.61,8.61,0,0,1,8.59-8.59h-8.33a8.61,8.61,0,0,0-8.59,8.59v125.1a8.61,8.61,0,0,0,8.59,8.59h8.33A8.61,8.61,0,0,1,149.62,398.69Z" transform="translate(-141.29 -218.24)"/><path class="cls-3" d="M275,407.28H189.81a8.61,8.61,0,0,1-8.58-8.59V273.59a8.61,8.61,0,0,1,8.58-8.59H275a8.61,8.61,0,0,1,8.58,8.59v125.1A8.61,8.61,0,0,1,275,407.28Z" transform="translate(-141.29 -218.24)"/><path class="cls-4" d="M188.77,398.69V273.59a8.61,8.61,0,0,1,8.59-8.59h-7.55a8.61,8.61,0,0,0-8.58,8.59v125.1a8.61,8.61,0,0,0,8.58,8.59h7.55A8.61,8.61,0,0,1,188.77,398.69Z" transform="translate(-141.29 -218.24)"/><path class="cls-5" d="M274,277.57H190.79a2,2,0,0,0-2,2V386.67a2,2,0,0,0,2,2H274a2,2,0,0,0,2-2V279.59A2,2,0,0,0,274,277.57Z" transform="translate(-141.29 -218.24)"/><path class="cls-6" d="M197.36,386.67V279.59a2,2,0,0,1,2-2h-8.59a2,2,0,0,0-2,2V386.67a2,2,0,0,0,2,2h8.59A2,2,0,0,1,197.36,386.67Z" transform="translate(-141.29 -218.24)"/><path class="cls-7" d="M232.4,404.23a6.16,6.16,0,1,1,6.16-6.16A6.17,6.17,0,0,1,232.4,404.23Zm0-8a1.86,1.86,0,1,0,1.86,1.86A1.86,1.86,0,0,0,232.4,396.21Z" transform="translate(-141.29 -218.24)"/><circle class="cls-7" cx="12.34" cy="59.34" r="4.01"/><path class="cls-3" d="M153.63,277.57a4,4,0,0,1,0-4,4,4,0,1,0,2,7.47,4,4,0,0,0,1.46-1.47A4,4,0,0,1,153.63,277.57Z" transform="translate(-141.29 -218.24)"/><path class="cls-7" d="M232.4,273.67a2,2,0,0,1-.42,0,1.85,1.85,0,0,1-.4-.12,1.9,1.9,0,0,1-.37-.2,2.16,2.16,0,0,1-.33-.27,1.35,1.35,0,0,1-.26-.32,1.9,1.9,0,0,1-.2-.37,2.07,2.07,0,0,1-.13-.4,2.23,2.23,0,0,1,0-.84,1.7,1.7,0,0,1,.13-.4,2.45,2.45,0,0,1,.46-.7,2.16,2.16,0,0,1,.33-.27,2.06,2.06,0,0,1,.77-.32,2.15,2.15,0,0,1,2.21.92,2.15,2.15,0,0,1,.19.37,1.7,1.7,0,0,1,.13.4,2.22,2.22,0,0,1,0,.84,2.07,2.07,0,0,1-.13.4,2.58,2.58,0,0,1-.19.37,1.69,1.69,0,0,1-.27.32A2.12,2.12,0,0,1,232.4,273.67Z" transform="translate(-141.29 -218.24)"/><path class="cls-8" d="M274,277.57H190.79a2,2,0,0,0-2,2v5.76H276v-5.76A2,2,0,0,0,274,277.57Z" transform="translate(-141.29 -218.24)"/><path class="cls-9" d="M199.38,277.57h-8.59a2,2,0,0,0-2,2v5.76h8.59v-5.76A2,2,0,0,1,199.38,277.57Z" transform="translate(-141.29 -218.24)"/><path class="cls-10" d="M207.8,381.11h-5.75a1,1,0,0,1-1-1v-5.74a1,1,0,0,1,1-1h5.75a1,1,0,0,1,1,1v5.74A1,1,0,0,1,207.8,381.11Z" transform="translate(-141.29 -218.24)"/><path class="cls-8" d="M226.12,381.11h-5.75a1,1,0,0,1-1-1v-5.74a1,1,0,0,1,1-1h5.75a1,1,0,0,1,.95,1v5.74A1,1,0,0,1,226.12,381.11Z" transform="translate(-141.29 -218.24)"/><path class="cls-8" d="M244.43,381.11h-5.75a1,1,0,0,1-1-1v-5.74a1,1,0,0,1,1-1h5.75a1,1,0,0,1,1,1v5.74A1,1,0,0,1,244.43,381.11Z" transform="translate(-141.29 -218.24)"/><path class="cls-11" d="M262.75,381.11H257a1,1,0,0,1-1-1v-5.74a1,1,0,0,1,1-1h5.75a1,1,0,0,1,.95,1v5.74A1,1,0,0,1,262.75,381.11Z" transform="translate(-141.29 -218.24)"/><path class="cls-12" d="M207.8,351h-5.75a1,1,0,0,1-1-1v-5.75a1,1,0,0,1,1-1h5.75a1,1,0,0,1,1,1V350A1,1,0,0,1,207.8,351Z" transform="translate(-141.29 -218.24)"/><path class="cls-13" d="M226.12,351h-5.75a1,1,0,0,1-1-1v-5.75a1,1,0,0,1,1-1h5.75a1,1,0,0,1,.95,1V350A1,1,0,0,1,226.12,351Z" transform="translate(-141.29 -218.24)"/><path class="cls-8" d="M244.43,351h-5.75a1,1,0,0,1-1-1v-5.75a1,1,0,0,1,1-1h5.75a1,1,0,0,1,1,1V350A1,1,0,0,1,244.43,351Z" transform="translate(-141.29 -218.24)"/><path class="cls-11" d="M262.75,351H257a1,1,0,0,1-1-1v-5.75a1,1,0,0,1,1-1h5.75a1,1,0,0,1,.95,1V350A1,1,0,0,1,262.75,351Z" transform="translate(-141.29 -218.24)"/><path class="cls-1" d="M207.8,335.55h-5.75a1,1,0,0,1-1-.95v-5.75a1,1,0,0,1,1-1h5.75a1,1,0,0,1,1,1v5.75A1,1,0,0,1,207.8,335.55Z" transform="translate(-141.29 -218.24)"/><path class="cls-11" d="M226.12,335.55h-5.75a1,1,0,0,1-1-.95v-5.75a1,1,0,0,1,1-1h5.75a1,1,0,0,1,.95,1v5.75A1,1,0,0,1,226.12,335.55Z" transform="translate(-141.29 -218.24)"/><path class="cls-8" d="M244.43,335.55h-5.75a1,1,0,0,1-1-.95v-5.75a1,1,0,0,1,1-1h5.75a1,1,0,0,1,1,1v5.75A1,1,0,0,1,244.43,335.55Z" transform="translate(-141.29 -218.24)"/><path class="cls-1" d="M262.75,335.55H257a1,1,0,0,1-1-.95v-5.75a1,1,0,0,1,1-1h5.75a1,1,0,0,1,.95,1v5.75A1,1,0,0,1,262.75,335.55Z" transform="translate(-141.29 -218.24)"/><path class="cls-14" d="M207.8,320.11h-5.75a1,1,0,0,1-1-1v-5.74a1,1,0,0,1,1-1h5.75a1,1,0,0,1,1,1v5.74A1,1,0,0,1,207.8,320.11Z" transform="translate(-141.29 -218.24)"/><path class="cls-8" d="M226.12,320.11h-5.75a1,1,0,0,1-1-1v-5.74a1,1,0,0,1,1-1h5.75a1,1,0,0,1,.95,1v5.74A1,1,0,0,1,226.12,320.11Z" transform="translate(-141.29 -218.24)"/><path class="cls-15" d="M244.43,320.11h-5.75a1,1,0,0,1-1-1v-5.74a1,1,0,0,1,1-1h5.75a1,1,0,0,1,1,1v5.74A1,1,0,0,1,244.43,320.11Z" transform="translate(-141.29 -218.24)"/><path class="cls-8" d="M262.75,320.11H257a1,1,0,0,1-1-1v-5.74a1,1,0,0,1,1-1h5.75a1,1,0,0,1,.95,1v5.74A1,1,0,0,1,262.75,320.11Z" transform="translate(-141.29 -218.24)"/><path class="cls-10" d="M207.8,304.67h-5.75a1,1,0,0,1-1-1V298a1,1,0,0,1,1-1h5.75a1,1,0,0,1,1,1v5.74A1,1,0,0,1,207.8,304.67Z" transform="translate(-141.29 -218.24)"/><path class="cls-13" d="M226.12,304.67h-5.75a1,1,0,0,1-1-1V298a1,1,0,0,1,1-1h5.75a1,1,0,0,1,.95,1v5.74A1,1,0,0,1,226.12,304.67Z" transform="translate(-141.29 -218.24)"/><path class="cls-11" d="M244.43,304.67h-5.75a1,1,0,0,1-1-1V298a1,1,0,0,1,1-1h5.75a1,1,0,0,1,1,1v5.74A1,1,0,0,1,244.43,304.67Z" transform="translate(-141.29 -218.24)"/><path class="cls-1" d="M262.75,304.67H257a1,1,0,0,1-1-1V298a1,1,0,0,1,1-1h5.75a1,1,0,0,1,.95,1v5.74A1,1,0,0,1,262.75,304.67Z" transform="translate(-141.29 -218.24)"/><polygon class="cls-16" points="186.46 22.03 164.55 0 142.53 22.03 154.26 22.03 154.26 68.86 174.84 68.86 174.84 22.03 186.46 22.03"/><circle class="cls-17" cx="138.29" cy="68.62" r="40.18"/><path class="cls-18" d="M279.58,318.68a31.83,31.83,0,1,1,31.83-31.82A31.87,31.87,0,0,1,279.58,318.68Z" transform="translate(-141.29 -218.24)"/><path class="cls-19" d="M281,301.14v4.47h-3v-4.35a15.68,15.68,0,0,1-7.75-1.94v-5.57a15.56,15.56,0,0,0,3.51,1.82,16.33,16.33,0,0,0,4.24,1v-7.63c-3.15-1.21-5.45-2.54-6.54-3.87a7.48,7.48,0,0,1-1.81-5.08,7,7,0,0,1,2.3-5.45,9.34,9.34,0,0,1,6.05-2.66V268h3v3.75a14.45,14.45,0,0,1,6.54,1.45v5.57a15,15,0,0,0-6.54-2.18v7.74c3,1.09,5.21,2.3,6.42,3.76a6.83,6.83,0,0,1,1.93,5.08,7,7,0,0,1-2.17,5.44A9.68,9.68,0,0,1,281,301.14Zm-3-17.92v-6.53c-1.94.36-2.91,1.33-2.91,2.9S276.07,282.26,278,283.22Zm3,6.9v6.18c1.94-.25,2.91-1.34,2.91-2.91Q283.94,291.4,281,290.12Z" transform="translate(-141.29 -218.24)"/></svg>