<svg id="_30_000" data-name="&lt;30 000" xmlns="http://www.w3.org/2000/svg" width="126.97" height="122.11" viewBox="0 0 126.97 122.11">
  <g id="income">
    <path id="Path_1593" data-name="Path 1593" d="M361.39,343.4V282.55a7.85,7.85,0,0,1,7.85-7.85h25.52a7.86,7.86,0,0,1,7.85,7.85h0V343.4Z" transform="translate(-357.46 -235.43)" fill="#e0b999"/>
    <path id="Path_1594" data-name="Path 1594" d="M359.79,251.7l45.5-12.2,23.39,87.22-45.51,12.2Z" transform="translate(-357.46 -235.43)" fill="#35a872"/>
    <circle id="Ellipse_481" data-name="Ellipse 481" cx="19.63" cy="19.63" r="19.63" transform="translate(17.13 34.15)" fill="#3dc285"/>
    <path id="Path_1595" data-name="Path 1595" d="M379.09,323.75a15.69,15.69,0,0,1,19.23,11.1h0l-15.16,4.06Z" transform="translate(-357.46 -235.43)" fill="#3dc285"/>
    <path id="Path_1596" data-name="Path 1596" d="M359.78,251.7,375,247.63a15.7,15.7,0,0,1-11.1,19.24Z" transform="translate(-357.46 -235.43)" fill="#3dc285"/>
    <path id="Path_1597" data-name="Path 1597" d="M407.19,282.55l-2.23.6A5.89,5.89,0,0,0,394.42,288a2,2,0,0,1-3.79,1l-1-3.8a2,2,0,0,0-3.81,1h0l.51,1.9-1.9.51a2,2,0,0,0,1,3.79l2.22-.6a5.89,5.89,0,0,0,10.56-4.8,2,2,0,0,1,3.79-1l1,3.79a2,2,0,0,0,3.79-1l-.51-1.9,1.9-.5a2,2,0,0,0-1-3.81Z" transform="translate(-357.46 -235.43)" fill="#35a872"/>
    <path id="Path_1598" data-name="Path 1598" d="M361.39,349.29V335.55L357.46,312l13.74-17.67c.66-1.5,2.29-2,3.93-2,3.92.73,4.5,3.3,3.92,5.89l-5.89,17.66a15.7,15.7,0,0,1,15.7,15.7h0v3.93h6.86l6.88-1.85v15.59Z" transform="translate(-357.46 -235.43)" fill="#f0c6a4"/>
    <path id="Path_1599" data-name="Path 1599" d="M424.6,311.56l4.06,15.17-15.17,4.06a15.7,15.7,0,0,1,11.1-19.23Z" transform="translate(-357.46 -235.43)" fill="#3dc285"/>
    <path id="Path_1600" data-name="Path 1600" d="M390.12,243.57l15.17-4.06,4.07,15.16a15.7,15.7,0,0,1-19.24-11.1Z" transform="translate(-357.46 -235.43)" fill="#3dc285"/>
    <path id="Path_1601" data-name="Path 1601" d="M375,247.63l45.5-12.2,23.39,87.22-45.51,12.2Z" transform="translate(-357.46 -235.43)" fill="#35a872"/>
    <circle id="Ellipse_482" data-name="Ellipse 482" cx="19.63" cy="19.63" r="19.63" transform="translate(32.3 30.09)" fill="#3dc285"/>
    <path id="Path_1602" data-name="Path 1602" d="M419.89,286.4l-1-3.79a5.891,5.891,0,1,0-11.38,3.05h0a2,2,0,0,1-3.79,1l-1-3.8a2,2,0,0,0-3.8,1l.51,1.9-1.9.51a2,2,0,1,0,1,3.8h0l2.22-.6a5.89,5.89,0,0,0,10.54-4.86,2,2,0,0,1,3.79-1l1,3.79a2,2,0,0,0,3.79-1Z" transform="translate(-357.46 -235.43)" fill="#35a872"/>
    <g id="Group_6131" data-name="Group 6131" transform="translate(17.54 0.01)">
      <path id="Path_1603" data-name="Path 1603" d="M394.26,319.69a15.69,15.69,0,0,1,19.23,11.1l-15.17,4.06Z" transform="translate(-375 -235.44)" fill="#3dc285"/>
      <path id="Path_1604" data-name="Path 1604" d="M375,247.63l15.17-4.06A15.69,15.69,0,0,1,379,262.8Z" transform="translate(-375 -235.44)" fill="#3dc285"/>
      <path id="Path_1605" data-name="Path 1605" d="M439.77,307.49l4.06,15.17-15.17,4.07a15.72,15.72,0,0,1,11.11-19.24Z" transform="translate(-375 -235.44)" fill="#3dc285"/>
      <path id="Path_1606" data-name="Path 1606" d="M405.29,239.51l15.17-4.07,4.06,15.17a15.7,15.7,0,0,1-19.23-11.09Z" transform="translate(-375 -235.44)" fill="#3dc285"/>
    </g>
    <path id="Path_1607" data-name="Path 1607" d="M404.57,353.22H359.42v-9.81h45.15Z" transform="translate(-357.46 -235.43)" fill="#2d85cc"/>
    <path id="Path_1608" data-name="Path 1608" d="M463.46,343.4V282.55a7.85,7.85,0,0,0-7.85-7.85H430.09a7.85,7.85,0,0,0-7.85,7.85V343.4Z" transform="translate(-357.46 -235.43)" fill="#e0b999"/>
    <path id="Path_1609" data-name="Path 1609" d="M408.5,245.26h47.11v90.3H408.5Z" transform="translate(-357.46 -235.43)" fill="#35a872"/>
    <circle id="Ellipse_483" data-name="Ellipse 483" cx="19.63" cy="19.63" r="19.63" transform="translate(54.96 35.35)" fill="#3dc285"/>
    <path id="Path_1610" data-name="Path 1610" d="M443.83,288.44h-2.3a5.89,5.89,0,0,0-11.44,2,2,2,0,0,1-3.92,0h0v-3.93a2,2,0,0,0-3.93,0h0v2h-2a2,2,0,0,0,0,3.93h2.3a5.89,5.89,0,0,0,11.44-2,2,2,0,1,1,3.92,0h0v3.92a2,2,0,0,0,3.93,0v-2h2a2,2,0,0,0,0-3.93Z" transform="translate(-357.46 -235.43)" fill="#35a872"/>
    <path id="Path_1611" data-name="Path 1611" d="M408.5,319.85a15.7,15.7,0,0,1,15.7,15.7H408.5Z" transform="translate(-357.46 -235.43)" fill="#3dc285"/>
    <path id="Path_1612" data-name="Path 1612" d="M408.5,245.26h15.7A15.7,15.7,0,0,1,408.5,261Z" transform="translate(-357.46 -235.43)" fill="#3dc285"/>
    <path id="Path_1613" data-name="Path 1613" d="M439.91,245.26h15.7V261a15.69,15.69,0,0,1-15.7-15.7Z" transform="translate(-357.46 -235.43)" fill="#3dc285"/>
    <path id="Path_1614" data-name="Path 1614" d="M463.46,349.29V335.55L467.39,312l-13.74-17.67c-.67-1.5-2.29-2-3.93-2-3.93.73-4.5,3.3-3.93,5.89l5.89,17.66a15.7,15.7,0,0,0-15.7,15.7h0v3.93H422.24v13.74Z" transform="translate(-357.46 -235.43)" fill="#f0c6a4"/>
    <path id="Path_1615" data-name="Path 1615" d="M420.28,343.41h45.14v9.81H420.28Z" transform="translate(-357.46 -235.43)" fill="#2d85cc"/>
  </g>
  <g id="restricted-area" transform="translate(69.67 64.81)">
    <circle id="Ellipse_486" data-name="Ellipse 486" cx="28.4" cy="28.4" r="28.4" fill="#ee6161" stroke="#fff" stroke-width="1"/>
    <path id="Path_1623" data-name="Path 1623" d="M483.94,328.64A28.42,28.42,0,0,1,443,354.15,28.41,28.41,0,0,0,465.35,302a28.4,28.4,0,0,1,18.59,26.64Z" transform="translate(-427.13 -300.24)" fill="#e94444"/>
    <circle id="Ellipse_487" data-name="Ellipse 487" cx="22.91" cy="22.91" r="22.91" transform="translate(5.49 5.49)" fill="#8ac9fe"/>
    <path id="Path_1624" data-name="Path 1624" d="M478.44,328.64A22.92,22.92,0,0,1,444.92,349a22.92,22.92,0,0,0,18.32-41.89,22.9,22.9,0,0,1,15.2,21.53Z" transform="translate(-427.13 -300.24)" fill="#60b7ff"/>
    <path id="Path_1625" data-name="Path 1625" d="M435.47,313.85l3.95-3.94,35.17,35.17L470.65,349Z" transform="translate(-427.13 -300.24)" fill="#ee6161"/>
  </g>
</svg>
