<?xml version="1.0" encoding="utf-8"?>
<!-- Generator: Adobe Illustrator 24.2.0, SVG Export Plug-In . SVG Version: 6.00 Build 0)  -->
<svg version="1.1" id="Layer_1" xmlns="http://www.w3.org/2000/svg" xmlns:xlink="http://www.w3.org/1999/xlink" x="0px" y="0px"
	 viewBox="0 0 39 42" style="enable-background:new 0 0 39 42;" xml:space="preserve">
<style type="text/css">
	.st0{fill:#CECECE;}
	.st1{fill:none;}
	.st2{fill:#D1D1D1;}
</style>
<g id="Group_4894" transform="translate(-8287 -8551)">
	<g id="Group_4856" transform="translate(8295.619 8559.576)">
		<path id="Path_2289" class="st0" d="M9.8,18.7c-0.4,0-0.8-0.2-1.1-0.4l-1.3-1c-0.2-0.2-0.4-0.3-0.6-0.5l-1-0.8
			c-0.4-0.3-0.8-0.6-1.2-1c-0.3-0.2-0.4-0.6-0.4-0.9c0-0.2,0-0.5,0.1-0.7c0.1-0.2,0.2-0.4,0.4-0.5c0.3-0.3,0.7-0.4,1.1-0.4
			c0.3,0,0.6,0.1,0.8,0.3C7,13,7.3,13.3,7.7,13.6C8,13.8,8.2,14,8.5,14.2c0.3,0.2,0.6,0.4,0.8,0.7C9.4,15,9.5,15,9.6,14.8
			c0.1-0.2,0.3-0.4,0.4-0.6c0.3-0.4,0.5-0.8,0.8-1.3c0.2-0.3,0.4-0.6,0.6-0.9c0.2-0.4,0.4-0.7,0.7-1.1c0.1-0.1,0.2-0.3,0.3-0.4
			c0.3-0.4,0.5-0.9,0.8-1.3c0.2-0.2,0.3-0.5,0.5-0.7c0.3-0.4,0.5-0.9,0.8-1.3c0.2-0.3,0.4-0.6,0.6-0.9c0.2-0.2,0.4-0.4,0.6-0.5
			c0.4-0.2,0.8-0.1,1.2,0.1c0.3,0.1,0.5,0.4,0.6,0.6c0.1,0.3,0.2,0.6,0.1,1c0,0.1-0.1,0.3-0.1,0.4c-0.2,0.4-0.5,0.8-0.8,1.2
			c-0.1,0.2-0.2,0.3-0.3,0.5c-0.3,0.4-0.6,0.9-0.8,1.3c-0.2,0.3-0.4,0.7-0.6,1c-0.2,0.4-0.5,0.7-0.7,1.1s-0.4,0.7-0.7,1.1
			s-0.4,0.7-0.7,1.1c-0.2,0.3-0.3,0.6-0.5,0.8c-0.1,0.2-0.3,0.4-0.4,0.7c-0.3,0.4-0.5,0.8-0.8,1.3c-0.2,0.4-0.6,0.7-1,0.8
			C10,18.7,9.9,18.7,9.8,18.7z"/>
	</g>
	<g id="Path_2281" transform="translate(8287 8551)">
		<path class="st1" d="M19.5,5.7c8.4,0,15.3,6.9,15.3,15.3s-6.9,15.3-15.3,15.3S4.2,29.4,4.2,21c0,0,0,0,0,0
			C4.2,12.5,11,5.7,19.5,5.7z"/>
		<path class="st2" d="M19.5,6.7c-3.8,0-7.4,1.5-10.1,4.2C6.7,13.6,5.2,17.2,5.2,21s1.5,7.4,4.2,10.1c2.7,2.7,6.3,4.2,10.1,4.2
			s7.4-1.5,10.1-4.2c2.7-2.7,4.2-6.3,4.2-10.1s-1.5-7.4-4.2-10.1C26.9,8.2,23.3,6.7,19.5,6.7 M19.5,5.7c8.4,0,15.3,6.8,15.3,15.3
			s-6.8,15.3-15.3,15.3S4.2,29.4,4.2,21S11,5.7,19.5,5.7z"/>
	</g>
</g>
</svg>
