<?xml version="1.0" encoding="utf-8"?>
<!-- Generator: Adobe Illustrator 24.2.0, SVG Export Plug-In . SVG Version: 6.00 Build 0)  -->
<svg version="1.1" id="Layer_1" xmlns="http://www.w3.org/2000/svg" xmlns:xlink="http://www.w3.org/1999/xlink" x="0px" y="0px"
	 viewBox="0 0 39 42" style="enable-background:new 0 0 39 42;" xml:space="preserve">
<style type="text/css">
	.st0{fill:#D0D0D0;}
	.st1{fill:none;}
	.st2{fill:#D1D1D1;}
</style>
<g id="Group_4898" transform="translate(-8287 -8756)">
	<path id="Path_2288" class="st0" d="M8306.3,8779.3c0,0.1-0.1,0.1-0.1,0.1c-1.3,1.3-2.5,2.5-3.8,3.8c-0.5,0.5-1.4,0.5-2,0
		c-0.2-0.2-0.3-0.3-0.3-0.6c-0.2-0.5,0-1.1,0.4-1.4c1.3-1.3,2.5-2.5,3.8-3.8c0,0,0.1-0.1,0.1-0.1c-0.1-0.1-0.1-0.1-0.1-0.1
		c-1.3-1.3-2.5-2.5-3.8-3.8c-0.4-0.4-0.5-0.9-0.4-1.4c0.2-0.7,1-1.1,1.7-0.9c0.2,0.1,0.4,0.2,0.6,0.4c1.1,1.1,2.1,2.1,3.2,3.2
		c0.2,0.2,0.5,0.5,0.7,0.7c0,0,0.1-0.1,0.1-0.1c1.3-1.3,2.5-2.5,3.8-3.8c0.5-0.5,1.4-0.6,2,0c0.5,0.5,0.6,1.4,0,2c0,0,0,0,0,0
		c-1.2,1.2-2.4,2.4-3.6,3.6c-0.1,0.1-0.2,0.2-0.4,0.4c0.1,0,0.1,0.1,0.2,0.1c1.3,1.3,2.5,2.5,3.8,3.8c0.5,0.5,0.5,1.4,0,2
		c-0.1,0.1-0.3,0.2-0.5,0.3c-0.5,0.2-1.1,0.1-1.5-0.3c-1.1-1.1-2.2-2.2-3.3-3.3C8306.8,8779.8,8306.6,8779.6,8306.3,8779.3z"/>
	<g id="Path_2281" transform="translate(8287 8756)">
		<path class="st1" d="M19.3,6.1c8.4,0,15.3,6.9,15.3,15.3s-6.9,15.3-15.3,15.3S4,29.8,4,21.4c0,0,0,0,0,0C4,12.9,10.9,6.1,19.3,6.1
			z"/>
		<path class="st2" d="M19.3,7.1c-3.8,0-7.4,1.5-10.1,4.2C6.5,14,5,17.6,5,21.4s1.5,7.4,4.2,10.1c2.7,2.7,6.3,4.2,10.1,4.2
			s7.4-1.5,10.1-4.2c2.7-2.7,4.2-6.3,4.2-10.1s-1.5-7.4-4.2-10.1C26.7,8.6,23.2,7.1,19.3,7.1 M19.3,6.1c8.4,0,15.3,6.8,15.3,15.3
			s-6.8,15.3-15.3,15.3S4,29.8,4,21.4S10.9,6.1,19.3,6.1z"/>
	</g>
</g>
</svg>
