<?xml version="1.0" encoding="utf-8"?>
<!-- Generator: Adobe Illustrator 24.2.0, SVG Export Plug-In . SVG Version: 6.00 Build 0)  -->
<svg version="1.1" id="Layer_1" xmlns="http://www.w3.org/2000/svg" xmlns:xlink="http://www.w3.org/1999/xlink" x="0px" y="0px"
	 viewBox="0 0 39 42" style="enable-background:new 0 0 39 42;" xml:space="preserve">
<style type="text/css">
	.st0{fill:none;}
	.st1{fill:#D1D1D1;}
	.st2{fill:#D0D0D0;}
</style>
<g id="Group_4895" transform="translate(-8287 -8602)">
	<g id="Path_2281_1_" transform="translate(8287 8602)">
		<path class="st0" d="M19.5,5.7c8.4,0,15.3,6.9,15.3,15.3s-6.9,15.3-15.3,15.3S4.2,29.4,4.2,21c0,0,0,0,0,0
			C4.2,12.5,11,5.7,19.5,5.7z"/>
		<path class="st1" d="M19.5,6.7c-3.8,0-7.4,1.5-10.1,4.2C6.7,13.6,5.2,17.2,5.2,21s1.5,7.4,4.2,10.1c2.7,2.7,6.3,4.2,10.1,4.2
			s7.4-1.5,10.1-4.2c2.7-2.7,4.2-6.3,4.2-10.1s-1.5-7.4-4.2-10.1C26.9,8.2,23.3,6.7,19.5,6.7 M19.5,5.7c8.4,0,15.3,6.8,15.3,15.3
			s-6.8,15.3-15.3,15.3S4.2,29.4,4.2,21S11,5.7,19.5,5.7z"/>
	</g>
	<path id="Path_2300" class="st2" d="M8299.9,8617.9c0.1-0.3,0.4-0.5,0.7-0.4c2,0,4,0,6.1,0c0.5,0,0.8,0.3,0.6,0.7
		c-0.1,0.3-0.4,0.4-0.7,0.4c-1.7,0-3.4,0-5.2,0h-0.4v10.2h10.2c0-0.1,0-0.2,0-0.3c0-1.7,0-3.4,0-5.1c0-0.2,0-0.3,0.1-0.4
		c0.1-0.3,0.4-0.4,0.7-0.3c0.2,0.1,0.3,0.3,0.3,0.5c0,0.1,0,0.2,0,0.2c0,2,0,4,0,5.9c0,0.3-0.1,0.6-0.4,0.7h-12.1V8617.9z"/>
	<path id="Path_2301" class="st2" d="M8310.3,8617.2l2.7,2.4c-0.3,0.2-0.4,0.4-0.6,0.6c-1.4,1.4-2.9,2.8-4.3,4.3
		c-0.3,0.3-0.7,0.5-1.1,0.6c-0.6,0.2-1.2,0.3-1.8,0.5c-0.5,0.1-0.9-0.2-0.7-0.7c0.2-0.8,0.4-1.5,0.7-2.3c0-0.1,0.1-0.2,0.2-0.3
		C8306.9,8620.6,8308.6,8618.9,8310.3,8617.2z M8306.8,8623.1c-0.3,0-0.7,0-0.8,0.1c-0.1,0.2-0.4,0.5-0.1,0.9c0.3,0.3,0.6-0.1,1-0.1
		L8306.8,8623.1z"/>
	<path id="Path_2302" class="st2" d="M8314.1,8618.2l-2.4-2.4c0.3-0.2,0.5-0.6,0.9-0.6c0.2,0,0.5,0.1,0.6,0.3
		c0.4,0.3,0.8,0.7,1.1,1.1c0.4,0.3,0.4,0.8,0.1,1.2c0,0-0.1,0.1-0.1,0.1C8314.4,8618,8314.3,8618.1,8314.1,8618.2z"/>
	<path id="Path_2303" class="st2" d="M8311.3,8616.2l2.5,2.5l-0.5,0.5l-2.5-2.5L8311.3,8616.2z"/>
</g>
</svg>
