<?xml version="1.0" encoding="utf-8"?>
<!-- Generator: Adobe Illustrator 24.2.0, SVG Export Plug-In . SVG Version: 6.00 Build 0)  -->
<svg version="1.1" id="Layer_1" xmlns="http://www.w3.org/2000/svg" xmlns:xlink="http://www.w3.org/1999/xlink" x="0px" y="0px"
	 viewBox="0 0 39 42" style="enable-background:new 0 0 39 42;" xml:space="preserve">
<style type="text/css">
	.st0{fill:#D0D0D0;}
	.st1{fill:none;}
	.st2{fill:#D1D1D1;}
</style>
<g id="Group_4899" transform="translate(-8287 -8808)">
	<path id="Path_2295" class="st0" d="M8299.7,8828.4c-0.4,0.2-0.7,0.4-1.1,0.5c-0.2,0.1-0.5,0-0.6-0.2c0,0,0,0,0,0
		c-0.1-0.1-0.1-0.3,0-0.5c0.4-0.6,0.7-1.3,1.1-1.9c0.1-0.2,0.3-0.4,0.4-0.6c0.2-0.3,0.5-0.5,0.8-0.6c1.9-1,3.9-1.9,5.8-2.9
		c0.4-0.2,0.8-0.2,1.2,0c1.9,1,3.9,1.9,5.8,2.9c0.3,0.1,0.5,0.3,0.6,0.6c0.5,1,1,2,1.5,3c0.2,0.3,0.1,0.6-0.2,0.8c0,0,0,0-0.1,0
		c-0.3,0.2-0.7,0.3-1,0.5c-0.1,0-0.2,0.1-0.2,0.2c0,0.9,0,1.8,0,2.6c0,0.5-0.3,1-0.8,1.2c-1.9,1-3.8,1.9-5.7,2.9
		c-0.4,0.2-0.9,0.2-1.3,0c-1.9-1-3.8-1.9-5.8-2.9c-0.5-0.2-0.8-0.7-0.7-1.2c0-1.5,0-2.9,0-4.4
		C8299.7,8828.5,8299.7,8828.5,8299.7,8828.4z M8300.9,8826.7c0,0.1,0,0.1,0,0.2c0,2,0,4,0,6c0,0.1,0.1,0.2,0.2,0.3
		c1.7,0.8,3.3,1.7,5,2.5c0.1,0,0.1,0,0.2,0.1c0-0.1,0-0.1,0-0.2c0-2,0-4,0-6c0-0.1-0.1-0.2-0.1-0.2c-1.7-0.8-3.3-1.7-5-2.5
		C8301.1,8826.8,8301,8826.8,8300.9,8826.7L8300.9,8826.7z M8314.1,8828.8c-0.3-0.7-0.7-1.3-1-2c-0.1-0.1-0.1-0.1-0.3-0.1
		c-1.3,0.7-2.6,1.3-4,2c-0.4,0.2-0.8,0.4-1.3,0.6l1.1,2.1L8314.1,8828.8z M8307.4,8835.7c0.1,0,0.1,0,0.1-0.1
		c1.7-0.8,3.4-1.7,5.1-2.5c0.1,0,0.1-0.1,0.1-0.2c0-0.7,0-1.4,0-2.1c0,0,0-0.1,0-0.1c-0.4,0.2-0.7,0.3-1.1,0.5c-1,0.5-2,1-2.9,1.4
		c-0.3,0.2-0.6,0.1-0.8-0.1c0,0-0.1-0.1-0.1-0.2c-0.1-0.2-0.2-0.4-0.3-0.6c0-0.1-0.1-0.2-0.1-0.2l0,0L8307.4,8835.7z M8312.1,8825.8
		l-5.2-2.6v5.2L8312.1,8825.8z"/>
	<g id="Path_2299" transform="translate(8287 8808)">
		<path class="st1" d="M19.3,6.1c8.4,0,15.3,6.9,15.3,15.3s-6.9,15.3-15.3,15.3S4,29.8,4,21.4c0,0,0,0,0,0C4,12.9,10.9,6.1,19.3,6.1
			z"/>
		<path class="st2" d="M19.3,7.1c-3.8,0-7.4,1.5-10.1,4.2C6.5,14,5,17.6,5,21.4s1.5,7.4,4.2,10.1c2.7,2.7,6.3,4.2,10.1,4.2
			s7.4-1.5,10.1-4.2c2.7-2.7,4.2-6.3,4.2-10.1s-1.5-7.4-4.2-10.1C26.7,8.6,23.2,7.1,19.3,7.1 M19.3,6.1c8.4,0,15.3,6.8,15.3,15.3
			s-6.8,15.3-15.3,15.3S4,29.8,4,21.4S10.9,6.1,19.3,6.1z"/>
	</g>
</g>
</svg>
