<?xml version="1.0" encoding="utf-8"?>
<!-- Generator: Adobe Illustrator 24.2.0, SVG Export Plug-In . SVG Version: 6.00 Build 0)  -->
<svg version="1.1" id="Layer_1" xmlns="http://www.w3.org/2000/svg" xmlns:xlink="http://www.w3.org/1999/xlink" x="0px" y="0px"
	 viewBox="0 0 39 42" style="enable-background:new 0 0 39 42;" xml:space="preserve">
<style type="text/css">
	.st0{fill:none;}
	.st1{fill:#D1D1D1;}
	.st2{fill:#CECECE;}
</style>
<g id="Group_4896" transform="translate(-8287 -8654)">
	<g id="Path_2281" transform="translate(8287 8654)">
		<path class="st0" d="M19.3,5.7c8.4,0,15.3,6.9,15.3,15.3s-6.9,15.3-15.3,15.3S4,29.4,4,21c0,0,0,0,0,0C4,12.5,10.9,5.7,19.3,5.7z"
			/>
		<path class="st1" d="M19.3,6.7c-3.8,0-7.4,1.5-10.1,4.2C6.5,13.6,5,17.2,5,21s1.5,7.4,4.2,10.1c2.7,2.7,6.3,4.2,10.1,4.2
			s7.4-1.5,10.1-4.2c2.7-2.7,4.2-6.3,4.2-10.1s-1.5-7.4-4.2-10.1C26.7,8.2,23.1,6.7,19.3,6.7 M19.3,5.7c8.4,0,15.3,6.8,15.3,15.3
			s-6.8,15.3-15.3,15.3S4,29.4,4,21S10.9,5.7,19.3,5.7z"/>
	</g>
	<path id="Path_2304" class="st2" d="M8308.1,8672c0,1.4,0,2.7,0,4.1c0.1,0.6-0.3,1.2-1,1.3c-0.6,0.1-1.2,0.1-1.7,0
		c-0.5-0.1-0.9-0.6-0.8-1.2c0-2.8,0-5.5,0-8.3c0-0.2,0-0.3,0.1-0.5c0.5-0.8,1.4-1.1,2.3-0.8c0.7,0.1,1.2,0.7,1.2,1.4
		C8308.1,8669.3,8308.1,8670.7,8308.1,8672z"/>
	<path id="Path_2305" class="st2" d="M8306.3,8683.2c-0.9,0-1.7-0.7-1.8-1.6c0,0,0-0.1,0-0.1c0-1,0.7-1.8,1.7-1.8s1.8,0.7,1.8,1.7
		c0,0,0,0.1,0,0.1c0,0.9-0.7,1.7-1.7,1.7C8306.4,8683.2,8306.3,8683.2,8306.3,8683.2z"/>
</g>
</svg>
