<?xml version="1.0" encoding="utf-8"?>
<!-- Generator: Adobe Illustrator 24.2.0, SVG Export Plug-In . SVG Version: 6.00 Build 0)  -->
<svg version="1.1" id="Layer_1" xmlns="http://www.w3.org/2000/svg" xmlns:xlink="http://www.w3.org/1999/xlink" x="0px" y="0px"
	 viewBox="0 0 39 42" style="enable-background:new 0 0 39 42;" xml:space="preserve">
<style type="text/css">
	.st0{fill:none;}
	.st1{fill:#D1D1D1;}
	.st2{fill:none;stroke:#D0D0D0;stroke-width:1.5;}
	.st3{fill:#CECECE;}
</style>
<g id="Group_4900" transform="translate(-8287 -8859)">
	<g id="Path_2299" transform="translate(8287 8859)">
		<path class="st0" d="M19.3,6.1c8.4,0,15.3,6.9,15.3,15.3s-6.9,15.3-15.3,15.3S4,29.8,4,21.4c0,0,0,0,0,0C4,12.9,10.9,6.1,19.3,6.1
			z"/>
		<path class="st1" d="M19.3,7.1c-3.8,0-7.4,1.5-10.1,4.2C6.5,14,5,17.6,5,21.4s1.5,7.4,4.2,10.1c2.7,2.7,6.3,4.2,10.1,4.2
			s7.4-1.5,10.1-4.2c2.7-2.7,4.2-6.3,4.2-10.1s-1.5-7.4-4.2-10.1C26.7,8.6,23.2,7.1,19.3,7.1 M19.3,6.1c8.4,0,15.3,6.8,15.3,15.3
			s-6.8,15.3-15.3,15.3S4,29.8,4,21.4S10.9,6.1,19.3,6.1z"/>
	</g>
	<g id="Rectangle_3465" transform="translate(8295 8868.621)">
		<path class="st0" d="M6,6.1h9c1.1,0,2,0.9,2,2v10c0,1.1-0.9,2-2,2H6c-1.1,0-2-0.9-2-2v-10C4,7,4.9,6.1,6,6.1z"/>
		<path class="st2" d="M6,6.8h9c0.7,0,1.2,0.6,1.2,1.2v10c0,0.7-0.6,1.2-1.2,1.2H6c-0.7,0-1.2-0.6-1.2-1.2v-10
			C4.8,7.4,5.3,6.8,6,6.8z"/>
	</g>
	<path id="Path_2289" class="st3" d="M8307.1,8883.7c-0.4,0-0.7-0.1-1-0.4l-1.2-0.9c-0.2-0.1-0.3-0.3-0.5-0.4l-0.9-0.7
		c-0.4-0.3-0.7-0.6-1.1-0.9c-0.2-0.2-0.4-0.5-0.4-0.8c0-0.2,0-0.4,0.1-0.6c0.1-0.2,0.2-0.3,0.4-0.5c0.3-0.2,0.6-0.3,1-0.3
		c0.3,0,0.5,0.1,0.7,0.3c0.3,0.3,0.7,0.5,1,0.8c0.2,0.2,0.5,0.4,0.7,0.6c0.2,0.2,0.5,0.4,0.7,0.6c0.1,0.1,0.2,0,0.3-0.1
		c0.1-0.2,0.2-0.4,0.4-0.6c0.2-0.4,0.5-0.8,0.7-1.1c0.2-0.3,0.3-0.5,0.5-0.8c0.2-0.3,0.4-0.6,0.6-1c0.1-0.1,0.2-0.3,0.3-0.4
		c0.2-0.4,0.5-0.8,0.7-1.2c0.1-0.2,0.3-0.4,0.4-0.7c0.2-0.4,0.5-0.8,0.7-1.2c0.2-0.3,0.3-0.5,0.5-0.8c0.1-0.2,0.3-0.3,0.6-0.4
		c0.4-0.1,0.8-0.1,1.1,0.1c0.2,0.1,0.4,0.3,0.6,0.6c0.1,0.3,0.2,0.6,0.1,0.9c0,0.1-0.1,0.2-0.1,0.3c-0.2,0.4-0.4,0.7-0.7,1.1
		c-0.1,0.2-0.2,0.3-0.3,0.5c-0.2,0.4-0.5,0.8-0.7,1.2c-0.2,0.3-0.4,0.6-0.6,0.9c-0.2,0.3-0.4,0.6-0.6,1c-0.2,0.3-0.4,0.6-0.6,1
		c-0.2,0.3-0.4,0.6-0.6,0.9c-0.2,0.2-0.3,0.5-0.4,0.7c-0.1,0.2-0.3,0.4-0.4,0.6c-0.2,0.4-0.5,0.8-0.7,1.1c-0.2,0.4-0.5,0.6-0.9,0.7
		C8307.3,8883.7,8307.2,8883.7,8307.1,8883.7z"/>
</g>
</svg>
