<?xml version="1.0" encoding="utf-8"?>
<!-- Generator: Adobe Illustrator 24.2.0, SVG Export Plug-In . SVG Version: 6.00 Build 0)  -->
<svg version="1.1" id="Layer_1" xmlns="http://www.w3.org/2000/svg" xmlns:xlink="http://www.w3.org/1999/xlink" x="0px" y="0px"
	 viewBox="0 0 39 42" style="enable-background:new 0 0 39 42;" xml:space="preserve">
<style type="text/css">
	.st0{fill:none;}
	.st1{fill:#D1D1D1;}
	.st2{fill:#D0D0D0;}
</style>
<g id="Group_4897" transform="translate(-8287 -8705)">
	<g id="Path_2281" transform="translate(8287 8705)">
		<path class="st0" d="M19.3,6.1c8.4,0,15.3,6.9,15.3,15.3s-6.9,15.3-15.3,15.3S4,29.8,4,21.4c0,0,0,0,0,0C4,12.9,10.9,6.1,19.3,6.1
			z"/>
		<path class="st1" d="M19.3,7.1c-3.8,0-7.4,1.5-10.1,4.2C6.5,14,5,17.6,5,21.4s1.5,7.4,4.2,10.1c2.7,2.7,6.3,4.2,10.1,4.2
			s7.4-1.5,10.1-4.2c2.7-2.7,4.2-6.3,4.2-10.1s-1.5-7.4-4.2-10.1C26.7,8.6,23.2,7.1,19.3,7.1 M19.3,6.1c8.4,0,15.3,6.8,15.3,15.3
			s-6.8,15.3-15.3,15.3S4,29.8,4,21.4S10.9,6.1,19.3,6.1z"/>
	</g>
	<g id="Path_2281-2" transform="translate(8287 8705)">
		<path class="st0" d="M19.3,6.1c8.4,0,15.3,6.9,15.3,15.3s-6.9,15.3-15.3,15.3S4,29.8,4,21.4c0,0,0,0,0,0C4,12.9,10.9,6.1,19.3,6.1
			z"/>
		<path class="st1" d="M19.3,7.1c-3.8,0-7.4,1.5-10.1,4.2C6.5,14,5,17.6,5,21.4s1.5,7.4,4.2,10.1c2.7,2.7,6.3,4.2,10.1,4.2
			s7.4-1.5,10.1-4.2c2.7-2.7,4.2-6.3,4.2-10.1s-1.5-7.4-4.2-10.1C26.7,8.6,23.2,7.1,19.3,7.1 M19.3,6.1c8.4,0,15.3,6.8,15.3,15.3
			s-6.8,15.3-15.3,15.3S4,29.8,4,21.4S10.9,6.1,19.3,6.1z"/>
	</g>
	<path id="Path_2284" class="st2" d="M8303.9,8734.8c-0.8-0.3-1.6-0.5-2.4-0.8c-0.8-0.3-1.5-0.5-2.3-0.8c-0.2,0-0.3-0.2-0.3-0.4
		c0-0.3,0-0.6,0-0.9c0-1.3,0-2.6,0-3.8c0-0.1,0-0.2,0-0.3c0-0.1,0.1-0.2,0.2-0.1l3.9,1.4c0.3,0.1,0.6,0.2,0.8,0.3
		c0.1,0,0.1,0.1,0.1,0.1c0,1.6,0,3.1,0,4.7c0,0.2,0,0.4,0,0.6C8303.9,8734.7,8303.9,8734.8,8303.9,8734.8L8303.9,8734.8z"/>
	<path id="Path_2285" class="st2" d="M8304.9,8734.8c-0.1-0.1-0.1-0.1-0.1-0.2c0-1.7,0-3.5,0-5.2c0,0,0-0.1,0.1-0.1
		c1.6-0.6,3.1-1.1,4.7-1.7c0.2-0.1,0.2,0,0.2,0.2c0,0.2,0,0.5,0,0.7c0,1.5,0,2.9,0,4.4c0,0.1-0.1,0.2-0.2,0.2
		c-0.3,0.1-0.6,0.3-1,0.4c-1.2,0.4-2.4,0.8-3.6,1.3L8304.9,8734.8L8304.9,8734.8z"/>
	<path id="Path_2286" class="st2" d="M8302.5,8721.9c0,0,0,0.1,0,0.1c0,0.5,0,1,0,1.6c0,0.1,0,0.1,0,0.2c0,0.1-0.1,0.1-0.2,0.1
		c-0.1,0-0.2-0.1-0.3-0.2c-0.6-0.5-1.2-0.9-1.8-1.4c-0.7-0.5-1.4-1.1-2.1-1.7c0,0-0.1,0-0.1-0.1c-0.1,0-0.1-0.1,0-0.2c0,0,0,0,0,0
		c0.2-0.2,0.4-0.3,0.6-0.5c1.1-0.9,2.3-1.8,3.4-2.7c0.1,0,0.1-0.1,0.2-0.1c0.1,0,0.2,0,0.2,0.1c0,0,0,0,0,0c0,0,0,0.1,0,0.1
		c0,0.5,0,1.1,0,1.6c0,0,0,0.1,0,0.1c0.1,0,0.3,0,0.4,0c0.8,0,1.7,0,2.5,0.1c1.4,0,2.7,0.3,4,0.8c1.1,0.4,2,1,2.9,1.7
		c0.8,0.8,1.4,1.8,1.6,2.9c0.4,1.6,0.1,3.2-0.7,4.6c-0.3,0.6-0.8,1.1-1.3,1.5c-0.1,0.1-0.2,0.1-0.3,0.2c-0.1,0-0.3,0-0.4-0.1
		c-0.1-0.1-0.1-0.3,0.1-0.4c0.2-0.2,0.5-0.5,0.7-0.8c0.5-0.7,0.8-1.5,0.7-2.3c-0.1-0.9-0.4-1.8-1.1-2.5c-0.7-0.8-1.6-1.4-2.6-1.8
		c-0.9-0.3-1.8-0.6-2.7-0.8c-0.5-0.1-1.1-0.1-1.6-0.2C8304,8721.9,8303.3,8721.9,8302.5,8721.9
		C8302.6,8721.9,8302.6,8721.9,8302.5,8721.9z"/>
	<path id="Path_2287" class="st2" d="M8309.1,8726.8c0,0.1,0,0.2-0.1,0.2c-0.7,0.2-1.3,0.5-2,0.7c-0.8,0.3-1.7,0.6-2.5,0.9
		c-0.1,0-0.1,0-0.2,0c-1.4-0.5-2.8-1-4.2-1.5c-0.1,0-0.2-0.1-0.3-0.1c0,0-0.1-0.1-0.1-0.1c0,0,0-0.1,0.1-0.1
		c0.2-0.1,0.4-0.2,0.7-0.3c1.2-0.4,2.5-0.9,3.7-1.3c0.2-0.1,0.4-0.1,0.5,0c1.4,0.5,2.9,1,4.3,1.5
		C8309.1,8726.7,8309.1,8726.7,8309.1,8726.8z"/>
</g>
</svg>
