<?xml version="1.0" encoding="utf-8"?>
<!-- Generator: Adobe Illustrator 24.1.3, SVG Export Plug-In . SVG Version: 6.00 Build 0)  -->
<svg version="1.1" id="Layer_1" xmlns="http://www.w3.org/2000/svg" xmlns:xlink="http://www.w3.org/1999/xlink" x="0px" y="0px"
	 viewBox="0 0 16 16" style="enable-background:new 0 0 16 16;" xml:space="preserve">
<style type="text/css">
	.st0{fill:#FED80B;}
	.st1{fill:#110E00;}
</style>
<circle class="st0" cx="8" cy="8" r="8"/>
<g>
	<path class="st1" d="M13.9,7.5c-1.1-1.2-2.2-2.3-3.3-3.5c-0.3-0.3-0.5-0.3-0.8,0c-0.5,0.5-1,1-1.5,1.5C8,5.7,7.9,5.7,7.7,5.5
		C7.2,4.8,6.6,4.2,6,3.6c-0.1,0-0.3,0-0.4,0C4.5,4.8,3.3,5.8,2.2,6.9C2.1,7.1,1.9,7.2,1.9,7.5c0.3,0.6,0.7,1.1,1.3,1.5
		c0.4,0.2,0.7,0.5,1,0.8c0.2,0.2,0.4,0.4,0.5,0.5c0.8,0.9,1.6,1.7,2.4,2.5c0.4,0.4,1.2,0.5,1.6,0.1c0.4-0.4,0.9-0.8,1.3-1.2
		c0.3-0.3,0.6-0.7,1-0.9c0.2-0.1,0.3-0.2,0.4-0.4c0.2-0.2,0.5-0.5,0.7-0.7c0.1-0.1,0.2-0.2,0.4-0.3c0.7-0.2,1-0.7,1.4-1.2
		C14.2,8,14.2,7.7,13.9,7.5z M3.6,7.8C3.3,8.1,3.2,7.7,3,7.6C2.9,7.5,2.8,7.4,3,7.2c0.9-0.8,1.7-1.6,2.6-2.4
		c0.1-0.1,0.2-0.2,0.3-0.1C6.1,4.8,6.2,5,6.3,5.1C6.3,5.2,6.2,5.3,6.2,5.3C5.3,6.1,4.4,6.9,3.6,7.8z M10.5,10
		c-0.2,0.2-0.4,0.1-0.6-0.1C9.8,9.8,9.6,9.7,9.5,9.5C9.3,9.4,9.1,9.3,8.9,9.5c-0.2,0.2-0.1,0.4,0,0.6c0.2,0.2,0.3,0.3,0.4,0.5
		c0.1,0.2,0.2,0.4,0,0.5c-0.2,0.2-0.4,0.1-0.5,0c-0.2-0.2-0.3-0.3-0.5-0.5c-0.2-0.2-0.4-0.2-0.6,0c-0.2,0.2-0.1,0.4,0.1,0.6
		c0.1,0.1,0.3,0.3,0.4,0.4c0.2,0.2,0.3,0.4,0.1,0.6c-0.2,0.2-0.4,0.1-0.6-0.1c-0.4-0.5-0.9-0.9-1.3-1.4c-0.5-0.5-0.9-1-1.4-1.5
		C4.8,9.2,4.7,9,4.7,8.9C4.1,8.3,4.1,8.3,4.7,7.8C5.4,7.1,6,6.6,6.6,5.9C6.9,5.6,7,5.9,7.2,6c0.2,0.2,0.1,0.3,0,0.5
		C7,6.6,6.9,6.7,6.8,6.9C6.3,7.2,6.1,7.7,6.2,8.2c0.5,1,1.3,1.1,2.1,0.3C9,7.9,9,7.9,9.6,8.6c0.3,0.3,0.6,0.6,0.8,0.9
		C10.6,9.7,10.7,9.8,10.5,10z M11.6,9c-0.2,0.2-0.3,0.2-0.5,0C10.6,8.4,10,7.8,9.4,7.3C9.1,6.9,9,6.9,8.6,7.2C8.3,7.5,8,7.8,7.7,8.1
		C7.6,8.2,7.5,8.3,7.4,8.3C7.2,8.3,7.1,8.2,7,8C7,7.9,7,7.8,7.1,7.7c0.6-0.6,1.2-1.2,1.9-1.8c0.1-0.1,0.2,0,0.3,0.1
		c0.8,0.9,1.6,1.7,2.4,2.5C11.9,8.7,11.8,8.8,11.6,9z M12.7,8.3c-0.1,0.1-0.2-0.1-0.3-0.2c-0.9-0.9-1.7-1.8-2.6-2.7
		C9.6,5.2,9.7,5.1,9.9,5c0.1-0.1,0.2-0.4,0.5-0.2c0.9,1,1.8,1.9,2.7,2.9c0,0,0.1,0.1,0.1,0.2C13,8,12.9,8.2,12.7,8.3z"/>
</g>
</svg>
