<?xml version="1.0" encoding="utf-8"?>
<!-- Generator: Adobe Illustrator 24.1.3, SVG Export Plug-In . SVG Version: 6.00 Build 0)  -->
<svg version="1.1" id="Layer_1" xmlns="http://www.w3.org/2000/svg" xmlns:xlink="http://www.w3.org/1999/xlink" x="0px" y="0px"
	 viewBox="0 0 38.98 41.98" style="enable-background:new 0 0 38.98 41.98;" xml:space="preserve">
<style type="text/css">
	.st0{fill:#373737;stroke:#FFD90B;stroke-width:0.8497;}
	.st1{fill:#FFFFFF;}
</style>
<g id="Group_4574" transform="translate(-1577.441 -153.994)">
	<path id="Path_1497_1_" class="st0" d="M1612.93,187.85c-0.32,0.51-0.9,0.8-1.5,0.74c-3.37-0.03-6.75-0.02-10.12-0.02h-0.86
		l10.34-8.68c0.49,1.72,0.96,3.36,1.44,5.01c0.22,0.75,0.47,1.49,0.71,2.23V187.85L1612.93,187.85z"/>
	<path id="Path_1498_1_" class="st0" d="M1596.73,159.98c4.82-0.01,8.09,4.48,6.78,9.31c-0.91,2.91-2.52,5.55-4.68,7.69
		c-0.41,0.44-0.83,0.86-1.27,1.26c-0.38,0.43-1.05,0.48-1.49,0.09c-0.03-0.02-0.04-0.04-0.06-0.06c-2.85-2.7-5.29-5.68-6.14-9.64
		c-0.88-3.81,1.5-7.61,5.3-8.49C1595.69,160.04,1596.21,159.98,1596.73,159.98z M1598.59,167.14c0.05-1.01-0.72-1.87-1.73-1.92
		c-1.01-0.05-1.87,0.72-1.92,1.73c-0.05,1.01,0.72,1.87,1.73,1.92S1598.53,168.15,1598.59,167.14L1598.59,167.14z"/>
	<path id="Path_1499_1_" class="st0" d="M1583.04,178.87c0.33-1.16,0.65-2.26,0.97-3.36c0.1-0.49,0.54-0.84,1.04-0.82
		c1.84-0.03,3.69-0.03,5.52,0.01c0.22,0,0.47,0.26,0.64,0.46c1.21,1.36,2.35,2.78,3.59,4.09c0.88,1.08,2.46,1.26,3.53,0.38
		c0.14-0.11,0.27-0.24,0.38-0.38c1.27-1.33,2.42-2.77,3.65-4.13c0.2-0.23,0.49-0.38,0.81-0.42c1.67-0.04,3.35-0.01,5.02-0.03
		c0.67-0.08,1.29,0.37,1.41,1.05c0.2,0.74,0.43,1.47,0.59,2.21c0.03,0.25-0.04,0.51-0.21,0.7c-1.59,1.35-3.19,2.67-4.81,3.98
		c-0.22,0.16-0.5,0.23-0.77,0.2C1597.3,181.5,1590.22,180.19,1583.04,178.87z"/>
	<path id="Path_1500_1_" class="st0" d="M1587.51,181.27l15.79,2.89c-1.27,1.07-2.52,1.99-3.6,3.08c-1,1.03-2.41,1.53-3.84,1.39
		c-2.51-0.12-5.02-0.03-7.53-0.03h-0.82V181.27z"/>
	<path id="Path_1501_1_" class="st0" d="M1585.88,188.57c-1.44,0-2.83,0.03-4.21-0.01c-0.56,0.02-1.04-0.42-1.05-0.98
		c-0.01-0.12,0.01-0.24,0.05-0.35c0.62-2.27,1.28-4.54,1.95-6.87l3.27,0.59L1585.88,188.57L1585.88,188.57z"/>
	<path id="Path_1502_1_" class="st1" d="M1598.59,167.14c-0.05,1.01-0.91,1.78-1.92,1.73s-1.78-0.91-1.73-1.92
		c0.05-1.01,0.91-1.78,1.92-1.73S1598.65,166.13,1598.59,167.14z"/>
</g>
</svg>
