<?xml version="1.0" encoding="UTF-8"?>
<svg width="14px" height="12px" viewBox="0 0 14 12" version="1.1" xmlns="http://www.w3.org/2000/svg" xmlns:xlink="http://www.w3.org/1999/xlink">
    <!-- Generator: Sketch 48.2 (47327) - http://www.bohemiancoding.com/sketch -->
    <title>heart - font-awesome</title>
    <desc>Created with Sketch.</desc>
    <defs></defs>
    <g id="Homepage" stroke="none" stroke-width="1" fill="none" fill-rule="evenodd" transform="translate(-811.000000, -3952.000000)">
        <g id="Footer" transform="translate(0.000000, 3871.000000)" fill="#EA3B3B">
            <g id="Group-2" transform="translate(534.000000, 75.000000)">
                <path d="M284,18.013 C283.869333,18.013 283.752667,17.9663338 283.65,17.873 L278.778,13.169 L278.568,12.959 C278.474666,12.8656662 278.330001,12.6930013 278.134,12.441 C277.937999,12.1889988 277.760667,11.9370013 277.602,11.685 C277.443333,11.4329988 277.303334,11.1203352 277.182,10.747 C277.060666,10.3736648 277,10.0143351 277,9.66900002 C277,8.52099428 277.33133,7.62500324 277.994,6.98100002 C278.65667,6.3369968 279.571328,6.0103334 280.738,6.00100002 C281.055335,6.00100002 281.381998,6.05699946 281.718,6.16900002 C282.054002,6.28100058 282.366665,6.43499904 282.656,6.63100002 C282.945335,6.827001 283.197332,7.00433256 283.412,7.16300002 C283.626668,7.32166748 283.822666,7.49899904 284,7.69500002 C284.186668,7.50833242 284.382666,7.33100086 284.588,7.16300002 C284.793334,6.99499918 285.045332,6.81766762 285.344,6.63100002 C285.642668,6.44433242 285.955332,6.29033396 286.282,6.16900002 C286.608668,6.04766608 286.935332,5.99166664 287.262,6.00100002 C288.428672,6.00100002 289.34333,6.32766342 290.006,6.98100002 C290.66867,7.63433662 291,8.53266097 291,9.67600002 C291,10.8193391 290.402673,11.9883274 289.208,13.183 L284.35,17.873 C284.256666,17.9663338 284.140001,18.013 284,18.013 Z" id="heart---font-awesome"></path>
            </g>
        </g>
    </g>
</svg>