<svg xmlns="http://www.w3.org/2000/svg" viewBox="0 0 19.92 14.94"><defs><style>.cls-1{fill:#383838;}</style></defs><g id="Layer_2" data-name="Layer 2"><g id="Layer_1-2" data-name="Layer 1"><g id="envelope"><g id="Group_3108" data-name="Group 3108"><g id="Group_3107" data-name="Group 3107"><path id="Path_1428" data-name="Path 1428" class="cls-1" d="M.42,1.21C3.15,3.53,8,7.6,9.36,8.87a.82.82,0,0,0,1.17,0l0,0C12,7.6,16.76,3.53,19.5,1.21a.42.42,0,0,0,.06-.57A1.68,1.68,0,0,0,18.26,0H1.66A1.65,1.65,0,0,0,.36.64.4.4,0,0,0,.42,1.21Z"/><path id="Path_1429" data-name="Path 1429" class="cls-1" d="M19.68,2.47a.39.39,0,0,0-.44.06c-3,2.57-6.9,5.86-8.12,7a1.68,1.68,0,0,1-2.32,0C7.5,8.32,3.16,4.63.68,2.53a.4.4,0,0,0-.58.05.38.38,0,0,0-.1.27V13.28a1.66,1.66,0,0,0,1.66,1.66h16.6a1.66,1.66,0,0,0,1.66-1.66V2.85A.41.41,0,0,0,19.68,2.47Z"/></g></g></g></g></g></svg>