<svg xmlns="http://www.w3.org/2000/svg" viewBox="0 0 17.94 17.94"><defs><style>.cls-1{fill:#383838;isolation:isolate;}</style></defs><g id="Layer_2" data-name="Layer 2"><g id="Layer_1-2" data-name="Layer 1"><path id="facebook" class="cls-1" d="M16.65,0H1.29A1.29,1.29,0,0,0,0,1.29V16.65a1.29,1.29,0,0,0,1.29,1.29H9.58V11H7.25V8.29H9.58v-2a3.26,3.26,0,0,1,2.93-3.57,3.47,3.47,0,0,1,.56,0,18.41,18.41,0,0,1,2.09.11V5.24H13.73c-1.13,0-1.34.53-1.34,1.32V8.29h2.69L14.73,11H12.39v6.94h4.26a1.3,1.3,0,0,0,1.29-1.3h0V1.29A1.29,1.29,0,0,0,16.65,0Z"/></g></g></svg>