<svg xmlns="http://www.w3.org/2000/svg" viewBox="0 0 18.3 13.41"><defs><style>.cls-1{opacity:0.3;isolation:isolate;}.cls-2{fill:#383838;}</style></defs><g id="Layer_2" data-name="Layer 2"><g id="Layer_1-2" data-name="Layer 1"><g id="Group_2264" data-name="Group 2264" class="cls-1"><rect id="Rectangle_2283" data-name="Rectangle 2283" class="cls-2" x="-0.63" y="2.26" width="7.73" height="1.93" rx="0.44" transform="translate(-1.34 3.23) rotate(-45)"/><rect id="Rectangle_2284" data-name="Rectangle 2284" class="cls-2" x="13.99" y="-0.68" width="1.93" height="8.05" rx="0.44" transform="translate(2.01 11.55) rotate(-45)"/><path id="Path_1385" data-name="Path 1385" class="cls-2" d="M16,6.86,11.1,2a.36.36,0,0,0-.49,0h0l-.88.88L7.44,5.16A1,1,0,1,0,8.81,6.53l2-2L14.6,8.22a.33.33,0,0,0,.48,0h0L16,7.34a.33.33,0,0,0,0-.48Z"/><g id="Group_2263" data-name="Group 2263"><path id="Path_1386" data-name="Path 1386" class="cls-2" d="M8.12,7.43A1.58,1.58,0,0,1,7,4.73L8.6,3.14,7.34,1.88a.34.34,0,0,0-.48,0h0L2.33,6.4a.36.36,0,0,0,0,.49h0l.8.79h0l4.08,4.09h0l1.37,1.36a1,1,0,0,0,1.36-1.36h0l-.24-.24h0L9,10.85a.31.31,0,0,1,0-.44H9a.31.31,0,0,1,.44,0h0l.92.92A1,1,0,0,0,11.77,10h0l-.87-.87s-.27-.27-.05-.5a.31.31,0,0,1,.44,0h0l.92.92a1,1,0,0,0,1.37,0,1,1,0,0,0,0-1.37L12.22,6.76h0L11.1,5.63h0l-.27-.26L9.24,7A1.57,1.57,0,0,1,8.12,7.43Z"/></g></g></g></g></svg>