<svg xmlns="http://www.w3.org/2000/svg" viewBox="0 0 42.34 30.93"><defs><style>.cls-1{fill:#ffce00;}</style></defs><g id="Layer_2" data-name="Layer 2"><g id="Layer_1-2" data-name="Layer 1"><g id="Group_2264" data-name="Group 2264"><rect id="Rectangle_2283" data-name="Rectangle 2283" class="cls-1" x="-1.21" y="5.42" width="17.68" height="4.42" rx="0.44" transform="translate(-3.16 7.63) rotate(-45)"/><rect id="Rectangle_2284" data-name="Rectangle 2284" class="cls-1" x="32.24" y="-1.32" width="4.42" height="18.41" rx="0.44" transform="translate(4.51 26.67) rotate(-45)"/><path id="Path_1385" data-name="Path 1385" class="cls-1" d="M36.76,15.93,25.63,4.8a.78.78,0,0,0-1.11,0h0l-2,2-5.25,5.24a2.21,2.21,0,0,0,3.13,3.13l4.69-4.69,8.56,8.56a.78.78,0,0,0,1.11,0h0l2-2a.78.78,0,0,0,0-1.11Z"/><g id="Group_2263" data-name="Group 2263"><path id="Path_1386" data-name="Path 1386" class="cls-1" d="M18.83,17.24a3.62,3.62,0,0,1-2.56-6.18l3.64-3.64L17,4.54a.78.78,0,0,0-1.11,0h0L5.58,14.89a.78.78,0,0,0,0,1.11h0L7.4,17.82h0l9.34,9.34h0l3.13,3.13A2.21,2.21,0,1,0,23,27.16h0l-.55-.55h0l-1.53-1.52a.73.73,0,0,1,0-1h0l0,0a.7.7,0,0,1,1,0h0L24,26.12A2.21,2.21,0,0,0,27.16,23h0l-2-2s-.63-.63-.11-1.15a.71.71,0,0,1,1,0v0L28.2,22a2.21,2.21,0,1,0,3.13-3.13h0L28.2,15.7h0l-2.57-2.57h0l-.6-.6-3.64,3.65A3.62,3.62,0,0,1,18.83,17.24Z"/></g></g></g></g></svg>