<svg xmlns="http://www.w3.org/2000/svg" viewBox="0 0 14.94 14.94"><defs><style>.cls-1{fill:#c4c4c4;}</style></defs><g id="Layer_2" data-name="Layer 2"><g id="Layer_1-2" data-name="Layer 1"><g id="phone"><g id="Group_3110" data-name="Group 3110"><g id="Group_3109" data-name="Group 3109"><path id="Path_1430" data-name="Path 1430" class="cls-1" d="M14.65,11.88,13,10.78l-1.47-1a.65.65,0,0,0-.88.14l-.91,1.17a.64.64,0,0,1-.83.17A10.76,10.76,0,0,1,5.94,9,10.76,10.76,0,0,1,3.66,6a.65.65,0,0,1,.17-.83L5,4.3a.65.65,0,0,0,.14-.88L4.2,2,3.06.29a.65.65,0,0,0-.88-.2L.88.88a1.56,1.56,0,0,0-.73.94C-.21,3.12-.28,6,4.33,10.61s7.49,4.54,8.79,4.18a1.56,1.56,0,0,0,.94-.73l.79-1.3A.65.65,0,0,0,14.65,11.88Z"/></g></g></g></g></g></svg>