<svg xmlns="http://www.w3.org/2000/svg" viewBox="0 0 24.73 22"><defs><style>.cls-1{fill:#f14046;}</style></defs><g id="Layer_2" data-name="Layer 2"><g id="Layer_1-2" data-name="Layer 1"><path class="cls-1" d="M22.77,2.15A6.66,6.66,0,0,0,17.87,0h-.08a6.22,6.22,0,0,0-3.86,1.34A8.14,8.14,0,0,0,12.36,3a7.88,7.88,0,0,0-1.57-1.64A6.22,6.22,0,0,0,6.93,0H6.86A6.66,6.66,0,0,0,2,2.15,7.73,7.73,0,0,0,0,7.43a9.26,9.26,0,0,0,2.45,6,52.27,52.27,0,0,0,6.14,5.76c.85.73,1.82,1.55,2.82,2.42a1.44,1.44,0,0,0,.95.36h0a1.44,1.44,0,0,0,1-.36c1-.88,2-1.7,2.82-2.42a53.12,53.12,0,0,0,6.14-5.76,9.26,9.26,0,0,0,2.45-6A7.77,7.77,0,0,0,22.77,2.15Z"/></g></g></svg>