<svg xmlns="http://www.w3.org/2000/svg" viewBox="0 0 24.73 22"><defs><style>.cls-1{fill:#383838;}.cls-2{fill:#fff;}</style></defs><g id="Layer_2" data-name="Layer 2"><g id="Layer_1-2" data-name="Layer 1"><path class="cls-1" d="M22.77,2.15A6.66,6.66,0,0,0,17.87,0h-.08a6.22,6.22,0,0,0-3.86,1.34A8.14,8.14,0,0,0,12.36,3a7.88,7.88,0,0,0-1.57-1.64A6.22,6.22,0,0,0,6.93,0H6.86A6.66,6.66,0,0,0,2,2.15,7.73,7.73,0,0,0,0,7.43a9.26,9.26,0,0,0,2.45,6,52.27,52.27,0,0,0,6.14,5.76c.85.73,1.82,1.55,2.82,2.42a1.44,1.44,0,0,0,.95.36h0a1.44,1.44,0,0,0,1-.36c1-.88,2-1.7,2.82-2.42a53.12,53.12,0,0,0,6.14-5.76,9.26,9.26,0,0,0,2.45-6A7.77,7.77,0,0,0,22.77,2.15ZM21.18,12.44h0a50.91,50.91,0,0,1-6,5.59v0l0,0c-.8.67-1.79,1.52-2.81,2.41-1-.86-1.92-1.66-2.79-2.41l0,0h0a51,51,0,0,1-6-5.6h0a7.75,7.75,0,0,1-2-5A6.18,6.18,0,0,1,3.07,3.16,5.18,5.18,0,0,1,6.86,1.5h.07a4.72,4.72,0,0,1,2.93,1h0a6.41,6.41,0,0,1,1.27,1.33l1.22,1.7,1.22-1.7a6.45,6.45,0,0,1,1.28-1.33,4.72,4.72,0,0,1,2.93-1h.08a5.21,5.21,0,0,1,3.79,1.66A6.2,6.2,0,0,1,23.23,7.4,7.75,7.75,0,0,1,21.18,12.44Z"/><path class="cls-2" d="M23.23,7.4a7.75,7.75,0,0,1-2.05,5h0a50.91,50.91,0,0,1-6,5.59v0l0,0c-.8.67-1.79,1.52-2.81,2.41-1-.86-1.92-1.66-2.79-2.41l0,0h0a51,51,0,0,1-6-5.6h0a7.75,7.75,0,0,1-2-5A6.18,6.18,0,0,1,3.07,3.16,5.18,5.18,0,0,1,6.86,1.5h.07a4.72,4.72,0,0,1,2.93,1h0a6.41,6.41,0,0,1,1.27,1.33l1.22,1.7,1.22-1.7a6.45,6.45,0,0,1,1.28-1.33,4.72,4.72,0,0,1,2.93-1h.08a5.21,5.21,0,0,1,3.79,1.66A6.2,6.2,0,0,1,23.23,7.4Z"/></g></g></svg>